# boulder.obj — валун
# Generated by tools/valley-assets/build_assets.py; see
# assets/valley/CREDITS.txt. Colors are cells of
# assets/valley/textures/valley_atlas.png — no materials here.
# Source: Kenney Nature Kit (CC0) — https://kenney.nl/assets/nature-kit
v -0.108605 0.529543 -0.583476
v 0.681365 0.294190 0.140306
v -0.157399 0.294190 -0.845617
v 0.470142 0.529543 0.096811
v 0.371931 0.411867 0.874565
v -0.426908 0.294190 0.915798
v 0.440155 0.294190 1.034988
v 0.004570 0.529543 0.673021
v -0.294566 0.529543 0.631901
v 0.681365 0.154450 0.140306
v 0.624000 0.000000 0.458804
v 0.531465 0.000000 0.109439
v 0.800000 0.154450 0.588211
v 0.343321 0.000000 0.807291
v -0.122771 0.000000 -0.659581
v -0.332988 0.000000 0.714322
v -0.353078 0.000000 -0.807291
v -0.477570 0.000000 -0.049502
v -0.624000 0.000000 0.280919
v -0.477570 0.000000 -0.536403
v -0.582589 0.000000 -0.733956
v -0.426908 0.154450 0.915798
v 0.440155 0.154450 1.034988
v 0.800000 0.294190 0.588211
v -0.800000 0.154450 0.360152
v -0.612270 0.294190 -0.063464
v -0.612270 0.154450 -0.063464
v -0.800000 0.294190 0.360152
v -0.157399 0.154450 -0.845617
v -0.452664 0.154450 -1.034988
v 0.427853 0.529543 0.560004
v 0.552000 0.529543 0.405865
v -0.746908 0.154450 -0.940969
v -0.552000 0.529543 0.248505
v -0.612270 0.294190 -0.687697
v -0.515367 0.529543 -0.649269
v -0.746908 0.294190 -0.940969
v -0.422466 0.529543 -0.474511
v -0.452664 0.294190 -1.034988
v -0.312338 0.529543 -0.714142
v -0.612270 0.154450 -0.687697
v -0.422466 0.529543 -0.043790
vt 0.093750 0.593750
vn 0.663470 0.491136 -0.564440
vn -0.084183 0.786054 0.612399
vn 0.723166 -0.663583 -0.191542
vn 0.000000 -1.000000 0.000000
vn -0.136184 0.000000 0.990684
vn 0.966667 0.000000 -0.256037
vn -0.914246 0.000000 -0.405159
vn -0.523204 -0.776428 0.351309
vn 0.402706 -0.666015 -0.627894
vn 0.097143 0.926387 0.363828
vn 0.473323 0.794124 0.381226
vn 0.761661 0.000000 -0.647976
vn -0.702127 -0.640469 -0.311156
vn -0.161274 -0.848080 -0.504728
vn -0.547670 0.751550 0.367737
vn -0.870325 0.168762 0.462660
vn -0.848745 0.275790 0.451189
vn -0.880448 0.075823 0.468041
vn -0.080095 -0.808763 0.582656
vn -0.170397 0.828599 -0.533282
vn 0.650312 -0.520589 -0.553247
vn -0.868137 -0.182641 0.461497
vn -0.880285 -0.078210 0.467955
vn -0.843328 -0.296339 0.448309
vn 0.539866 0.000000 -0.841751
vn 0.000000 1.000000 0.000000
vn -0.778407 0.627759 0.000000
vn -0.723972 0.610678 -0.320837
vn -0.304367 0.000000 -0.952555
vn -0.830210 0.000000 0.557450
vn -0.753650 -0.657276 0.000000
vn 0.778804 0.000000 0.627267
vn -1.000000 0.000000 0.000000
vn 0.747403 0.634192 -0.197962
vn 0.416308 0.636676 -0.649101
vn 0.449895 -0.816268 0.362356
f 1/1/1 2/1/1 3/1/1
f 2/1/1 1/1/1 4/1/1
f 5/1/2 6/1/2 7/1/2
f 6/1/2 5/1/2 8/1/2
f 6/1/2 8/1/2 9/1/2
f 10/1/3 11/1/3 12/1/3
f 11/1/3 10/1/3 13/1/3
f 14/1/4 12/1/4 11/1/4
f 12/1/4 14/1/4 15/1/4
f 15/1/4 14/1/4 16/1/4
f 15/1/4 16/1/4 17/1/4
f 17/1/4 16/1/4 18/1/4
f 18/1/4 16/1/4 19/1/4
f 20/1/4 17/1/4 18/1/4
f 17/1/4 20/1/4 21/1/4
f 7/1/5 22/1/5 23/1/5
f 22/1/5 7/1/5 6/1/5
f 24/1/6 10/1/6 2/1/6
f 10/1/6 24/1/6 13/1/6
f 25/1/7 26/1/7 27/1/7
f 26/1/7 25/1/7 28/1/7
f 22/1/8 19/1/8 16/1/8
f 19/1/8 22/1/8 25/1/8
f 17/1/9 29/1/9 15/1/9
f 29/1/9 17/1/9 30/1/9
f 8/1/10 5/1/10 31/1/10
f 32/1/11 7/1/11 24/1/11
f 7/1/11 32/1/11 31/1/11
f 7/1/11 31/1/11 5/1/11
f 2/1/12 29/1/12 3/1/12
f 29/1/12 2/1/12 10/1/12
f 18/1/13 25/1/13 27/1/13
f 25/1/13 18/1/13 19/1/13
f 21/1/14 30/1/14 17/1/14
f 30/1/14 21/1/14 33/1/14
f 34/1/15 6/1/15 9/1/15
f 6/1/15 34/1/15 28/1/15
f 35/1/16 36/1/17 37/1/18
f 36/1/17 35/1/16 38/1/17
f 22/1/19 14/1/19 23/1/19
f 14/1/19 22/1/19 16/1/19
f 39/1/20 36/1/20 40/1/20
f 36/1/20 39/1/20 37/1/20
f 10/1/21 15/1/21 29/1/21
f 15/1/21 10/1/21 12/1/21
f 41/1/22 37/1/18 33/1/23
f 37/1/18 41/1/22 35/1/16
f 21/1/24 41/1/22 33/1/23
f 41/1/22 21/1/24 20/1/24
f 39/1/25 29/1/25 30/1/25
f 29/1/25 39/1/25 3/1/25
f 36/1/26 38/1/26 40/1/26
f 42/1/26 40/1/26 38/1/26
f 9/1/26 40/1/26 42/1/26
f 9/1/26 1/1/26 40/1/26
f 8/1/26 1/1/26 9/1/26
f 31/1/26 1/1/26 8/1/26
f 31/1/26 4/1/26 1/1/26
f 4/1/26 31/1/26 32/1/26
f 9/1/26 42/1/26 34/1/26
f 26/1/27 38/1/27 35/1/27
f 38/1/27 26/1/27 42/1/27
f 28/1/28 42/1/28 26/1/28
f 42/1/28 28/1/28 34/1/28
f 37/1/29 30/1/29 33/1/29
f 30/1/29 37/1/29 39/1/29
f 22/1/30 28/1/30 25/1/30
f 28/1/30 22/1/30 6/1/30
f 20/1/31 27/1/31 41/1/31
f 27/1/31 20/1/31 18/1/31
f 7/1/32 13/1/32 24/1/32
f 13/1/32 7/1/32 23/1/32
f 27/1/33 35/1/33 41/1/33
f 35/1/33 27/1/33 26/1/33
f 32/1/34 2/1/34 4/1/34
f 2/1/34 32/1/34 24/1/34
f 40/1/35 3/1/35 39/1/35
f 3/1/35 40/1/35 1/1/35
f 23/1/36 11/1/36 13/1/36
f 11/1/36 23/1/36 14/1/36
