# campfire.obj — костёр: кольцо камней и обугленные поленья
# Generated by tools/valley-assets/build_assets.py; see
# assets/valley/CREDITS.txt. Colors are cells of
# assets/valley/textures/valley_atlas.png — no materials here.
# Source: Kenney Nature Kit (CC0) — https://kenney.nl/assets/nature-kit
v -0.372354 0.000000 -0.371521
v -0.257697 0.140080 -0.352967
v -0.375755 0.000000 -0.383111
v -0.285174 0.071042 -0.263176
v -0.241896 0.140080 -0.299119
v -0.286283 0.060836 -0.239836
v -0.226941 0.172512 0.366456
v -0.146000 0.172512 0.461177
v -0.133764 0.172512 0.402410
v -0.230506 0.172512 0.472992
v -0.263863 0.172512 0.397717
v -0.369975 0.172512 -0.159761
v -0.353211 0.000000 -0.069421
v -0.301826 0.000000 -0.069421
v -0.412410 0.055152 -0.098303
v -0.498326 0.055152 -0.098303
v -0.452310 0.172512 -0.159761
v -0.295457 0.110668 0.264053
v -0.198484 0.000000 0.280605
v -0.196139 0.000000 0.278259
v -0.240683 0.036848 0.285005
v -0.344440 0.046141 0.379228
v -0.353427 0.110668 0.322023
v -0.348220 0.000000 0.430340
v -0.358886 0.000000 0.441007
v 0.146994 0.110668 -0.415660
v 0.223018 0.023975 -0.421571
v 0.232269 0.015927 -0.425919
v 0.143425 0.014501 -0.269968
v 0.106003 0.110668 -0.344661
v 0.131525 0.000000 -0.228319
v 0.135591 0.000000 -0.235362
v 0.185876 0.000000 0.278511
v 0.305201 0.110668 0.208126
v 0.257192 0.000000 0.118739
v 0.262611 0.110668 0.303540
v 0.195111 0.042241 0.332992
v -0.306342 0.110668 0.244187
v -0.250631 0.000000 0.178808
v 0.341978 0.110668 0.214258
v 0.340220 0.110668 0.329960
v 0.353238 0.110668 0.311423
v -0.530968 0.000000 -0.106968
v -0.465931 0.172512 -0.206182
v -0.567705 0.000000 -0.232168
v -0.505471 0.045007 -0.103783
v -0.175777 0.140080 -0.434887
v -0.146388 0.140080 -0.299119
v -0.119203 0.140080 -0.394293
v 0.125085 0.159492 0.342464
v 0.171935 0.159492 0.454247
v 0.185115 0.159492 0.431419
v 0.040681 0.159492 0.470593
v 0.108116 0.159492 0.332667
v 0.011758 0.159492 0.425351
v -0.000602 0.159492 0.446759
v 0.185386 0.000000 0.277784
v 0.095083 0.000000 0.225648
v 0.374921 0.159492 -0.242862
v 0.461086 0.000000 -0.138040
v 0.461086 0.000000 -0.271776
v 0.374921 0.159492 -0.195193
v 0.447572 0.025014 -0.122542
v -0.042625 0.038452 -0.385571
v -0.029364 0.036094 -0.425576
v -0.025851 0.000000 -0.339559
v -0.067335 0.000000 -0.194324
v 0.313368 0.000000 0.128106
v 0.398762 0.024331 0.160236
v 0.446487 0.172512 -0.044085
v 0.429712 0.172512 0.088721
v 0.487931 0.172512 0.030502
v 0.387255 0.172512 -0.034345
v 0.387255 0.172512 0.065528
v 0.338004 0.000000 -0.434523
v 0.240025 0.000000 -0.434523
v 0.295137 0.159492 -0.348359
v 0.268778 0.159492 -0.348359
v 0.296915 0.000000 0.119118
v 0.296915 0.000000 -0.111042
v -0.041519 0.000000 -0.467532
v 0.033837 0.110668 -0.439858
v -0.019952 0.000000 -0.524708
v 0.020678 0.110668 -0.404973
v -0.186968 0.000000 -0.571898
v -0.404958 0.000000 -0.394916
v -0.395311 0.172512 -0.276803
v -0.346540 0.172512 -0.241808
v -0.266150 0.000000 -0.194324
v 0.350201 0.159492 -0.195193
v 0.338638 0.008287 -0.113505
v -0.521634 0.000000 0.245295
v -0.420235 0.110668 0.241683
v -0.285489 0.000000 0.571898
v -0.287594 0.024228 0.184308
v -0.274505 0.000000 0.170312
v -0.393533 0.053005 0.168762
v -0.413848 0.054026 0.162319
v -0.398495 0.110668 0.211392
v -0.063835 0.000000 0.509746
v 0.022638 0.000000 0.559671
v -0.081746 0.049539 0.468501
v -0.047765 0.020946 0.378751
v -0.029734 0.000077 0.345763
v -0.070518 0.000000 0.541843
v -0.440454 0.159492 -0.041933
v -0.274505 0.000000 0.034650
v -0.360670 0.159492 0.063563
v 0.419525 0.000000 0.186097
v 0.436497 0.000000 0.332544
v 0.600000 0.000000 0.046193
v 0.445763 0.000000 0.200430
v -0.471859 0.000000 0.175940
v -0.600000 0.000000 0.138922
v -0.513835 0.159492 0.054532
v -0.600000 0.000000 0.034650
v -0.513835 0.159492 0.074125
v -0.466813 0.159492 -0.041933
v -0.385390 0.159492 0.111232
v 0.225122 0.000000 0.534453
v 0.259210 0.000000 0.387180
v 0.286663 0.000000 0.427861
v -0.029744 0.000000 0.345716
v 0.168229 0.000000 -0.509602
v 0.135591 0.000000 -0.167504
v 0.318659 0.000000 -0.114617
v 0.371323 0.000000 0.425346
v 0.494570 0.000000 -0.143546
v -0.360670 0.159492 0.111232
v 0.221756 0.159492 -0.251893
v 0.221756 0.159492 -0.232300
v 0.131338 0.110668 -0.432031
v -0.350000 0.020000 -0.195349
v -0.195349 0.110086 -0.350000
v -0.195349 0.020000 -0.350000
v -0.350000 0.110086 -0.195349
v 0.195349 0.110086 0.350000
v 0.350000 0.020000 0.195349
v 0.350000 0.110086 0.195349
v 0.195349 0.020000 0.350000
v 0.335322 0.170144 0.095091
v 0.335322 0.020000 -0.095091
v 0.335322 0.170144 -0.095091
v 0.335322 0.020000 0.095091
v -0.335322 0.020000 0.095091
v -0.335322 0.170144 -0.095091
v -0.335322 0.020000 -0.095091
v -0.335322 0.170144 0.095091
v 0.095091 0.170144 0.335322
v -0.095091 0.020000 0.335322
v 0.095091 0.020000 0.335322
v -0.095091 0.170144 0.335322
v -0.095091 0.170144 -0.335322
v 0.095091 0.020000 -0.335322
v -0.095091 0.020000 -0.335322
v 0.095091 0.170144 -0.335322
v 0.350000 0.110086 -0.195349
v 0.195349 0.020000 -0.350000
v 0.195349 0.110086 -0.350000
v 0.350000 0.020000 -0.195349
v -0.195349 0.020000 0.350000
v -0.350000 0.110086 0.195349
v -0.350000 0.020000 0.195349
v -0.195349 0.110086 0.350000
v -0.095091 0.094850 -0.249742
v -0.095091 0.020000 -0.249742
v -0.249742 0.094850 -0.095091
v -0.249742 0.020000 -0.095091
v 0.249742 0.094850 0.095091
v 0.249742 0.020000 0.095091
v 0.095091 0.020000 -0.249742
v 0.095091 0.094850 -0.249742
v 0.095091 0.094850 0.249742
v 0.095091 0.020000 0.249742
v -0.095091 0.127118 -0.095091
v -0.095091 0.083098 -0.095091
v -0.095091 0.127118 0.095091
v 0.000000 0.110086 0.000000
v 0.095091 0.127118 0.095091
v -0.249742 0.094850 0.095091
v -0.095091 0.094850 0.249742
v -0.095091 0.083098 0.095091
v 0.249742 0.094850 -0.095091
v 0.095091 0.083098 -0.095091
v 0.095091 0.083098 0.095091
v -0.095091 0.020000 0.249742
v 0.095091 0.127118 -0.095091
v -0.249742 0.020000 0.095091
v 0.249742 0.020000 -0.095091
vt 0.093750 0.593750
vt 0.156250 0.406250
vt 0.093750 0.406250
vn -0.768334 0.599028 0.225453
vn 0.000000 1.000000 0.000000
vn 0.000000 0.463912 0.885881
vn 0.572385 0.587155 0.572385
vn 0.701026 0.587155 0.404737
vn -0.739180 0.587155 -0.329943
vn 0.709893 0.587155 -0.388974
vn -0.850042 0.463912 0.249429
vn 0.439908 0.475315 -0.761942
vn 0.879816 0.475315 0.000000
vn 0.769936 0.599028 0.219917
vn 0.133132 0.587155 -0.798452
vn 0.000000 0.475315 -0.879816
vn -0.885881 0.463912 0.000000
vn -0.757386 0.587155 -0.285684
vn 0.466818 0.599028 -0.650574
vn -0.626413 0.463912 -0.626413
vn 0.851815 0.463912 0.243304
vn 0.000000 0.475315 0.879816
vn -0.622396 0.587155 0.517564
vn 0.516462 0.463912 -0.719759
vn -0.809920 0.463912 0.358908
vn 0.271401 0.587155 -0.762621
vn -0.439908 0.475315 0.761943
vn -0.761943 0.475315 -0.439908
vn 0.867283 0.463912 0.180573
vn 0.701734 0.475315 -0.530702
vn 0.804093 0.587155 -0.093185
vn 0.626413 0.463912 0.626413
vn -0.657638 0.587155 -0.471975
vn -0.879816 0.475315 0.000000
vn -0.790860 0.475315 -0.385509
vn -0.244185 0.475315 0.845251
vn -0.572428 0.463912 -0.676100
vn -0.424698 0.463912 0.777443
vn 0.000000 -1.000000 0.000000
vn -0.260866 0.587155 0.766288
vn -0.609917 0.475315 -0.634096
vn 0.774366 0.463912 -0.430282
vn 0.318915 0.463912 -0.826486
vn 0.122664 0.463912 0.877348
vn -0.566200 0.599028 -0.566200
vn 0.662432 0.587155 0.465224
vn 0.585031 0.587155 -0.559453
vn 0.000000 0.599028 0.800728
vn -0.143753 0.463912 -0.874140
vn 0.108735 0.475315 0.873071
vn -0.790860 0.475315 -0.385508
vn -0.467233 0.587155 0.661016
vn 0.729290 0.475315 -0.492150
vn 0.761943 0.475315 0.439908
vn 0.064772 0.587155 -0.806879
vn -0.707107 0.000000 -0.707107
vn 0.707107 0.000000 0.707107
vn 1.000000 0.000000 0.000000
vn -1.000000 0.000000 0.000000
vn 0.000000 0.000000 1.000000
vn 0.000000 0.000000 -1.000000
vn 0.707107 0.000000 -0.707107
vn -0.707107 0.000000 0.707107
vn 0.088842 0.992076 -0.088842
vn 0.088842 0.992076 0.088842
vn -0.088842 0.992076 -0.088842
vn 0.000000 0.984337 -0.176299
vn 0.075553 0.994275 -0.075553
vn 0.075553 0.994275 0.075553
vn -0.075553 0.994275 0.075553
vn -0.088842 0.992076 0.088842
vn 0.176299 0.984337 0.000000
vn -0.176299 0.984337 0.000000
vn -0.075553 0.994275 -0.075553
vn 0.000000 0.984337 0.176299
f 1/1/1 2/1/1 3/1/1
f 2/1/1 1/1/1 4/1/1
f 2/1/1 4/1/1 5/1/1
f 5/1/1 4/1/1 6/1/1
f 7/1/2 8/1/2 9/1/2
f 8/1/2 7/1/2 10/1/2
f 10/1/2 7/1/2 11/1/2
f 12/1/3 13/1/3 14/1/3
f 13/1/3 12/1/3 15/1/3
f 15/1/3 12/1/3 16/1/3
f 16/1/3 12/1/3 17/1/3
f 18/1/4 19/1/4 20/1/4
f 19/1/4 18/1/4 21/1/4
f 21/1/4 18/1/4 22/1/4
f 22/1/4 18/1/4 23/1/4
f 22/1/4 23/1/4 24/1/4
f 24/1/4 23/1/4 25/1/4
f 26/1/5 27/1/5 28/1/5
f 27/1/5 26/1/5 29/1/5
f 29/1/5 26/1/5 30/1/5
f 29/1/5 30/1/5 31/1/5
f 29/1/5 31/1/5 32/1/5
f 33/1/6 34/1/6 35/1/6
f 34/1/6 33/1/6 36/1/6
f 36/1/6 33/1/6 37/1/6
f 38/1/7 20/1/7 39/1/7
f 20/1/7 38/1/7 18/1/7
f 40/1/2 41/1/2 42/1/2
f 41/1/2 40/1/2 34/1/2
f 41/1/2 34/1/2 36/1/2
f 43/1/8 44/1/8 45/1/8
f 44/1/8 43/1/8 17/1/8
f 17/1/8 43/1/8 46/1/8
f 17/1/8 46/1/8 16/1/8
f 47/1/2 48/1/2 49/1/2
f 48/1/2 47/1/2 5/1/2
f 5/1/2 47/1/2 2/1/2
f 50/1/2 51/1/2 52/1/2
f 51/1/2 50/1/2 53/1/2
f 53/1/2 50/1/2 54/1/2
f 53/1/2 54/1/2 55/1/2
f 53/1/2 55/1/2 56/1/2
f 54/1/9 57/1/9 58/1/9
f 57/1/9 54/1/9 50/1/9
f 59/1/10 60/1/10 61/1/10
f 60/1/10 59/1/10 62/1/10
f 60/1/10 62/1/10 63/1/10
f 49/1/11 64/1/11 65/1/11
f 64/1/11 49/1/11 48/1/11
f 64/1/11 48/1/11 66/1/11
f 66/1/11 48/1/11 67/1/11
f 34/1/12 68/1/12 35/1/12
f 68/1/12 34/1/12 69/1/12
f 69/1/12 34/1/12 40/1/12
f 70/1/2 71/1/2 72/1/2
f 71/1/2 70/1/2 73/1/2
f 71/1/2 73/1/2 74/1/2
f 28/1/13 75/1/13 76/1/13
f 75/1/13 28/1/13 77/1/13
f 77/1/13 28/1/13 27/1/13
f 77/1/13 27/1/13 78/1/13
f 79/1/14 73/1/14 80/1/14
f 73/1/14 79/1/14 74/1/14
f 81/1/15 82/1/15 83/1/15
f 82/1/15 81/1/15 65/1/15
f 82/1/15 65/1/15 84/1/15
f 84/1/15 65/1/15 64/1/15
f 47/1/16 81/1/16 85/1/16
f 81/1/16 47/1/16 65/1/16
f 65/1/16 47/1/16 49/1/16
f 44/1/17 86/1/17 45/1/17
f 86/1/17 44/1/17 87/1/17
f 88/1/18 6/1/18 4/1/18
f 6/1/18 88/1/18 12/1/18
f 6/1/18 12/1/18 89/1/18
f 89/1/18 12/1/18 14/1/18
f 63/1/19 90/1/19 91/1/19
f 90/1/19 63/1/19 62/1/19
f 92/1/20 23/1/20 93/1/20
f 23/1/20 92/1/20 25/1/20
f 87/1/21 1/1/21 86/1/21
f 1/1/21 87/1/21 4/1/21
f 4/1/21 87/1/21 88/1/21
f 24/1/22 11/1/22 22/1/22
f 11/1/22 24/1/22 10/1/22
f 10/1/22 24/1/22 94/1/22
f 95/1/23 39/1/23 96/1/23
f 39/1/23 95/1/23 38/1/23
f 38/1/23 95/1/23 97/1/23
f 38/1/23 97/1/23 98/1/23
f 38/1/23 98/1/23 99/1/23
f 53/1/24 100/1/24 101/1/24
f 100/1/24 53/1/24 102/1/24
f 102/1/24 53/1/24 56/1/24
f 102/1/25 55/1/25 103/1/25
f 55/1/25 102/1/25 56/1/25
f 9/1/26 103/1/26 104/1/26
f 103/1/26 9/1/26 102/1/26
f 102/1/26 9/1/26 8/1/26
f 102/1/26 8/1/26 105/1/26
f 102/1/26 105/1/26 100/1/26
f 106/1/27 13/1/27 15/1/27
f 13/1/27 106/1/27 107/1/27
f 107/1/27 106/1/27 108/1/27
f 40/1/28 109/1/28 69/1/28
f 109/1/28 40/1/28 110/1/28
f 110/1/28 40/1/28 42/1/28
f 71/1/29 111/1/29 72/1/29
f 111/1/29 71/1/29 112/1/29
f 113/1/30 99/1/30 98/1/30
f 99/1/30 113/1/30 92/1/30
f 99/1/30 92/1/30 93/1/30
f 114/1/31 115/1/31 116/1/31
f 115/1/31 114/1/31 117/1/31
f 116/1/32 46/1/32 43/1/32
f 46/1/32 116/1/32 118/1/32
f 118/1/32 116/1/32 115/1/32
f 118/1/13 16/1/13 46/1/13
f 16/1/13 118/1/13 15/1/13
f 15/1/13 118/1/13 106/1/13
f 119/1/33 98/1/33 97/1/33
f 117/1/33 98/1/33 119/1/33
f 114/1/33 98/1/33 117/1/33
f 98/1/33 114/1/33 113/1/33
f 22/1/34 7/1/34 21/1/34
f 7/1/34 22/1/34 11/1/34
f 71/1/35 109/1/35 112/1/35
f 109/1/35 71/1/35 69/1/35
f 74/1/35 69/1/35 71/1/35
f 79/1/35 69/1/35 74/1/35
f 69/1/35 79/1/35 68/1/35
f 120/1/36 121/1/36 122/1/36
f 121/1/36 120/1/36 35/1/36
f 35/1/36 120/1/36 33/1/36
f 33/1/36 120/1/36 101/1/36
f 33/1/36 101/1/36 57/1/36
f 57/1/36 101/1/36 58/1/36
f 58/1/36 101/1/36 123/1/36
f 123/1/36 101/1/36 100/1/36
f 123/1/36 100/1/36 19/1/36
f 19/1/36 100/1/36 105/1/36
f 19/1/36 105/1/36 94/1/36
f 19/1/36 94/1/36 39/1/36
f 39/1/36 94/1/36 96/1/36
f 96/1/36 94/1/36 107/1/36
f 107/1/36 94/1/36 13/1/36
f 13/1/36 94/1/36 24/1/36
f 13/1/36 24/1/36 25/1/36
f 1/1/36 13/1/36 25/1/36
f 25/1/36 113/1/36 1/1/36
f 113/1/36 25/1/36 92/1/36
f 1/1/36 113/1/36 86/1/36
f 43/1/36 86/1/36 113/1/36
f 114/1/36 43/1/36 113/1/36
f 43/1/36 114/1/36 116/1/36
f 86/1/36 43/1/36 45/1/36
f 1/1/36 14/1/36 13/1/36
f 1/1/36 89/1/36 14/1/36
f 3/1/36 89/1/36 1/1/36
f 85/1/36 89/1/36 3/1/36
f 85/1/36 67/1/36 89/1/36
f 81/1/36 67/1/36 85/1/36
f 81/1/36 66/1/36 67/1/36
f 83/1/36 66/1/36 81/1/36
f 83/1/36 31/1/36 66/1/36
f 83/1/36 32/1/36 31/1/36
f 124/1/36 32/1/36 83/1/36
f 124/1/36 125/1/36 32/1/36
f 76/1/36 125/1/36 124/1/36
f 76/1/36 126/1/36 125/1/36
f 126/1/36 76/1/36 75/1/36
f 75/1/36 68/1/36 126/1/36
f 75/1/36 127/1/36 68/1/36
f 75/1/36 109/1/36 127/1/36
f 75/1/36 112/1/36 109/1/36
f 61/1/36 112/1/36 75/1/36
f 60/1/36 112/1/36 61/1/36
f 128/1/36 112/1/36 60/1/36
f 112/1/36 128/1/36 111/1/36
f 68/1/36 127/1/36 121/1/36
f 68/1/36 121/1/36 35/1/36
f 68/1/36 80/1/36 126/1/36
f 80/1/36 68/1/36 79/1/36
f 127/1/36 109/1/36 110/1/36
f 39/1/36 20/1/36 19/1/36
f 41/1/37 121/1/37 127/1/37
f 121/1/37 41/1/37 37/1/37
f 37/1/37 41/1/37 36/1/37
f 129/1/19 97/1/19 95/1/19
f 97/1/19 129/1/19 119/1/19
f 104/1/38 58/1/38 123/1/38
f 58/1/38 104/1/38 54/1/38
f 54/1/38 104/1/38 103/1/38
f 54/1/38 103/1/38 55/1/38
f 106/1/2 129/1/2 108/1/2
f 129/1/2 106/1/2 119/1/2
f 119/1/2 106/1/2 117/1/2
f 117/1/2 106/1/2 118/1/2
f 117/1/2 118/1/2 115/1/2
f 70/1/39 111/1/39 128/1/39
f 111/1/39 70/1/39 72/1/39
f 21/1/40 123/1/40 19/1/40
f 123/1/40 21/1/40 104/1/40
f 104/1/40 21/1/40 9/1/40
f 9/1/40 21/1/40 7/1/40
f 8/1/41 94/1/41 105/1/41
f 94/1/41 8/1/41 10/1/41
f 85/1/42 2/1/42 47/1/42
f 2/1/42 85/1/42 3/1/42
f 38/1/2 23/1/2 18/1/2
f 23/1/2 38/1/2 99/1/2
f 23/1/2 99/1/2 93/1/2
f 41/1/43 110/1/43 42/1/43
f 110/1/43 41/1/43 127/1/43
f 87/1/2 12/1/2 88/1/2
f 12/1/2 87/1/2 17/1/2
f 17/1/2 87/1/2 44/1/2
f 32/1/31 130/1/31 29/1/31
f 130/1/31 32/1/31 131/1/31
f 131/1/31 32/1/31 125/1/31
f 124/1/44 28/1/44 76/1/44
f 28/1/44 124/1/44 26/1/44
f 26/1/44 124/1/44 132/1/44
f 108/1/10 96/1/10 107/1/10
f 96/1/10 108/1/10 129/1/10
f 96/1/10 129/1/10 95/1/10
f 48/1/45 89/1/45 67/1/45
f 89/1/45 48/1/45 6/1/45
f 6/1/45 48/1/45 5/1/45
f 73/1/46 126/1/46 80/1/46
f 126/1/46 73/1/46 91/1/46
f 91/1/46 73/1/46 63/1/46
f 70/1/46 63/1/46 73/1/46
f 128/1/46 63/1/46 70/1/46
f 63/1/46 128/1/46 60/1/46
f 77/1/2 62/1/2 59/1/2
f 62/1/2 77/1/2 90/1/2
f 90/1/2 77/1/2 131/1/2
f 131/1/2 77/1/2 78/1/2
f 131/1/2 78/1/2 130/1/2
f 91/1/33 125/1/33 126/1/33
f 125/1/33 91/1/33 131/1/33
f 131/1/33 91/1/33 90/1/33
f 51/1/47 101/1/47 120/1/47
f 101/1/47 51/1/47 53/1/47
f 29/1/48 78/1/48 27/1/48
f 78/1/48 29/1/48 130/1/48
f 30/1/49 66/1/49 31/1/49
f 66/1/49 30/1/49 64/1/49
f 64/1/49 30/1/49 84/1/49
f 50/1/50 33/1/50 57/1/50
f 33/1/50 50/1/50 37/1/50
f 37/1/50 50/1/50 121/1/50
f 121/1/50 50/1/50 52/1/50
f 121/1/50 52/1/50 122/1/50
f 52/1/51 120/1/51 122/1/51
f 120/1/51 52/1/51 51/1/51
f 82/1/52 124/1/52 83/1/52
f 124/1/52 82/1/52 132/1/52
f 77/1/27 61/1/27 75/1/27
f 61/1/27 77/1/27 59/1/27
f 132/1/2 30/1/2 26/1/2
f 30/1/2 132/1/2 82/1/2
f 30/1/2 82/1/2 84/1/2
f 133/2/53 134/2/53 135/2/53
f 134/2/53 133/2/53 136/2/53
f 137/2/54 138/2/54 139/2/54
f 138/2/54 137/2/54 140/2/54
f 141/2/55 142/2/55 143/2/55
f 142/2/55 141/2/55 144/2/55
f 145/2/56 146/2/56 147/2/56
f 146/2/56 145/2/56 148/2/56
f 149/2/57 150/2/57 151/2/57
f 150/2/57 149/2/57 152/2/57
f 153/2/58 154/2/58 155/2/58
f 154/2/58 153/2/58 156/2/58
f 157/2/59 158/2/59 159/2/59
f 158/2/59 157/2/59 160/2/59
f 161/3/60 162/3/60 163/3/60
f 162/3/60 161/3/60 164/3/60
f 165/3/59 135/3/59 134/3/59
f 135/3/59 165/3/59 166/3/59
f 167/3/60 133/3/60 168/3/60
f 133/3/60 167/3/60 136/3/60
f 169/3/59 138/3/59 170/3/59
f 138/3/59 169/3/59 139/3/59
f 171/3/53 159/3/53 158/3/53
f 159/3/53 171/3/53 172/3/53
f 140/3/60 173/3/60 174/3/60
f 173/3/60 140/3/60 137/3/60
f 146/3/58 168/3/58 147/3/58
f 168/3/58 146/3/58 167/3/58
f 167/3/58 146/3/58 175/3/58
f 175/3/58 176/3/58 167/3/58
f 177/3/61 178/3/2 175/3/62
f 177/3/61 179/3/63 178/3/2
f 177/3/64 149/3/64 179/3/64
f 149/3/64 177/3/64 152/3/64
f 180/3/65 181/3/65 182/3/65
f 181/3/65 180/3/65 164/3/65
f 164/3/65 180/3/65 162/3/65
f 134/3/66 176/3/66 165/3/66
f 176/3/66 134/3/66 167/3/66
f 167/3/66 134/3/66 136/3/66
f 159/3/67 183/3/67 157/3/67
f 183/3/67 159/3/67 184/3/67
f 184/3/67 159/3/67 172/3/67
f 141/3/57 170/3/57 144/3/57
f 170/3/57 141/3/57 169/3/57
f 169/3/57 141/3/57 179/3/57
f 179/3/57 185/3/57 169/3/57
f 150/3/56 181/3/56 186/3/56
f 152/3/56 181/3/56 150/3/56
f 177/3/56 181/3/56 152/3/56
f 181/3/56 177/3/56 182/3/56
f 171/3/55 154/3/55 172/3/55
f 156/3/55 172/3/55 154/3/55
f 172/3/55 156/3/55 187/3/55
f 172/3/55 187/3/55 184/3/55
f 178/3/2 179/3/63 187/3/68
f 177/3/57 180/3/57 182/3/57
f 148/3/57 180/3/57 177/3/57
f 145/3/57 180/3/57 148/3/57
f 180/3/57 145/3/57 188/3/57
f 162/3/53 188/3/53 163/3/53
f 188/3/53 162/3/53 180/3/53
f 166/3/56 153/3/56 155/3/56
f 153/3/56 166/3/56 165/3/56
f 153/3/56 165/3/56 175/3/56
f 175/3/56 165/3/56 176/3/56
f 175/3/62 178/3/2 187/3/68
f 146/3/69 177/3/69 175/3/69
f 177/3/69 146/3/69 148/3/69
f 187/3/70 141/3/70 143/3/70
f 141/3/70 187/3/70 179/3/70
f 169/3/71 137/3/71 139/3/71
f 137/3/71 169/3/71 185/3/71
f 137/3/71 185/3/71 173/3/71
f 187/3/58 183/3/58 184/3/58
f 143/3/58 183/3/58 187/3/58
f 142/3/58 183/3/58 143/3/58
f 183/3/58 142/3/58 189/3/58
f 149/3/55 185/3/55 179/3/55
f 185/3/55 149/3/55 173/3/55
f 173/3/55 149/3/55 174/3/55
f 174/3/55 149/3/55 151/3/55
f 153/3/72 187/3/72 156/3/72
f 187/3/72 153/3/72 175/3/72
f 157/3/54 189/3/54 160/3/54
f 189/3/54 157/3/54 183/3/54
f 140/3/36 170/3/36 138/3/36
f 170/3/36 140/3/36 189/3/36
f 158/3/36 189/3/36 140/3/36
f 189/3/36 158/3/36 160/3/36
f 158/3/36 140/3/36 174/3/36
f 158/3/36 174/3/36 171/3/36
f 174/3/36 150/3/36 171/3/36
f 150/3/36 174/3/36 151/3/36
f 171/3/36 150/3/36 154/3/36
f 154/3/36 150/3/36 155/3/36
f 155/3/36 150/3/36 186/3/36
f 155/3/36 186/3/36 166/3/36
f 142/3/36 170/3/36 189/3/36
f 170/3/36 142/3/36 144/3/36
f 161/3/36 166/3/36 186/3/36
f 166/3/36 161/3/36 135/3/36
f 135/3/36 161/3/36 188/3/36
f 188/3/36 161/3/36 163/3/36
f 168/3/36 135/3/36 188/3/36
f 145/3/36 168/3/36 188/3/36
f 168/3/36 145/3/36 147/3/36
f 135/3/36 168/3/36 133/3/36
f 175/3/2 179/3/2 187/3/2
f 179/3/2 175/3/2 177/3/2
f 164/3/54 186/3/54 181/3/54
f 186/3/54 164/3/54 161/3/54
