# shelter.obj — шалаш: остов и полотнище
# Generated by tools/valley-assets/build_assets.py; see
# assets/valley/CREDITS.txt. Colors are cells of
# assets/valley/textures/valley_atlas.png — no materials here.
# Source: Kenney Nature Kit (CC0) — https://kenney.nl/assets/nature-kit
v 0.603216 0.949600 0.094876
v 0.356991 1.315609 -0.313967
v 0.560391 1.013258 -0.373640
v 0.399816 1.251951 0.154548
v 0.674957 0.842958 0.247739
v 0.525969 1.064426 0.568159
v 0.542982 1.039136 0.226637
v 0.657943 0.868248 0.589260
v -0.975887 0.395630 -1.187602
v 0.975887 0.000000 -1.187602
v -0.975887 0.000000 -1.187602
v 0.975887 0.395630 -1.187602
v -0.230682 0.693243 -1.187602
v -0.230682 0.978382 -1.187602
v 0.000000 1.846271 -1.187602
v 0.230682 0.978382 -1.187602
v 0.230682 0.693243 -1.187602
v 0.000000 1.846271 0.975174
v 0.050641 1.770995 0.873893
v 0.000000 1.846271 0.873893
v 0.050641 1.770995 0.975174
v 0.000000 1.846271 1.080675
v 0.050641 1.770995 -0.985039
v 0.000000 1.846271 -0.985039
v 0.749326 0.732409 0.174436
v 0.847694 0.586186 -0.069241
v 0.050641 1.770995 -1.086321
v 0.000000 1.846271 -1.086321
v 0.975887 0.395630 1.080675
v 0.852318 0.579313 0.167992
v 0.744702 0.739283 -0.062798
v 0.487943 0.000000 1.187602
v 0.487943 0.000000 1.080675
v 0.731915 0.000000 1.080675
v 0.000000 1.583003 1.080675
v 0.975887 0.000000 1.080675
v -0.975887 0.395630 1.080675
v -0.731915 0.000000 1.080675
v -0.975887 0.000000 1.080675
v -0.487943 0.000000 1.080675
v -0.632237 0.906461 -0.481099
v -0.803152 0.652397 -0.815992
v -0.656998 0.869654 -0.847679
v -0.778391 0.689204 -0.449412
v -0.487943 0.000000 1.187602
v -0.557465 1.017607 -0.361031
v -0.675364 0.842353 -0.103797
v -0.660010 0.865175 -0.379369
v -0.572819 0.994785 -0.085460
v -0.050641 1.770995 0.975174
v -0.050641 1.770995 0.873893
v -0.050641 1.770995 -1.086321
v -0.050641 1.770995 -0.985039
v 0.050641 0.000000 -0.985039
v -0.050641 0.000000 -1.086321
v 0.050641 0.000000 -1.086321
v -0.050641 0.000000 -0.985039
v -0.050641 2.000000 -1.086321
v 0.050641 2.000000 -1.086321
v 0.050641 2.000000 -0.985039
v -0.050641 2.000000 -0.985039
v -0.050641 2.000000 0.873893
v 0.050641 2.000000 0.873893
v 0.050641 0.000000 0.873893
v -0.050641 0.000000 0.873893
v 0.050641 2.000000 0.975174
v -0.050641 2.000000 0.975174
v 0.050641 0.000000 0.975174
v -0.050641 0.000000 0.975174
vt 0.156250 0.468750
vt 0.093750 0.468750
vt 0.093750 0.843750
vn -0.829722 -0.558177 0.000000
vn -0.829723 -0.558176 0.000000
vn 0.000000 0.000000 -1.000000
vn 0.000000 0.000000 1.000000
vn 0.829722 0.558177 0.000000
vn 0.000000 -1.000000 0.000000
vn 0.829723 -0.558176 0.000001
vn 0.394675 0.182481 0.900518
vn -0.394675 0.182481 0.900518
vn 0.829722 -0.558177 0.000001
vn -0.829722 0.558177 0.000000
vn 0.829722 -0.558177 0.000000
vn 0.955632 -0.294563 0.000000
vn -0.955632 -0.294563 0.000000
vn -1.000000 0.000000 0.000000
vn 1.000000 0.000000 0.000000
vn 0.829723 0.558176 0.000000
vn -0.829723 0.558176 -0.000001
vn -0.829722 0.558177 -0.000001
vn 0.000000 1.000000 0.000000
f 1/1/1 2/1/1 3/1/1
f 2/1/1 1/1/1 4/1/1
f 5/1/2 6/1/2 7/1/2
f 6/1/2 5/1/2 8/1/2
f 9/1/3 10/1/3 11/1/3
f 10/1/3 9/1/3 12/1/3
f 12/1/3 9/1/3 13/1/3
f 13/1/3 9/1/3 14/1/3
f 14/1/3 9/1/3 15/1/3
f 14/1/3 15/1/3 16/1/3
f 12/1/3 16/1/3 15/1/3
f 16/1/3 12/1/3 17/1/3
f 17/1/3 12/1/3 13/1/3
f 11/1/4 10/1/4 9/1/4
f 12/1/4 9/1/4 10/1/4
f 13/1/4 9/1/4 12/1/4
f 14/1/4 9/1/4 13/1/4
f 15/1/4 9/1/4 14/1/4
f 16/1/4 15/1/4 14/1/4
f 15/1/4 16/1/4 12/1/4
f 17/1/4 12/1/4 16/1/4
f 13/1/4 12/1/4 17/1/4
f 18/1/5 19/1/5 20/1/5
f 19/1/5 18/1/5 21/1/5
f 22/1/5 21/1/5 18/1/5
f 19/1/5 8/1/5 20/1/5
f 6/1/5 20/1/5 8/1/5
f 7/1/5 20/1/5 6/1/5
f 4/1/5 20/1/5 7/1/5
f 2/1/5 20/1/5 4/1/5
f 23/1/5 20/1/5 2/1/5
f 20/1/5 23/1/5 24/1/5
f 23/1/5 2/1/5 3/1/5
f 4/1/5 7/1/5 25/1/5
f 26/1/5 23/1/5 3/1/5
f 26/1/5 27/1/5 23/1/5
f 12/1/5 27/1/5 26/1/5
f 12/1/5 28/1/5 27/1/5
f 28/1/5 12/1/5 15/1/5
f 12/1/5 26/1/5 29/1/5
f 29/1/5 26/1/5 30/1/5
f 29/1/5 30/1/5 25/1/5
f 29/1/5 25/1/5 5/1/5
f 5/1/5 25/1/5 7/1/5
f 29/1/5 5/1/5 8/1/5
f 29/1/5 8/1/5 19/1/5
f 29/1/5 19/1/5 21/1/5
f 29/1/5 21/1/5 22/1/5
f 3/1/5 31/1/5 26/1/5
f 31/1/5 3/1/5 1/1/5
f 31/1/5 1/1/5 25/1/5
f 25/1/5 1/1/5 4/1/5
f 20/1/1 19/1/1 18/1/1
f 21/1/1 18/1/1 19/1/1
f 18/1/1 21/1/1 22/1/1
f 20/1/1 8/1/1 19/1/1
f 8/1/1 20/1/1 6/1/1
f 6/1/1 20/1/1 7/1/1
f 7/1/1 20/1/1 4/1/1
f 4/1/1 20/1/1 2/1/1
f 2/1/1 20/1/1 23/1/1
f 24/1/1 23/1/1 20/1/1
f 3/1/1 2/1/1 23/1/1
f 25/1/1 7/1/1 4/1/1
f 3/1/1 23/1/1 26/1/1
f 23/1/1 27/1/1 26/1/1
f 26/1/1 27/1/1 12/1/1
f 27/1/1 28/1/1 12/1/1
f 15/1/1 12/1/1 28/1/1
f 29/1/1 26/1/1 12/1/1
f 30/1/1 26/1/1 29/1/1
f 25/1/1 30/1/1 29/1/1
f 5/1/1 25/1/1 29/1/1
f 7/1/1 25/1/1 5/1/1
f 8/1/1 5/1/1 29/1/1
f 19/1/1 8/1/1 29/1/1
f 21/1/1 19/1/1 29/1/1
f 22/1/1 21/1/1 29/1/1
f 26/1/1 31/1/1 3/1/1
f 1/1/1 3/1/1 31/1/1
f 25/1/1 1/1/1 31/1/1
f 4/1/1 1/1/1 25/1/1
f 32/1/6 33/1/6 34/1/6
f 35/1/4 33/1/4 34/1/4
f 36/1/4 35/1/4 34/1/4
f 35/1/4 36/1/4 29/1/4
f 35/1/4 29/1/4 22/1/4
f 37/1/4 35/1/4 22/1/4
f 37/1/4 38/1/4 35/1/4
f 38/1/4 37/1/4 39/1/4
f 35/1/4 38/1/4 40/1/4
f 34/1/3 33/1/3 35/1/3
f 34/1/3 35/1/3 36/1/3
f 29/1/3 36/1/3 35/1/3
f 22/1/3 29/1/3 35/1/3
f 22/1/3 35/1/3 37/1/3
f 35/1/3 38/1/3 37/1/3
f 39/1/3 37/1/3 38/1/3
f 40/1/3 38/1/3 35/1/3
f 41/1/7 42/1/7 43/1/7
f 42/1/7 41/1/7 44/1/7
f 38/1/6 40/1/6 45/1/6
f 35/1/8 32/1/8 34/1/8
f 35/1/9 38/1/9 45/1/9
f 46/1/10 47/1/10 48/1/10
f 47/1/10 46/1/10 49/1/10
f 50/1/11 20/1/11 51/1/11
f 20/1/11 50/1/11 18/1/11
f 51/1/11 37/1/11 50/1/11
f 50/1/11 37/1/11 18/1/11
f 49/1/11 37/1/11 51/1/11
f 20/1/11 49/1/11 51/1/11
f 47/1/11 37/1/11 49/1/11
f 48/1/11 37/1/11 47/1/11
f 44/1/11 37/1/11 48/1/11
f 42/1/11 37/1/11 44/1/11
f 42/1/11 9/1/11 37/1/11
f 9/1/11 42/1/11 15/1/11
f 15/1/11 42/1/11 52/1/11
f 52/1/11 42/1/11 53/1/11
f 53/1/11 42/1/11 43/1/11
f 53/1/11 43/1/11 24/1/11
f 43/1/11 20/1/11 24/1/11
f 18/1/11 37/1/11 22/1/11
f 20/1/11 43/1/11 46/1/11
f 46/1/11 44/1/11 48/1/11
f 20/1/11 46/1/11 49/1/11
f 46/1/11 43/1/11 41/1/11
f 46/1/11 41/1/11 44/1/11
f 28/1/11 15/1/11 52/1/11
f 51/1/12 20/1/12 50/1/12
f 18/1/12 50/1/12 20/1/12
f 50/1/12 37/1/12 51/1/12
f 18/1/12 37/1/12 50/1/12
f 51/1/12 37/1/12 49/1/12
f 51/1/12 49/1/12 20/1/12
f 49/1/12 37/1/12 47/1/12
f 47/1/12 37/1/12 48/1/12
f 48/1/12 37/1/12 44/1/12
f 44/1/12 37/1/12 42/1/12
f 37/1/12 9/1/12 42/1/12
f 15/1/12 42/1/12 9/1/12
f 52/1/12 42/1/12 15/1/12
f 53/1/12 42/1/12 52/1/12
f 43/1/12 42/1/12 53/1/12
f 24/1/12 43/1/12 53/1/12
f 24/1/12 20/1/12 43/1/12
f 22/1/12 37/1/12 18/1/12
f 46/1/12 43/1/12 20/1/12
f 48/1/12 44/1/12 46/1/12
f 41/1/12 43/1/12 46/1/12
f 44/1/12 41/1/12 46/1/12
f 49/1/12 46/1/12 20/1/12
f 52/1/12 15/1/12 28/1/12
f 45/1/13 40/1/13 35/1/13
f 32/1/14 35/1/14 33/1/14
f 30/1/2 31/1/2 26/1/2
f 31/1/2 30/1/2 25/1/2
f 39/1/15 9/1/15 11/1/15
f 9/1/15 39/1/15 37/1/15
f 11/1/16 9/1/16 39/1/16
f 37/1/16 39/1/16 9/1/16
f 29/1/16 10/1/16 12/1/16
f 10/1/16 29/1/16 36/1/16
f 12/1/15 10/1/15 29/1/15
f 36/1/15 29/1/15 10/1/15
f 3/2/5 2/2/5 1/2/5
f 4/2/5 1/2/5 2/2/5
f 7/2/17 6/2/17 5/2/17
f 8/2/17 5/2/17 6/2/17
f 43/2/18 42/2/18 41/2/18
f 44/2/18 41/2/18 42/2/18
f 48/2/19 47/2/19 46/2/19
f 49/2/19 46/2/19 47/2/19
f 26/2/17 31/2/17 30/2/17
f 25/2/17 30/2/17 31/2/17
f 54/3/6 55/3/6 56/3/6
f 55/3/6 54/3/6 57/3/6
f 58/3/3 28/3/3 52/3/3
f 59/3/3 28/3/3 58/3/3
f 28/3/3 59/3/3 27/3/3
f 27/3/3 52/3/3 28/3/3
f 56/3/3 52/3/3 27/3/3
f 52/3/3 56/3/3 55/3/3
f 58/3/20 60/3/20 59/3/20
f 60/3/20 58/3/20 61/3/20
f 62/3/3 20/3/3 51/3/3
f 63/3/3 20/3/3 62/3/3
f 20/3/3 63/3/3 19/3/3
f 19/3/3 51/3/3 20/3/3
f 64/3/3 51/3/3 19/3/3
f 51/3/3 64/3/3 65/3/3
f 57/3/15 52/3/15 55/3/15
f 52/3/15 57/3/15 53/3/15
f 53/3/15 58/3/15 52/3/15
f 58/3/15 53/3/15 61/3/15
f 62/3/20 66/3/20 63/3/20
f 66/3/20 62/3/20 67/3/20
f 60/3/16 27/3/16 59/3/16
f 27/3/16 60/3/16 23/3/16
f 23/3/16 56/3/16 27/3/16
f 56/3/16 23/3/16 54/3/16
f 21/3/16 64/3/16 19/3/16
f 64/3/16 21/3/16 68/3/16
f 19/3/16 66/3/16 21/3/16
f 66/3/16 19/3/16 63/3/16
f 66/3/4 18/3/4 21/3/4
f 67/3/4 18/3/4 66/3/4
f 18/3/4 67/3/4 50/3/4
f 50/3/4 21/3/4 18/3/4
f 69/3/4 21/3/4 50/3/4
f 21/3/4 69/3/4 68/3/4
f 68/3/6 65/3/6 64/3/6
f 65/3/6 68/3/6 69/3/6
f 69/3/15 51/3/15 65/3/15
f 51/3/15 69/3/15 50/3/15
f 50/3/15 62/3/15 51/3/15
f 62/3/15 50/3/15 67/3/15
f 60/3/4 24/3/4 23/3/4
f 61/3/4 24/3/4 60/3/4
f 24/3/4 61/3/4 53/3/4
f 53/3/4 23/3/4 24/3/4
f 57/3/4 23/3/4 53/3/4
f 23/3/4 57/3/4 54/3/4
