# bush.obj — куст
# Generated by tools/valley-assets/build_assets.py; see
# assets/valley/CREDITS.txt. Colors are cells of
# assets/valley/textures/valley_atlas.png — no materials here.
# Source: Kenney Nature Kit (CC0) — https://kenney.nl/assets/nature-kit
v 0.205439 0.000000 0.118610
v 0.000000 0.204046 0.355831
v 0.000000 0.000000 0.237221
v 0.308159 0.204046 0.177916
v -0.478674 0.724842 -0.276362
v 0.000000 0.342653 -0.355831
v -0.308159 0.342653 -0.177916
v 0.000000 0.724842 -0.552725
v 0.000000 0.431635 -0.552725
v 0.308159 0.445486 -0.533747
v 0.478674 0.431635 -0.276362
v -0.308159 0.771350 -0.533747
v -0.205439 0.000000 -0.118610
v 0.000000 0.000000 -0.237221
v 0.000000 0.431635 0.552725
v 0.478674 0.431635 0.276362
v 0.308159 0.445486 0.533747
v 0.308159 0.204046 -0.177916
v 0.000000 0.204046 -0.355831
v 0.308159 0.342653 0.177916
v 0.205439 0.000000 -0.118610
v 0.308159 0.342653 -0.177916
v 0.478674 0.724842 0.276362
v 0.478674 0.724842 -0.276362
v 0.000000 0.724842 0.552725
v -0.308159 0.342653 0.177916
v 0.000000 0.342653 0.355831
v -0.478674 0.724842 0.276362
v -0.308159 0.204046 0.177916
v -0.308159 0.204046 -0.177916
v -0.205439 0.000000 0.118610
v -0.478674 0.431635 0.276362
v -0.478674 0.431635 -0.276362
v 0.616318 0.780900 0.000000
v -0.308159 0.800000 0.533747
v -0.616318 0.407287 0.000000
vt 0.093750 0.718750
vn 0.446602 -0.449652 0.773537
vn -0.446602 0.449652 -0.773537
vn -0.456616 -0.407441 -0.790882
vn 0.456616 0.407441 0.790882
vn 0.050063 -0.994975 -0.086712
vn -0.050063 0.994975 0.086712
vn -0.160054 -0.947381 -0.277222
vn 0.160054 0.947381 0.277222
vn -0.478942 -0.287153 -0.829553
vn 0.478942 0.287153 0.829553
vn 0.050063 -0.994975 0.086712
vn -0.050063 0.994975 -0.086712
vn 0.400150 -0.599601 -0.693079
vn -0.400150 0.599601 0.693079
vn 0.957885 -0.287153 0.000000
vn -0.957885 0.287153 0.000000
vn 0.913232 -0.407441 0.000000
vn -0.913232 0.407441 0.000000
vn -0.456616 -0.407441 0.790882
vn 0.456616 0.407441 -0.790882
vn 0.446602 -0.449652 -0.773537
vn -0.446602 0.449652 0.773537
vn -0.893204 -0.449652 0.000000
vn 0.893204 0.449652 0.000000
vn -0.800299 -0.599601 0.000000
vn 0.800299 0.599601 0.000000
vn 0.377187 -0.926137 0.000000
vn -0.377187 0.926137 0.000000
vn -0.239621 -0.877683 0.415036
vn 0.239621 0.877683 -0.415036
vn -0.478942 -0.287153 0.829553
vn 0.478942 0.287153 -0.829553
vn 0.400150 -0.599601 0.693079
vn -0.400150 0.599601 -0.693079
vn 0.174190 -0.984712 0.000000
vn -0.174190 0.984712 0.000000
f 1/1/1 2/1/1 3/1/1
f 2/1/1 1/1/1 4/1/1
f 3/1/2 2/1/2 1/1/2
f 4/1/2 1/1/2 2/1/2
f 5/1/3 6/1/3 7/1/3
f 6/1/3 5/1/3 8/1/3
f 7/1/4 6/1/4 5/1/4
f 8/1/4 5/1/4 6/1/4
f 9/1/5 10/1/5 11/1/5
f 11/1/6 10/1/6 9/1/6
f 5/1/7 12/1/7 8/1/7
f 8/1/8 12/1/8 5/1/8
f 13/1/9 6/1/9 14/1/9
f 6/1/9 13/1/9 7/1/9
f 14/1/10 6/1/10 13/1/10
f 7/1/10 13/1/10 6/1/10
f 15/1/11 16/1/11 17/1/11
f 17/1/12 16/1/12 15/1/12
f 9/1/13 18/1/13 19/1/13
f 18/1/13 9/1/13 11/1/13
f 19/1/14 18/1/14 9/1/14
f 11/1/14 9/1/14 18/1/14
f 20/1/15 21/1/15 22/1/15
f 21/1/15 20/1/15 1/1/15
f 22/1/16 21/1/16 20/1/16
f 1/1/16 20/1/16 21/1/16
f 23/1/17 22/1/17 24/1/17
f 22/1/17 23/1/17 20/1/17
f 24/1/18 22/1/18 23/1/18
f 20/1/18 23/1/18 22/1/18
f 25/1/19 26/1/19 27/1/19
f 26/1/19 25/1/19 28/1/19
f 27/1/20 26/1/20 25/1/20
f 28/1/20 25/1/20 26/1/20
f 19/1/21 21/1/21 14/1/21
f 21/1/21 19/1/21 18/1/21
f 14/1/22 21/1/22 19/1/22
f 18/1/22 19/1/22 21/1/22
f 13/1/23 29/1/23 30/1/23
f 29/1/23 13/1/23 31/1/23
f 30/1/24 29/1/24 13/1/24
f 31/1/24 13/1/24 29/1/24
f 30/1/25 32/1/25 33/1/25
f 32/1/25 30/1/25 29/1/25
f 33/1/26 32/1/26 30/1/26
f 29/1/26 30/1/26 32/1/26
f 24/1/27 34/1/27 23/1/27
f 23/1/28 34/1/28 24/1/28
f 28/1/29 25/1/29 35/1/29
f 35/1/30 25/1/30 28/1/30
f 3/1/31 26/1/31 31/1/31
f 26/1/31 3/1/31 27/1/31
f 31/1/32 26/1/32 3/1/32
f 27/1/32 3/1/32 26/1/32
f 16/1/33 2/1/33 4/1/33
f 2/1/33 16/1/33 15/1/33
f 4/1/34 2/1/34 16/1/34
f 15/1/34 16/1/34 2/1/34
f 36/1/35 33/1/35 32/1/35
f 32/1/36 33/1/36 36/1/36
