# hands_first_person.obj — руки-предплечья от первого лица
# Generated by tools/valley-assets/build_assets.py; see
# assets/valley/CREDITS.txt. Colors are cells of
# assets/valley/textures/valley_atlas.png — no materials here.
# Source: Kenney Blocky Characters (CC0) — https://kenney.nl/assets/blocky-characters
v 0.360377 0.582406 -0.128122
v 0.295947 0.000000 0.174997
v 0.391742 0.414861 -0.275684
v 0.264581 0.167545 0.322559
v 0.075419 0.000000 0.128122
v 0.171214 0.414861 -0.322559
v 0.044053 0.167545 0.275684
v 0.139849 0.582406 -0.174997
v -0.139849 0.582406 -0.174997
v -0.075419 0.000000 0.128122
v -0.171214 0.414861 -0.322559
v -0.044053 0.167545 0.275684
v -0.295947 0.000000 0.174997
v -0.391742 0.414861 -0.275684
v -0.360377 0.582406 -0.128122
v -0.264581 0.167545 0.322559
vt 0.093750 0.281250
vn 0.573618 0.815378 0.078240
vn 0.978148 0.000000 0.207912
vn 0.734260 -0.042732 -0.677522
vn 0.139120 -0.743145 -0.654508
vn -0.395207 -0.042732 -0.917598
vn -0.139120 0.743145 0.654508
vn -0.555849 0.815378 -0.161836
vn -0.978148 0.000000 -0.207912
vn -0.154508 -0.669131 0.726905
vn 0.555849 0.815378 -0.161836
vn 0.978148 0.000000 -0.207912
vn 0.395207 -0.042732 -0.917598
vn -0.139120 -0.743145 -0.654508
vn -0.734260 -0.042732 -0.677522
vn -0.573618 0.815378 0.078240
vn 0.154508 -0.669131 0.726905
vn -0.978148 0.000000 0.207912
vn 0.139120 0.743145 0.654508
f 1/1/1 2/1/2 3/1/3
f 2/1/2 1/1/1 4/1/2
f 5/1/4 3/1/3 2/1/4
f 3/1/3 5/1/4 6/1/5
f 1/1/1 7/1/6 4/1/6
f 7/1/6 1/1/1 8/1/7
f 7/1/8 6/1/5 5/1/8
f 6/1/5 7/1/8 8/1/7
f 3/1/3 8/1/7 1/1/1
f 8/1/7 3/1/3 6/1/5
f 7/1/9 2/1/9 4/1/9
f 2/1/9 7/1/9 5/1/9
f 9/1/10 10/1/11 11/1/12
f 10/1/11 9/1/10 12/1/11
f 13/1/13 11/1/12 10/1/13
f 11/1/12 13/1/13 14/1/14
f 11/1/12 15/1/15 9/1/10
f 15/1/15 11/1/12 14/1/14
f 16/1/16 10/1/16 12/1/16
f 10/1/16 16/1/16 13/1/16
f 16/1/17 14/1/14 13/1/17
f 14/1/14 16/1/17 15/1/15
f 9/1/10 16/1/18 12/1/18
f 16/1/18 9/1/10 15/1/15
