# logs_bundle.obj — брёвна в связке
# Generated by tools/valley-assets/build_assets.py; see
# assets/valley/CREDITS.txt. Colors are cells of
# assets/valley/textures/valley_atlas.png — no materials here.
# Source: Kenney Nature Kit (CC0) — https://kenney.nl/assets/nature-kit
v 0.554858 0.875857 0.615395
v 0.624389 0.941342 0.491033
v 0.624389 0.941342 0.593449
v 0.554858 0.875857 0.469087
v 0.481704 1.002564 0.615395
v 0.573181 1.030037 0.593449
v 0.481704 1.002564 0.469087
v 0.573181 1.030037 0.491033
v -0.023973 0.805038 1.038028
v 0.130957 1.073384 -1.038028
v -0.023973 0.805038 -1.038028
v 0.130957 1.073384 1.038028
v 0.183607 0.627885 -1.038028
v 0.130957 0.536692 -1.038028
v 0.081328 0.805038 -1.038028
v 0.183607 0.982190 -1.038028
v 0.388166 0.982190 -1.038028
v 0.388166 0.627885 -1.038028
v 0.440816 0.536692 -1.038028
v 0.595746 0.805038 -1.038028
v 0.490445 0.805038 -1.038028
v 0.440816 1.073384 -1.038028
v 0.440816 0.536692 1.038028
v 0.387402 0.629208 1.038028
v 0.130957 0.536692 1.038028
v 0.595746 0.805038 1.038028
v 0.488917 0.805038 1.038028
v 0.440816 1.073384 1.038028
v 0.387402 0.980867 1.038028
v 0.184371 0.980867 1.038028
v 0.184371 0.629208 1.038028
v 0.082856 0.805038 1.038028
v -0.720279 0.982242 -0.527005
v -0.598816 0.882762 -0.631947
v -0.598816 0.882762 -0.501585
v -0.720279 0.982242 -0.606526
v 0.130957 0.536692 1.100000
v 0.285887 0.268346 1.038028
v 0.285887 0.268346 1.100000
v -0.178902 0.000000 1.100000
v 0.130957 0.000000 -1.100000
v 0.130957 0.000000 1.100000
v -0.178902 0.000000 -1.100000
v -0.126252 0.091193 -1.100000
v -0.333832 0.268346 -1.100000
v -0.228531 0.268346 -1.100000
v -0.178902 0.536692 -1.100000
v -0.126252 0.445499 -1.100000
v 0.078307 0.445499 -1.100000
v 0.078307 0.091193 -1.100000
v 0.285887 0.268346 -1.100000
v 0.180586 0.268346 -1.100000
v 0.130957 0.536692 -1.100000
v -0.488761 0.536692 -1.100000
v -0.436111 0.627885 -1.100000
v -0.643691 0.805038 -1.100000
v -0.538390 0.805038 -1.100000
v -0.488761 1.073384 -1.100000
v -0.436111 0.982191 -1.100000
v -0.231552 0.982191 -1.100000
v -0.231552 0.627885 -1.100000
v -0.023973 0.805038 -1.100000
v -0.129273 0.805038 -1.100000
v -0.178902 1.073384 -1.100000
v 0.493467 0.091193 -1.100000
v 0.440816 0.000000 -1.100000
v 0.750675 0.000000 -1.100000
v 0.698025 0.091193 -1.100000
v 0.905605 0.268346 -1.100000
v 0.800304 0.268346 -1.100000
v 0.698025 0.445498 -1.100000
v 0.750675 0.536692 -1.100000
v 0.440816 0.536692 -1.100000
v 0.493467 0.445498 -1.100000
v 0.391187 0.268346 -1.100000
v -0.333832 0.268346 -1.038028
v -0.333832 0.268346 1.038028
v -0.333832 0.268346 1.100000
v 0.285887 0.268346 -1.038028
v -0.178902 0.536692 -1.038028
v 0.077543 0.092516 1.100000
v 0.179058 0.268346 1.100000
v 0.077543 0.444176 1.100000
v -0.125488 0.444176 1.100000
v -0.125488 0.092516 1.100000
v -0.227003 0.268346 1.100000
v -0.178902 0.536692 1.100000
v -0.232316 0.629208 1.100000
v -0.488761 0.536692 1.100000
v -0.023973 0.805038 1.100000
v -0.130801 0.805038 1.100000
v -0.178902 1.073384 1.100000
v -0.232316 0.980868 1.100000
v -0.435347 0.980868 1.100000
v -0.435347 0.629208 1.100000
v -0.643691 0.805038 1.100000
v -0.536863 0.805038 1.100000
v -0.488761 1.073384 1.100000
v -0.533635 0.995660 -0.501585
v -0.533635 0.995660 -0.631947
v -0.488761 0.536692 -1.038028
v -0.488761 0.536692 1.038028
v -0.680519 1.051109 -0.527005
v -0.680519 1.051109 -0.606526
v -0.178902 0.536692 1.038028
v -0.982193 0.404651 0.593449
v -0.912662 0.339166 0.469087
v -0.912662 0.339166 0.615395
v -0.982193 0.404651 0.491033
v -0.930985 0.493345 0.491033
v -0.930985 0.493345 0.593449
v 0.440816 0.000000 1.100000
v 0.750675 0.000000 1.100000
v -0.839508 0.465873 0.615395
v 0.750675 0.536692 1.100000
v 0.440816 0.536692 1.100000
v 0.795549 0.458967 -0.631947
v 0.795549 0.458967 -0.501585
v 0.860731 0.346070 -0.501585
v 0.860731 0.346070 -0.631947
v 0.905605 0.268346 1.100000
v -0.839508 0.465873 0.469087
v -0.798620 0.536692 -1.038028
v -0.798620 0.536692 1.038028
v -0.488761 0.000000 1.038028
v -0.542175 0.092516 1.038028
v -0.798620 0.000000 1.038028
v -0.440660 0.268346 1.038028
v -0.542175 0.444176 1.038028
v -0.745206 0.444176 1.038028
v -0.745206 0.092516 1.038028
v -0.953550 0.268346 1.038028
v -0.846722 0.268346 1.038028
v -0.798620 0.000000 -1.038028
v -0.745970 0.091193 -1.038028
v -0.488761 0.000000 -1.038028
v -0.953550 0.268346 -1.038028
v -0.848249 0.268346 -1.038028
v -0.745970 0.445499 -1.038028
v -0.541412 0.445499 -1.038028
v -0.541412 0.091193 -1.038028
v -0.439132 0.268346 -1.038028
v 0.982193 0.445550 -0.606526
v 0.942433 0.514417 -0.606526
v 0.982193 0.445550 -0.527005
v 0.942433 0.514417 -0.527005
v 0.697261 0.092516 1.100000
v 0.798777 0.268346 1.100000
v 0.697261 0.444176 1.100000
v 0.494230 0.444176 1.100000
v 0.494230 0.092516 1.100000
v 0.392715 0.268346 1.100000
vt 0.093750 0.968750
vt 0.156250 0.906250
vt 0.031250 0.843750
vn 0.685611 -0.727968 0.000000
vn 0.198987 0.114885 0.973245
vn 0.198990 0.114887 -0.973244
vn 0.866025 0.500001 0.000000
vn -0.866025 0.500000 0.000000
vn 0.000000 0.000000 -1.000000
vn 0.000000 0.000000 1.000000
vn 0.866026 0.500000 0.000000
vn 0.000000 1.000000 0.000000
vn -0.287633 0.957741 0.000000
vn -0.633625 -0.773640 0.000000
vn 0.866026 0.500000 0.000001
vn 0.000000 -1.000000 0.000000
vn -0.866025 -0.500000 0.000000
vn 0.866025 -0.500000 0.000000
vn 0.000000 1.000000 0.000002
vn -0.866026 0.500000 0.000000
vn -0.140221 0.080956 0.986805
vn 0.353182 0.935555 0.000000
vn -0.140221 0.080956 -0.986805
vn -0.866025 0.500001 0.000000
vn -0.866025 0.500000 -0.000001
vn -0.685611 -0.727968 0.000000
vn -0.198987 0.114885 0.973245
vn 0.000000 -1.000000 0.000001
vn 0.866025 -0.500000 -0.000001
vn -0.198990 0.114887 -0.973244
vn 0.287633 0.957741 0.000000
vn -0.866025 0.500000 0.000001
vn 0.000000 1.000000 -0.000002
vn 0.000000 -1.000000 -0.000001
vn 0.866025 -0.500000 0.000001
vn 0.866026 0.500000 -0.000001
vn 0.140221 0.080956 -0.986805
vn 0.140221 0.080956 0.986805
vn -0.353182 0.935555 0.000000
vn 0.633625 -0.773640 0.000000
f 1/1/1 2/1/1 3/1/1
f 2/1/1 1/1/1 4/1/1
f 3/1/2 5/1/2 1/1/2
f 5/1/2 3/1/2 6/1/2
f 7/1/3 2/1/3 4/1/3
f 2/1/3 7/1/3 8/1/3
f 6/1/4 2/1/4 8/1/4
f 2/1/4 6/1/4 3/1/4
f 9/1/5 10/1/5 11/1/5
f 10/1/5 9/1/5 12/1/5
f 11/1/6 13/1/6 14/1/6
f 13/1/6 11/1/6 15/1/6
f 15/1/6 11/1/6 16/1/6
f 16/1/6 11/1/6 10/1/6
f 16/1/6 10/1/6 17/1/6
f 18/1/6 14/1/6 13/1/6
f 18/1/6 19/1/6 14/1/6
f 19/1/6 18/1/6 20/1/6
f 20/1/6 18/1/6 21/1/6
f 20/1/6 21/1/6 17/1/6
f 20/1/6 17/1/6 22/1/6
f 22/1/6 17/1/6 10/1/6
f 23/1/7 24/1/7 25/1/7
f 24/1/7 23/1/7 26/1/7
f 24/1/7 26/1/7 27/1/7
f 27/1/7 26/1/7 28/1/7
f 27/1/7 28/1/7 29/1/7
f 29/1/7 28/1/7 30/1/7
f 31/1/7 25/1/7 24/1/7
f 25/1/7 31/1/7 9/1/7
f 9/1/7 31/1/7 32/1/7
f 9/1/7 32/1/7 30/1/7
f 9/1/7 30/1/7 12/1/7
f 12/1/7 30/1/7 28/1/7
f 22/1/8 7/1/8 20/1/8
f 7/1/8 22/1/8 28/1/8
f 7/1/8 28/1/8 5/1/8
f 5/1/8 28/1/8 1/1/8
f 4/1/8 20/1/8 7/1/8
f 20/1/8 4/1/8 26/1/8
f 26/1/8 4/1/8 1/1/8
f 26/1/8 1/1/8 28/1/8
f 10/1/9 28/1/9 22/1/9
f 28/1/9 10/1/9 12/1/9
f 7/1/10 6/1/10 8/1/10
f 6/1/10 7/1/10 5/1/10
f 33/1/11 34/1/11 35/1/11
f 34/1/11 33/1/11 36/1/11
f 37/1/12 38/1/12 25/1/12
f 38/1/12 37/1/12 39/1/12
f 40/1/13 41/1/13 42/1/13
f 41/1/13 40/1/13 43/1/13
f 43/1/6 44/1/6 41/1/6
f 44/1/6 43/1/6 45/1/6
f 44/1/6 45/1/6 46/1/6
f 46/1/6 45/1/6 47/1/6
f 46/1/6 47/1/6 48/1/6
f 48/1/6 47/1/6 49/1/6
f 50/1/6 41/1/6 44/1/6
f 41/1/6 50/1/6 51/1/6
f 51/1/6 50/1/6 52/1/6
f 51/1/6 52/1/6 53/1/6
f 53/1/6 52/1/6 49/1/6
f 53/1/6 49/1/6 47/1/6
f 54/1/6 55/1/6 47/1/6
f 55/1/6 54/1/6 56/1/6
f 55/1/6 56/1/6 57/1/6
f 57/1/6 56/1/6 58/1/6
f 57/1/6 58/1/6 59/1/6
f 59/1/6 58/1/6 60/1/6
f 61/1/6 47/1/6 55/1/6
f 47/1/6 61/1/6 62/1/6
f 62/1/6 61/1/6 63/1/6
f 62/1/6 63/1/6 60/1/6
f 62/1/6 60/1/6 64/1/6
f 64/1/6 60/1/6 58/1/6
f 65/1/6 66/1/6 51/1/6
f 66/1/6 65/1/6 67/1/6
f 68/1/6 67/1/6 65/1/6
f 67/1/6 68/1/6 69/1/6
f 69/1/6 68/1/6 70/1/6
f 69/1/6 70/1/6 71/1/6
f 69/1/6 71/1/6 72/1/6
f 72/1/6 71/1/6 73/1/6
f 74/1/6 73/1/6 71/1/6
f 75/1/6 73/1/6 74/1/6
f 65/1/6 51/1/6 75/1/6
f 75/1/6 51/1/6 73/1/6
f 40/1/14 45/1/14 43/1/14
f 45/1/14 40/1/14 76/1/14
f 76/1/14 40/1/14 77/1/14
f 77/1/14 40/1/14 78/1/14
f 79/1/15 41/1/15 51/1/15
f 41/1/15 79/1/15 42/1/15
f 42/1/15 79/1/15 38/1/15
f 42/1/15 38/1/15 39/1/15
f 53/1/16 80/1/16 14/1/16
f 80/1/16 53/1/16 47/1/16
f 42/1/7 81/1/7 40/1/7
f 81/1/7 42/1/7 39/1/7
f 81/1/7 39/1/7 82/1/7
f 82/1/7 39/1/7 37/1/7
f 82/1/7 37/1/7 83/1/7
f 83/1/7 37/1/7 84/1/7
f 85/1/7 40/1/7 81/1/7
f 40/1/7 85/1/7 78/1/7
f 78/1/7 85/1/7 86/1/7
f 78/1/7 86/1/7 84/1/7
f 78/1/7 84/1/7 87/1/7
f 87/1/7 84/1/7 37/1/7
f 87/1/7 88/1/7 89/1/7
f 88/1/7 87/1/7 90/1/7
f 88/1/7 90/1/7 91/1/7
f 91/1/7 90/1/7 92/1/7
f 91/1/7 92/1/7 93/1/7
f 93/1/7 92/1/7 94/1/7
f 95/1/7 89/1/7 88/1/7
f 89/1/7 95/1/7 96/1/7
f 96/1/7 95/1/7 97/1/7
f 96/1/7 97/1/7 94/1/7
f 96/1/7 94/1/7 98/1/7
f 98/1/7 94/1/7 92/1/7
f 56/1/17 34/1/17 58/1/17
f 34/1/17 56/1/17 96/1/17
f 34/1/17 96/1/17 35/1/17
f 35/1/17 96/1/17 99/1/17
f 100/1/17 58/1/17 34/1/17
f 58/1/17 100/1/17 98/1/17
f 98/1/17 100/1/17 99/1/17
f 98/1/17 99/1/17 96/1/17
f 101/1/14 56/1/14 54/1/14
f 56/1/14 101/1/14 96/1/14
f 96/1/14 101/1/14 102/1/14
f 96/1/14 102/1/14 89/1/14
f 92/1/8 62/1/8 64/1/8
f 62/1/8 92/1/8 11/1/8
f 11/1/8 92/1/8 9/1/8
f 9/1/8 92/1/8 90/1/8
f 99/1/18 33/1/18 35/1/18
f 33/1/18 99/1/18 103/1/18
f 104/1/19 99/1/19 100/1/19
f 99/1/19 104/1/19 103/1/19
f 36/1/20 100/1/20 34/1/20
f 100/1/20 36/1/20 104/1/20
f 58/1/9 92/1/9 64/1/9
f 92/1/9 58/1/9 98/1/9
f 33/1/21 104/1/21 36/1/21
f 104/1/21 33/1/21 103/1/21
f 78/1/22 105/1/22 77/1/22
f 105/1/22 78/1/22 87/1/22
f 106/1/23 107/1/23 108/1/23
f 107/1/23 106/1/23 109/1/23
f 79/1/22 73/1/22 51/1/22
f 73/1/22 79/1/22 19/1/22
f 106/1/21 110/1/21 109/1/21
f 110/1/21 106/1/21 111/1/21
f 112/1/13 67/1/13 113/1/13
f 67/1/13 112/1/13 66/1/13
f 114/1/24 106/1/24 108/1/24
f 106/1/24 114/1/24 111/1/24
f 73/1/9 115/1/9 72/1/9
f 115/1/9 73/1/9 116/1/9
f 116/1/9 73/1/9 19/1/9
f 116/1/9 19/1/9 23/1/9
f 72/1/8 117/1/8 69/1/8
f 117/1/8 72/1/8 115/1/8
f 117/1/8 115/1/8 118/1/8
f 118/1/8 115/1/8 119/1/8
f 120/1/8 69/1/8 117/1/8
f 69/1/8 120/1/8 121/1/8
f 121/1/8 120/1/8 119/1/8
f 121/1/8 119/1/8 115/1/8
f 87/1/25 102/1/25 105/1/25
f 102/1/25 87/1/25 89/1/25
f 11/1/26 47/1/26 62/1/26
f 47/1/26 11/1/26 80/1/26
f 109/1/27 122/1/27 107/1/27
f 122/1/27 109/1/27 110/1/27
f 123/1/9 102/1/9 101/1/9
f 102/1/9 123/1/9 124/1/9
f 125/1/7 126/1/7 127/1/7
f 126/1/7 125/1/7 77/1/7
f 126/1/7 77/1/7 128/1/7
f 128/1/7 77/1/7 129/1/7
f 129/1/7 77/1/7 102/1/7
f 129/1/7 102/1/7 130/1/7
f 130/1/7 102/1/7 124/1/7
f 131/1/7 127/1/7 126/1/7
f 127/1/7 131/1/7 132/1/7
f 132/1/7 130/1/7 124/1/7
f 132/1/7 131/1/7 133/1/7
f 132/1/7 133/1/7 130/1/7
f 134/1/6 135/1/6 136/1/6
f 135/1/6 134/1/6 137/1/6
f 135/1/6 137/1/6 138/1/6
f 138/1/6 137/1/6 123/1/6
f 138/1/6 123/1/6 139/1/6
f 139/1/6 123/1/6 140/1/6
f 141/1/6 136/1/6 135/1/6
f 136/1/6 141/1/6 76/1/6
f 76/1/6 141/1/6 142/1/6
f 76/1/6 142/1/6 140/1/6
f 76/1/6 140/1/6 101/1/6
f 101/1/6 140/1/6 123/1/6
f 127/1/14 137/1/14 134/1/14
f 137/1/14 127/1/14 132/1/14
f 127/1/13 136/1/13 125/1/13
f 136/1/13 127/1/13 134/1/13
f 137/1/17 107/1/17 123/1/17
f 107/1/17 137/1/17 132/1/17
f 107/1/17 132/1/17 108/1/17
f 108/1/17 132/1/17 114/1/17
f 122/1/17 123/1/17 107/1/17
f 123/1/17 122/1/17 124/1/17
f 124/1/17 122/1/17 114/1/17
f 124/1/17 114/1/17 132/1/17
f 76/1/15 125/1/15 136/1/15
f 125/1/15 76/1/15 77/1/15
f 110/1/28 114/1/28 122/1/28
f 114/1/28 110/1/28 111/1/28
f 76/1/29 47/1/29 45/1/29
f 47/1/29 76/1/29 80/1/29
f 105/1/30 37/1/30 25/1/30
f 37/1/30 105/1/30 87/1/30
f 101/1/31 47/1/31 80/1/31
f 47/1/31 101/1/31 54/1/31
f 90/1/32 105/1/32 9/1/32
f 105/1/32 90/1/32 87/1/32
f 53/1/33 79/1/33 51/1/33
f 79/1/33 53/1/33 14/1/33
f 112/1/14 51/1/14 66/1/14
f 51/1/14 112/1/14 79/1/14
f 79/1/14 112/1/14 38/1/14
f 38/1/14 112/1/14 39/1/14
f 117/1/34 143/1/34 120/1/34
f 143/1/34 117/1/34 144/1/34
f 145/1/35 118/1/35 119/1/35
f 118/1/35 145/1/35 146/1/35
f 113/1/7 147/1/7 112/1/7
f 147/1/7 113/1/7 121/1/7
f 147/1/7 121/1/7 148/1/7
f 148/1/7 121/1/7 115/1/7
f 148/1/7 115/1/7 149/1/7
f 149/1/7 115/1/7 150/1/7
f 151/1/7 112/1/7 147/1/7
f 112/1/7 151/1/7 39/1/7
f 39/1/7 151/1/7 152/1/7
f 39/1/7 152/1/7 150/1/7
f 39/1/7 150/1/7 116/1/7
f 116/1/7 150/1/7 115/1/7
f 39/1/29 23/1/29 38/1/29
f 23/1/29 39/1/29 116/1/29
f 146/1/4 143/1/4 144/1/4
f 143/1/4 146/1/4 145/1/4
f 117/1/36 146/1/36 144/1/36
f 146/1/36 117/1/36 118/1/36
f 119/1/37 143/1/37 145/1/37
f 143/1/37 119/1/37 120/1/37
f 26/1/15 19/1/15 20/1/15
f 19/1/15 26/1/15 23/1/15
f 121/1/15 67/1/15 69/1/15
f 67/1/15 121/1/15 113/1/15
f 15/2/6 18/2/6 13/2/6
f 18/2/6 15/2/6 21/2/6
f 21/2/6 15/2/6 16/2/6
f 21/2/6 16/2/6 17/2/6
f 27/2/7 31/2/7 24/2/7
f 31/2/7 27/2/7 32/2/7
f 32/2/7 27/2/7 29/2/7
f 32/2/7 29/2/7 30/2/7
f 57/2/6 61/2/6 55/2/6
f 61/2/6 57/2/6 63/2/6
f 63/2/6 57/2/6 59/2/6
f 63/2/6 59/2/6 60/2/6
f 82/2/7 85/2/7 81/2/7
f 85/2/7 82/2/7 86/2/7
f 86/2/7 82/2/7 83/2/7
f 86/2/7 83/2/7 84/2/7
f 46/2/6 50/2/6 44/2/6
f 50/2/6 46/2/6 52/2/6
f 52/2/6 46/2/6 48/2/6
f 52/2/6 48/2/6 49/2/6
f 138/2/6 141/2/6 135/2/6
f 141/2/6 138/2/6 142/2/6
f 142/2/6 138/2/6 139/2/6
f 142/2/6 139/2/6 140/2/6
f 91/2/7 95/2/7 88/2/7
f 95/2/7 91/2/7 97/2/7
f 97/2/7 91/2/7 93/2/7
f 97/2/7 93/2/7 94/2/7
f 128/2/7 131/2/7 126/2/7
f 131/2/7 128/2/7 133/2/7
f 133/2/7 128/2/7 129/2/7
f 133/2/7 129/2/7 130/2/7
f 148/2/7 151/2/7 147/2/7
f 151/2/7 148/2/7 152/2/7
f 152/2/7 148/2/7 149/2/7
f 152/2/7 149/2/7 150/2/7
f 75/2/6 68/2/6 65/2/6
f 68/2/6 75/2/6 70/2/6
f 70/2/6 75/2/6 74/2/6
f 70/2/6 74/2/6 71/2/6
f 102/3/7 77/3/7 105/3/7
f 9/3/7 105/3/7 25/3/7
f 25/3/7 38/3/7 23/3/7
f 11/3/6 14/3/6 80/3/6
f 101/3/6 80/3/6 76/3/6
f 14/3/6 19/3/6 79/3/6
f 23/3/15 79/3/15 19/3/15
f 79/3/15 23/3/15 38/3/15
