# pine_small.obj — ель, малая
# Generated by tools/valley-assets/build_assets.py; see
# assets/valley/CREDITS.txt. Colors are cells of
# assets/valley/textures/valley_atlas.png — no materials here.
# Source: Kenney Nature Kit (CC0) — https://kenney.nl/assets/nature-kit
v -0.568652 0.454921 -0.341191
v -0.341191 0.682382 -0.568652
v -0.341191 0.454921 -0.568652
v -0.568652 0.682382 -0.341191
v 0.341191 0.682382 0.568652
v 0.568652 0.454921 0.341191
v 0.568652 0.682382 0.341191
v 0.341191 0.454921 0.568652
v -0.568652 0.454921 0.341191
v -0.568652 0.682382 0.341191
v -0.341191 0.454921 0.568652
v -0.341191 0.682382 0.568652
v 0.568652 0.682382 -0.341191
v 0.341191 0.454921 -0.568652
v 0.341191 0.682382 -0.568652
v 0.568652 0.454921 -0.341191
v -0.186154 1.137304 0.310256
v -0.310256 1.137304 0.186154
v 0.186154 1.137304 0.310256
v 0.310256 1.137304 0.186154
v -0.186154 1.137304 -0.310256
v 0.186154 1.137304 -0.310256
v -0.310256 1.137304 -0.186154
v 0.310256 1.137304 -0.186154
v 0.245658 1.301075 0.409429
v -0.245658 1.137304 0.409429
v 0.245658 1.137304 0.409429
v -0.245658 1.301075 0.409429
v -0.409429 1.137304 -0.245658
v -0.245658 1.301075 -0.409429
v -0.245658 1.137304 -0.409429
v -0.409429 1.301075 -0.245658
v 0.180149 1.628619 0.108089
v 0.409429 1.301075 0.245658
v 0.108089 1.628619 0.180149
v -0.409429 1.301075 0.245658
v -0.409429 1.137304 0.245658
v -0.180149 1.628619 0.108089
v -0.108089 1.628619 0.180149
v 0.409429 1.301075 -0.245658
v 0.245658 1.137304 -0.409429
v 0.245658 1.301075 -0.409429
v 0.409429 1.137304 -0.245658
v 0.409429 1.137304 0.245658
v 0.126218 0.454921 0.126218
v -0.126218 0.454921 0.126218
v -0.126218 0.454921 -0.126218
v 0.126218 0.454921 -0.126218
v -0.180149 1.628619 -0.108089
v -0.108089 1.628619 -0.180149
v 0.180149 1.628619 -0.108089
v 0.108089 1.628619 -0.180149
v -0.286600 1.628619 -0.171960
v -0.171960 1.743259 -0.286600
v -0.171960 1.628619 -0.286600
v -0.286600 1.743259 -0.171960
v 0.286600 1.743259 -0.171960
v 0.171960 1.628619 -0.286600
v 0.171960 1.743259 -0.286600
v 0.286600 1.628619 -0.171960
v 0.171960 1.743259 0.286600
v -0.171960 1.628619 0.286600
v 0.171960 1.628619 0.286600
v -0.171960 1.743259 0.286600
v -0.286600 1.628619 0.171960
v -0.286600 1.743259 0.171960
v 0.286600 1.628619 0.171960
v 0.053720 2.200000 0.089534
v 0.286600 1.743259 0.171960
v 0.089534 2.200000 0.053720
v 0.053720 2.200000 -0.089534
v 0.089534 2.200000 -0.053720
v -0.053720 2.200000 -0.089534
v -0.053720 2.200000 0.089534
v -0.089534 2.200000 -0.053720
v -0.089534 2.200000 0.053720
v -0.212298 0.000000 0.212298
v 0.212298 0.000000 -0.212298
v 0.212298 0.000000 0.212298
v -0.212298 0.000000 -0.212298
v 0.143888 0.227461 -0.143888
v -0.143888 0.227461 -0.143888
v 0.143888 0.227461 0.143888
v -0.143888 0.227461 0.143888
vt 0.093750 0.781250
vt 0.031250 0.968750
vn -0.707107 0.000000 -0.707107
vn 0.707107 0.000000 0.707107
vn -1.000000 0.000000 0.000000
vn 0.000000 0.000000 1.000000
vn 0.707107 0.000000 -0.707107
vn -0.707107 0.000000 0.707107
vn 1.000000 0.000000 0.000000
vn 0.000000 0.000000 -1.000000
vn -0.594868 0.540616 0.594868
vn 0.594868 0.540616 0.594868
vn 0.000000 0.493890 -0.869524
vn -0.869524 0.493890 0.000000
vn 0.869524 0.493890 0.000000
vn 0.000000 0.493890 0.869524
vn -0.594868 0.540616 -0.594868
vn 0.554325 0.620844 0.554325
vn -0.554325 0.620844 0.554325
vn 0.000000 -1.000000 0.000000
vn 0.594868 0.540616 -0.594868
vn -0.819232 0.573462 0.000000
vn -0.554325 0.620844 -0.554325
vn 0.554325 0.620844 -0.554325
vn 0.000000 0.573462 0.819232
vn 0.000000 0.573462 -0.819232
vn 0.819232 0.573462 0.000000
vn 0.635440 0.438670 0.635440
vn 0.635440 0.438670 -0.635440
vn 0.000000 1.000000 0.000000
vn 0.918181 0.396160 0.000000
vn 0.000000 0.396160 -0.918181
vn -0.918181 0.396160 0.000000
vn 0.000000 0.396160 0.918181
vn -0.635440 0.438670 0.635440
vn -0.635440 0.438670 -0.635440
vn 0.000000 0.077452 -0.996996
vn 0.000000 0.288011 0.957627
vn 0.957627 0.288011 0.000000
vn 0.000000 0.288011 -0.957627
vn 0.000000 0.077452 0.996996
vn -0.957627 0.288011 0.000000
vn 0.996996 0.077452 0.000000
vn -0.996996 0.077452 0.000000
f 1/1/1 2/1/1 3/1/1
f 2/1/1 1/1/1 4/1/1
f 5/1/2 6/1/2 7/1/2
f 6/1/2 5/1/2 8/1/2
f 9/1/3 4/1/3 1/1/3
f 4/1/3 9/1/3 10/1/3
f 5/1/4 11/1/4 8/1/4
f 11/1/4 5/1/4 12/1/4
f 13/1/5 14/1/5 15/1/5
f 14/1/5 13/1/5 16/1/5
f 11/1/6 10/1/6 9/1/6
f 10/1/6 11/1/6 12/1/6
f 7/1/7 16/1/7 13/1/7
f 16/1/7 7/1/7 6/1/7
f 2/1/8 14/1/8 3/1/8
f 14/1/8 2/1/8 15/1/8
f 17/1/9 10/1/9 12/1/9
f 10/1/9 17/1/9 18/1/9
f 19/1/10 7/1/10 20/1/10
f 7/1/10 19/1/10 5/1/10
f 21/1/11 15/1/11 2/1/11
f 15/1/11 21/1/11 22/1/11
f 10/1/12 23/1/12 4/1/12
f 23/1/12 10/1/12 18/1/12
f 24/1/13 7/1/13 13/1/13
f 7/1/13 24/1/13 20/1/13
f 19/1/14 12/1/14 5/1/14
f 12/1/14 19/1/14 17/1/14
f 23/1/15 2/1/15 4/1/15
f 2/1/15 23/1/15 21/1/15
f 25/1/4 26/1/4 27/1/4
f 26/1/4 25/1/4 28/1/4
f 29/1/1 30/1/1 31/1/1
f 30/1/1 29/1/1 32/1/1
f 33/1/16 25/1/16 34/1/16
f 25/1/16 33/1/16 35/1/16
f 26/1/6 36/1/6 37/1/6
f 36/1/6 26/1/6 28/1/6
f 38/1/17 28/1/17 39/1/17
f 28/1/17 38/1/17 36/1/17
f 40/1/5 41/1/5 42/1/5
f 41/1/5 40/1/5 43/1/5
f 44/1/18 20/1/18 43/1/18
f 20/1/18 44/1/18 27/1/18
f 20/1/18 27/1/18 19/1/18
f 19/1/18 27/1/18 26/1/18
f 19/1/18 26/1/18 17/1/18
f 17/1/18 26/1/18 18/1/18
f 18/1/18 26/1/18 37/1/18
f 18/1/18 37/1/18 23/1/18
f 24/1/18 43/1/18 20/1/18
f 43/1/18 24/1/18 41/1/18
f 41/1/18 24/1/18 22/1/18
f 41/1/18 22/1/18 31/1/18
f 31/1/18 22/1/18 21/1/18
f 31/1/18 21/1/18 23/1/18
f 31/1/18 23/1/18 29/1/18
f 29/1/18 23/1/18 37/1/18
f 22/1/19 13/1/19 15/1/19
f 13/1/19 22/1/19 24/1/19
f 8/1/18 16/1/18 6/1/18
f 16/1/18 8/1/18 14/1/18
f 14/1/18 8/1/18 45/1/18
f 45/1/18 8/1/18 11/1/18
f 45/1/18 11/1/18 46/1/18
f 46/1/18 11/1/18 47/1/18
f 48/1/18 14/1/18 45/1/18
f 14/1/18 48/1/18 3/1/18
f 3/1/18 48/1/18 47/1/18
f 3/1/18 47/1/18 11/1/18
f 3/1/18 11/1/18 9/1/18
f 3/1/18 9/1/18 1/1/18
f 34/1/7 43/1/7 40/1/7
f 43/1/7 34/1/7 44/1/7
f 25/1/2 44/1/2 34/1/2
f 44/1/2 25/1/2 27/1/2
f 36/1/20 49/1/20 32/1/20
f 49/1/20 36/1/20 38/1/20
f 30/1/21 49/1/21 50/1/21
f 49/1/21 30/1/21 32/1/21
f 42/1/22 51/1/22 40/1/22
f 51/1/22 42/1/22 52/1/22
f 35/1/23 28/1/23 25/1/23
f 28/1/23 35/1/23 39/1/23
f 37/1/3 32/1/3 29/1/3
f 32/1/3 37/1/3 36/1/3
f 50/1/24 42/1/24 30/1/24
f 42/1/24 50/1/24 52/1/24
f 51/1/25 34/1/25 40/1/25
f 34/1/25 51/1/25 33/1/25
f 53/1/1 54/1/1 55/1/1
f 54/1/1 53/1/1 56/1/1
f 30/1/8 41/1/8 31/1/8
f 41/1/8 30/1/8 42/1/8
f 57/1/5 58/1/5 59/1/5
f 58/1/5 57/1/5 60/1/5
f 61/1/4 62/1/4 63/1/4
f 62/1/4 61/1/4 64/1/4
f 65/1/3 56/1/3 53/1/3
f 56/1/3 65/1/3 66/1/3
f 54/1/8 58/1/8 55/1/8
f 58/1/8 54/1/8 59/1/8
f 63/1/18 60/1/18 67/1/18
f 60/1/18 63/1/18 33/1/18
f 33/1/18 63/1/18 35/1/18
f 35/1/18 63/1/18 62/1/18
f 35/1/18 62/1/18 39/1/18
f 39/1/18 62/1/18 38/1/18
f 38/1/18 62/1/18 65/1/18
f 38/1/18 65/1/18 49/1/18
f 51/1/18 60/1/18 33/1/18
f 60/1/18 51/1/18 58/1/18
f 58/1/18 51/1/18 52/1/18
f 58/1/18 52/1/18 55/1/18
f 55/1/18 52/1/18 50/1/18
f 55/1/18 50/1/18 49/1/18
f 55/1/18 49/1/18 53/1/18
f 53/1/18 49/1/18 65/1/18
f 68/1/26 69/1/26 70/1/26
f 69/1/26 68/1/26 61/1/26
f 71/1/27 57/1/27 59/1/27
f 57/1/27 71/1/27 72/1/27
f 71/1/28 70/1/28 72/1/28
f 70/1/28 71/1/28 68/1/28
f 68/1/28 71/1/28 73/1/28
f 68/1/28 73/1/28 74/1/28
f 74/1/28 73/1/28 75/1/28
f 74/1/28 75/1/28 76/1/28
f 62/1/6 66/1/6 65/1/6
f 66/1/6 62/1/6 64/1/6
f 69/1/7 60/1/7 57/1/7
f 60/1/7 69/1/7 67/1/7
f 61/1/2 67/1/2 69/1/2
f 67/1/2 61/1/2 63/1/2
f 72/1/29 69/1/29 57/1/29
f 69/1/29 72/1/29 70/1/29
f 73/1/30 59/1/30 54/1/30
f 59/1/30 73/1/30 71/1/30
f 66/1/31 75/1/31 56/1/31
f 75/1/31 66/1/31 76/1/31
f 68/1/32 64/1/32 61/1/32
f 64/1/32 68/1/32 74/1/32
f 66/1/33 74/1/33 76/1/33
f 74/1/33 66/1/33 64/1/33
f 56/1/34 73/1/34 54/1/34
f 73/1/34 56/1/34 75/1/34
f 77/2/18 78/2/18 79/2/18
f 78/2/18 77/2/18 80/2/18
f 47/2/35 81/2/35 82/2/35
f 81/2/35 47/2/35 48/2/35
f 83/2/36 77/2/36 79/2/36
f 77/2/36 83/2/36 84/2/36
f 81/2/37 79/2/37 78/2/37
f 79/2/37 81/2/37 83/2/37
f 82/2/38 78/2/38 80/2/38
f 78/2/38 82/2/38 81/2/38
f 45/2/39 84/2/39 83/2/39
f 84/2/39 45/2/39 46/2/39
f 77/2/40 82/2/40 80/2/40
f 82/2/40 77/2/40 84/2/40
f 48/2/41 83/2/41 81/2/41
f 83/2/41 48/2/41 45/2/41
f 84/2/42 47/2/42 82/2/42
f 47/2/42 84/2/42 46/2/42
