# pine_large.obj — ель, большая
# Generated by tools/valley-assets/build_assets.py; see
# assets/valley/CREDITS.txt. Colors are cells of
# assets/valley/textures/valley_atlas.png — no materials here.
# Source: Kenney Nature Kit (CC0) — https://kenney.nl/assets/nature-kit
v -0.180124 0.000000 0.269139
v 0.335242 0.000000 -0.246227
v 0.335242 0.000000 0.269139
v -0.180124 0.000000 -0.246227
v -0.058615 3.492738 -0.124718
v 0.213733 3.492738 -0.124718
v 0.213733 3.492738 0.147630
v -0.058615 3.492738 0.147630
v -0.910310 3.492738 0.843446
v -0.612775 4.468168 -0.597001
v -0.910310 3.492738 -0.876175
v -0.612775 4.468168 0.791495
v -0.515580 5.676145 0.694300
v -1.073257 4.468168 0.779999
v -0.903075 4.468168 0.950181
v 0.829260 4.468168 0.950181
v 0.934407 4.468168 -0.563405
v 0.934407 4.468168 0.845034
v 0.829260 4.468168 -0.755686
v 0.775722 4.468168 0.791495
v -0.836471 4.468168 -0.755686
v -1.073257 4.468168 -0.563405
v 0.775722 4.468168 -0.597001
v -0.515580 5.676145 -0.499806
v 0.678527 5.676145 -0.499806
v 0.678527 5.676145 0.694300
v -0.476434 5.676145 0.830770
v 0.701041 5.676145 0.830770
v -0.652049 5.676145 0.655155
v 0.829260 5.676145 -0.636276
v 1.009491 5.676145 -0.456044
v 1.009491 5.676145 0.655155
v -0.446671 5.676145 -0.636276
v -0.652049 5.676145 -0.481593
v 1.073257 3.492738 -0.918695
v 0.902921 3.492738 -1.089030
v 1.073257 3.492738 0.921997
v -0.664725 3.492738 1.089030
v 0.906224 3.492738 1.089030
v -0.758935 3.492738 -1.089030
v -0.234150 8.500000 0.097911
vt 0.031250 0.968750
vt 0.093750 0.781250
vn 0.000000 -1.000000 0.000000
vn 0.000000 0.034768 -0.999395
vn 0.999395 0.034768 0.000000
vn 0.000000 0.034768 0.999395
vn -0.999395 0.034768 0.000000
vn -0.956492 0.291758 0.000000
vn -0.661734 0.352444 0.661734
vn -0.907916 0.419151 0.000000
vn 0.000000 0.207228 -0.978293
vn 0.978293 0.207228 0.000000
vn 0.645094 0.409522 -0.645093
vn 0.687890 0.231549 0.687890
vn 0.956492 0.291758 0.000000
vn 0.000000 0.207228 0.978293
vn 0.000000 0.291758 0.956492
vn -0.598291 0.314999 -0.736766
vn 0.675343 0.296353 0.675343
vn 0.858462 0.206560 -0.469443
vn -0.752839 0.382870 -0.535391
vn -0.685451 0.245589 0.685451
vn 0.000000 0.450370 -0.892842
vn -0.686925 0.237211 0.686925
vn -0.989226 0.146394 0.000000
vn -0.583244 0.245233 -0.774395
vn 0.000000 0.251629 -0.967824
vn 0.644795 0.410461 -0.644795
vn 0.915178 0.403049 0.000000
vn 0.000000 0.251202 0.967935
vn 0.461055 0.362851 0.809795
f 1/1/1 2/1/1 3/1/1
f 2/1/1 1/1/1 4/1/1
f 5/1/2 2/1/2 4/1/2
f 2/1/2 5/1/2 6/1/2
f 6/1/3 3/1/3 2/1/3
f 3/1/3 6/1/3 7/1/3
f 7/1/4 1/1/4 3/1/4
f 1/1/4 7/1/4 8/1/4
f 1/1/5 5/1/5 4/1/5
f 5/1/5 1/1/5 8/1/5
f 9/2/6 10/2/6 11/2/6
f 10/2/6 9/2/6 12/2/6
f 13/2/7 14/2/7 15/2/7
f 16/2/1 17/2/1 18/2/1
f 17/2/1 16/2/1 19/2/1
f 19/2/1 16/2/1 20/2/1
f 20/2/1 16/2/1 15/2/1
f 20/2/1 15/2/1 12/2/1
f 12/2/1 15/2/1 10/2/1
f 10/2/1 15/2/1 21/2/1
f 21/2/1 15/2/1 22/2/1
f 22/2/1 15/2/1 14/2/1
f 19/2/1 23/2/1 21/2/1
f 23/2/1 19/2/1 20/2/1
f 21/2/1 23/2/1 10/2/1
f 14/2/8 24/2/8 22/2/8
f 24/2/8 14/2/8 13/2/8
f 24/2/9 19/2/9 21/2/9
f 19/2/9 24/2/9 25/2/9
f 25/2/10 18/2/10 17/2/10
f 18/2/10 25/2/10 26/2/10
f 27/2/1 26/2/1 28/2/1
f 26/2/1 27/2/1 13/2/1
f 13/2/1 27/2/1 29/2/1
f 13/2/1 29/2/1 24/2/1
f 25/2/1 28/2/1 26/2/1
f 30/2/1 28/2/1 25/2/1
f 31/2/1 28/2/1 30/2/1
f 28/2/1 31/2/1 32/2/1
f 30/2/1 25/2/1 33/2/1
f 33/2/1 25/2/1 24/2/1
f 33/2/1 24/2/1 34/2/1
f 34/2/1 24/2/1 29/2/1
f 23/2/11 35/2/11 36/2/11
f 16/2/12 18/2/12 26/2/12
f 23/2/13 37/2/13 35/2/13
f 37/2/13 23/2/13 20/2/13
f 26/2/14 15/2/14 16/2/14
f 15/2/14 26/2/14 13/2/14
f 20/2/15 38/2/15 39/2/15
f 38/2/15 20/2/15 12/2/15
f 24/2/16 21/2/16 22/2/16
f 39/2/1 35/2/1 37/2/1
f 35/2/1 39/2/1 36/2/1
f 36/2/1 39/2/1 7/2/1
f 7/2/1 39/2/1 38/2/1
f 7/2/1 38/2/1 8/2/1
f 8/2/1 38/2/1 5/2/1
f 6/2/1 36/2/1 7/2/1
f 36/2/1 6/2/1 40/2/1
f 40/2/1 6/2/1 5/2/1
f 40/2/1 5/2/1 38/2/1
f 40/2/1 38/2/1 9/2/1
f 40/2/1 9/2/1 11/2/1
f 20/2/17 39/2/17 37/2/17
f 25/2/18 17/2/18 19/2/18
f 10/2/19 40/2/19 11/2/19
f 12/2/20 9/2/20 38/2/20
f 10/2/21 36/2/21 40/2/21
f 36/2/21 10/2/21 23/2/21
f 41/2/22 29/2/22 27/2/22
f 29/2/23 41/2/23 34/2/23
f 41/2/24 33/2/24 34/2/24
f 41/2/25 30/2/25 33/2/25
f 41/2/26 31/2/26 30/2/26
f 32/2/27 31/2/27 41/2/27
f 41/2/28 27/2/28 28/2/28
f 41/2/29 28/2/29 32/2/29
