# logs_loose.obj — брёвна россыпью
# Generated by tools/valley-assets/build_assets.py; see
# assets/valley/CREDITS.txt. Colors are cells of
# assets/valley/textures/valley_atlas.png — no materials here.
# Source: Kenney Nature Kit (CC0) — https://kenney.nl/assets/nature-kit
# Source: Kenney Survival Kit (CC0) — https://kenney.nl/assets/survival-kit
v 0.230476 0.386257 0.489365
v 0.094276 0.444696 0.510314
v 0.164105 0.323749 0.510314
v 0.181595 0.470920 0.489365
v -0.240528 0.000000 -1.127109
v -0.190270 0.087048 -1.127109
v 0.055247 0.000000 -1.127109
v -0.388415 0.256148 -1.127109
v -0.287900 0.256148 -1.127109
v -0.240528 0.512297 -1.127109
v -0.190270 0.425249 -1.127109
v 0.004990 0.425249 -1.127109
v 0.004990 0.087048 -1.127109
v 0.203134 0.256148 -1.127109
v 0.102620 0.256148 -1.127109
v 0.055247 0.512297 -1.127109
v -0.240528 0.000000 0.972891
v -0.388415 0.256148 0.972891
v -0.283362 0.438105 -0.555894
v -0.461522 0.425298 -0.580159
v -0.345580 0.330340 -0.555894
v -0.423569 0.491035 -0.580159
v 0.230476 0.386257 0.391605
v 0.164105 0.323749 0.370656
v -0.345580 0.330340 -0.680330
v -0.461522 0.425298 -0.656065
v 0.181595 0.470920 0.391605
v 0.094276 0.444696 0.370656
v -0.283362 0.438105 -0.680330
v -0.423569 0.491035 -0.656065
v 0.055247 0.000000 0.972891
v 0.004261 0.088311 0.972891
v 0.203134 0.256148 0.972891
v 0.101162 0.256148 0.972891
v 0.055247 0.512297 0.972891
v 0.004261 0.423986 0.972891
v -0.189541 0.423986 0.972891
v -0.189541 0.088311 0.972891
v -0.286442 0.256148 0.972891
v -0.240528 0.512297 0.972891
v -0.248848 0.256148 -1.067954
v -0.014536 0.120868 -1.067954
v -0.170744 0.120868 -1.067954
v 0.063568 0.256148 -1.067954
v -0.170744 0.391428 -1.067954
v -0.014536 0.391428 -1.067954
v 0.062402 0.256148 0.913736
v -0.015119 0.121878 0.913736
v -0.247682 0.256148 0.913736
v -0.170161 0.390418 0.913736
v -0.015119 0.390418 0.913736
v -0.170161 0.121878 0.913736
v 1.097073 0.312684 0.546292
v 1.007684 0.359992 0.613028
v 1.057595 0.262082 0.586489
v 1.062135 0.381221 0.564869
v 0.146077 0.000000 -0.430107
v 0.181999 0.070467 -0.449207
v 0.357487 0.000000 -0.542515
v 0.040372 0.207358 -0.373902
v 0.112216 0.207358 -0.412103
v 0.146077 0.414716 -0.430107
v 0.181999 0.344249 -0.449207
v 0.321565 0.344249 -0.523415
v 0.321565 0.070467 -0.523415
v 0.463192 0.207358 -0.598720
v 0.391348 0.207358 -0.560519
v 0.357487 0.414716 -0.542515
v 0.944179 0.000000 1.070904
v 0.838474 0.207358 1.127109
v 0.332550 0.354657 -0.005542
v 0.195985 0.344289 0.044824
v 0.288078 0.267418 0.018104
v 0.223113 0.397504 0.030400
v 1.059919 0.312684 0.476416
v 1.004518 0.262082 0.486666
v 0.240786 0.267418 -0.070839
v 0.167137 0.344289 -0.009432
v 1.024981 0.381221 0.494993
v 0.954607 0.359992 0.513205
v 0.285258 0.354657 -0.094485
v 0.194265 0.397504 -0.023856
v 1.155589 0.000000 0.958496
v 1.119145 0.071490 0.977873
v 1.261294 0.207358 0.902291
v 1.188407 0.207358 0.941046
v 1.155589 0.414716 0.958496
v 1.119145 0.343227 0.977873
v 0.980622 0.343227 1.051527
v 0.980622 0.071490 1.051527
v 0.911360 0.207358 1.088354
v 0.944179 0.414716 1.070904
v 0.162611 0.207358 -0.384662
v 0.330090 0.097846 -0.473712
v 0.218437 0.097846 -0.414346
v 0.385916 0.207358 -0.503396
v 0.218437 0.316871 -0.414346
v 0.330090 0.316871 -0.473712
v 1.138221 0.207358 0.913495
v 1.082811 0.098663 0.942956
v 0.916583 0.207358 1.031341
v 0.971993 0.316053 1.001880
v 1.082811 0.316053 0.942956
v 0.971993 0.098663 1.001880
v -0.563054 0.035174 0.294404
v -0.963556 0.195056 0.541663
v -0.626008 0.195056 0.226894
v -0.900602 0.035174 0.609172
v -0.774695 0.354937 0.744191
v -0.374193 0.195056 0.496932
v -0.437147 0.354937 0.429423
v -0.711741 0.195056 0.811701
v -1.030883 0.390111 1.010858
v -0.954080 0.195056 1.093220
v -0.563054 0.354937 0.294404
v -0.900602 0.354937 0.609172
v -1.184490 0.390111 0.846135
v -0.437147 0.035174 0.429423
v -0.774695 0.035174 0.744191
v -1.261294 0.195056 0.763773
v -1.184490 0.000000 0.846135
v -1.030883 0.000000 1.010858
v -0.306866 0.000000 0.027737
v -0.153259 0.000000 0.192460
v -0.076455 0.195056 0.274822
v -0.306866 0.390111 0.027737
v -0.153259 0.390111 0.192460
v -0.383669 0.195056 -0.054625
v -0.274154 0.083077 0.062816
v -0.185970 0.083077 0.157381
v -0.318246 0.195056 0.015533
v -0.274154 0.307034 0.062816
v -0.141879 0.195056 0.204664
v -0.185970 0.307034 0.157381
v -1.012234 0.195056 1.030857
v -1.059960 0.316265 0.979677
v -1.155413 0.316265 0.877316
v -1.203140 0.195056 0.826136
v -1.155413 0.073846 0.877316
v -1.059960 0.073846 0.979677
v -0.639447 0.471086 0.813465
v -0.785593 0.247578 0.806376
v -0.695640 0.247578 0.722493
v -0.698763 0.471086 0.868777
v -0.687349 0.511637 0.762097
v -0.746664 0.511637 0.817409
v -0.768284 0.309076 0.644592
v -0.858237 0.309076 0.728474
v -0.572480 0.305320 0.361121
v -0.679415 0.439788 0.220956
v -0.632775 0.254277 0.296462
v -0.639657 0.473446 0.263592
v -0.590425 0.473446 0.217682
v -0.497819 0.305320 0.291498
v -0.630183 0.439788 0.175046
v -0.558114 0.254277 0.226840
vt 0.093750 0.968750
vt 0.156250 0.906250
vt 0.093750 0.843750
vn 0.198987 0.114885 0.973245
vn 0.000000 0.000000 -1.000000
vn -0.866025 -0.500000 0.000000
vn -0.140221 0.080956 0.986805
vn 0.685611 -0.727968 0.000000
vn -0.633625 -0.773640 0.000000
vn 0.866025 0.500001 0.000000
vn 0.198990 0.114887 -0.973244
vn -0.140221 0.080956 -0.986805
vn 0.000000 0.000000 1.000000
vn 0.866025 -0.500000 0.000000
vn -0.866025 0.500001 0.000000
vn -0.287633 0.957741 0.000000
vn 0.000000 1.000000 0.000000
vn 0.000000 -1.000000 0.000000
vn -0.866025 0.500000 0.000000
vn 0.353182 0.935555 0.000000
vn 0.866025 0.500000 0.000000
vn -0.198987 -0.114885 -0.973245
vn -0.753208 0.434865 0.493529
vn 0.753208 -0.434865 -0.493529
vn 0.140221 -0.080956 -0.986805
vn -0.685611 0.727968 0.000000
vn 0.633625 0.773640 0.000000
vn 0.753208 -0.434865 0.493529
vn -0.753208 0.434865 -0.493529
vn 0.000000 -0.869730 0.493528
vn 0.000000 0.869730 -0.493528
vn -0.866025 -0.500001 0.000000
vn -0.198990 -0.114887 0.973244
vn -0.751826 -0.434067 -0.496331
vn 0.751826 0.434067 0.496331
vn 0.140221 -0.080956 0.986805
vn 0.000000 0.869730 0.493528
vn 0.000000 -0.869730 -0.493528
vn -0.753208 -0.434865 0.493529
vn 0.753208 0.434865 -0.493529
vn -0.751826 0.434067 -0.496330
vn 0.751826 -0.434067 0.496330
vn 0.000000 -0.868132 -0.496333
vn 0.000000 0.868132 0.496333
vn 0.000000 0.868134 -0.496330
vn 0.000000 -0.868134 0.496330
vn 0.866025 -0.500001 0.000000
vn 0.287633 -0.957741 0.000000
vn 0.751826 -0.434067 -0.496331
vn -0.751826 0.434067 0.496331
vn 0.751826 0.434067 -0.496330
vn -0.751826 -0.434067 0.496330
vn 0.753208 0.434865 0.493529
vn -0.753208 -0.434865 -0.493529
vn -0.353182 -0.935555 0.000000
vn 0.632606 0.114885 0.765906
vn -0.469472 0.000000 -0.882948
vn -0.764655 -0.500000 0.406574
vn 0.339469 0.080956 0.937127
vn 0.605359 -0.727968 -0.321875
vn -0.559457 -0.773640 0.297469
vn 0.764655 0.500001 -0.406574
vn -0.281213 0.114887 -0.952744
vn -0.587084 0.080956 -0.805468
vn 0.469472 0.000000 0.882948
vn 0.764655 -0.500000 -0.406574
vn -0.764655 0.500001 0.406574
vn -0.253965 0.957741 0.135036
vn -0.764655 0.500000 0.406574
vn 0.311841 0.935555 -0.165809
vn 0.764655 0.500000 -0.406574
vn -0.632606 -0.114885 -0.765906
vn -0.433345 0.434865 0.789370
vn 0.433345 -0.434865 -0.789370
vn -0.339469 -0.080956 -0.937127
vn -0.605359 0.727968 0.321875
vn 0.559457 0.773640 -0.297469
vn 0.896741 -0.434865 0.082150
vn -0.896741 0.434865 -0.082150
vn 0.231697 -0.869730 0.435759
vn -0.231697 0.869730 -0.435759
vn -0.764655 -0.500001 0.406574
vn 0.281213 -0.114887 0.952744
vn -0.896836 -0.434067 -0.085273
vn 0.896836 0.434067 0.085273
vn 0.587084 -0.080956 0.805468
vn 0.231698 0.869730 0.435760
vn -0.231698 -0.869730 -0.435760
vn -0.433345 -0.434865 0.789370
vn 0.433345 0.434865 -0.789370
vn -0.896836 0.434067 -0.085272
vn 0.896836 -0.434067 0.085272
vn -0.233014 -0.868132 -0.438236
vn 0.233014 0.868132 0.438236
vn -0.233013 0.868134 -0.438233
vn 0.233013 -0.868134 0.438233
vn 0.764655 -0.500001 -0.406574
vn 0.253965 -0.957741 -0.135036
vn 0.430810 -0.434067 -0.791195
vn -0.430810 0.434067 0.791195
vn 0.430810 0.434067 -0.791194
vn -0.430810 -0.434067 0.791194
vn 0.896741 0.434865 0.082150
vn -0.896741 -0.434865 -0.082150
vn -0.311841 -0.935555 0.165809
vn -0.381228 -0.864679 -0.327101
vn -0.640180 0.000000 -0.768225
vn -0.721697 0.000000 -0.692209
vn -0.299711 -0.864679 -0.403116
vn 0.381228 0.864679 0.327101
vn 0.640180 0.000000 0.768225
vn 0.299711 0.864679 0.403116
vn 0.721697 0.000000 0.692209
vn 0.418921 0.860833 0.288914
vn 0.757876 0.000000 0.652399
vn -0.381228 0.864679 -0.327101
vn -0.299711 0.864679 -0.403116
vn -0.258988 0.860833 -0.438054
vn 0.299711 -0.864679 0.403116
vn 0.381228 -0.864679 0.327101
vn -0.597943 0.000000 -0.801539
vn -0.258988 -0.860833 -0.438054
vn 0.418921 -0.860833 0.288914
vn -0.418921 -0.860833 -0.288914
vn 0.258988 -0.860833 0.438054
vn 0.597943 0.000000 0.801539
vn -0.418921 0.860833 -0.288914
vn 0.258988 0.860833 0.438054
vn -0.757876 0.000000 -0.652399
vn 0.731354 0.000000 -0.681998
vn -0.731354 0.000000 0.681998
vn 0.968846 -0.247478 0.009581
vn -0.058026 -0.247478 0.967154
vn 0.340999 0.866025 0.365677
vn 0.139563 0.454557 -0.879716
vn -0.887309 0.454557 0.077857
vn -0.139563 0.454557 0.879716
vn -0.968846 -0.247479 -0.009581
vn 0.887309 0.454557 -0.077857
vn -0.340999 0.866025 -0.365677
vn 0.058026 -0.247479 -0.967154
f 1/1/1 2/1/1 3/1/1
f 2/1/1 1/1/1 4/1/1
f 5/1/2 6/1/2 7/1/2
f 6/1/2 5/1/2 8/1/2
f 6/1/2 8/1/2 9/1/2
f 9/1/2 8/1/2 10/1/2
f 9/1/2 10/1/2 11/1/2
f 11/1/2 10/1/2 12/1/2
f 13/1/2 7/1/2 6/1/2
f 7/1/2 13/1/2 14/1/2
f 14/1/2 13/1/2 15/1/2
f 14/1/2 15/1/2 12/1/2
f 14/1/2 12/1/2 16/1/2
f 16/1/2 12/1/2 10/1/2
f 17/1/3 8/1/3 5/1/3
f 8/1/3 17/1/3 18/1/3
f 19/1/4 20/1/4 21/1/4
f 20/1/4 19/1/4 22/1/4
f 3/1/5 23/1/5 1/1/5
f 23/1/5 3/1/5 24/1/5
f 20/1/6 25/1/6 21/1/6
f 25/1/6 20/1/6 26/1/6
f 4/1/7 23/1/7 27/1/7
f 23/1/7 4/1/7 1/1/7
f 28/1/8 23/1/8 24/1/8
f 23/1/8 28/1/8 27/1/8
f 26/1/9 29/1/9 25/1/9
f 29/1/9 26/1/9 30/1/9
f 31/1/10 32/1/10 17/1/10
f 32/1/10 31/1/10 33/1/10
f 32/1/10 33/1/10 34/1/10
f 34/1/10 33/1/10 35/1/10
f 34/1/10 35/1/10 36/1/10
f 36/1/10 35/1/10 37/1/10
f 38/1/10 17/1/10 32/1/10
f 17/1/10 38/1/10 18/1/10
f 18/1/10 38/1/10 39/1/10
f 18/1/10 39/1/10 37/1/10
f 18/1/10 37/1/10 40/1/10
f 40/1/10 37/1/10 35/1/10
f 33/1/11 7/1/11 14/1/11
f 7/1/11 33/1/11 31/1/11
f 20/1/12 30/1/12 26/1/12
f 30/1/12 20/1/12 22/1/12
f 28/1/13 4/1/13 27/1/13
f 4/1/13 28/1/13 2/1/13
f 10/1/14 35/1/14 16/1/14
f 35/1/14 10/1/14 40/1/14
f 17/1/15 7/1/15 31/1/15
f 7/1/15 17/1/15 5/1/15
f 8/1/16 25/1/16 10/1/16
f 25/1/16 8/1/16 18/1/16
f 25/1/16 18/1/16 21/1/16
f 21/1/16 18/1/16 19/1/16
f 29/1/16 10/1/16 25/1/16
f 10/1/16 29/1/16 40/1/16
f 40/1/16 29/1/16 19/1/16
f 40/1/16 19/1/16 18/1/16
f 30/1/17 19/1/17 29/1/17
f 19/1/17 30/1/17 22/1/17
f 16/1/18 28/1/18 14/1/18
f 28/1/18 16/1/18 35/1/18
f 28/1/18 35/1/18 2/1/18
f 2/1/18 35/1/18 3/1/18
f 24/1/18 14/1/18 28/1/18
f 14/1/18 24/1/18 33/1/18
f 33/1/18 24/1/18 3/1/18
f 33/1/18 3/1/18 35/1/18
f 3/2/19 2/2/19 1/2/19
f 4/2/19 1/2/19 2/2/19
f 41/2/2 42/2/2 43/2/2
f 42/2/2 41/2/2 44/2/2
f 44/2/2 41/2/2 45/2/2
f 44/2/2 45/2/2 46/2/2
f 43/2/10 42/2/10 41/2/10
f 44/2/10 41/2/10 42/2/10
f 45/2/10 41/2/10 44/2/10
f 46/2/10 45/2/10 44/2/10
f 32/2/20 47/2/20 48/2/20
f 47/2/20 32/2/20 34/2/20
f 48/2/21 47/2/21 32/2/21
f 34/2/21 32/2/21 47/2/21
f 7/2/10 6/2/10 5/2/10
f 8/2/10 5/2/10 6/2/10
f 9/2/10 8/2/10 6/2/10
f 10/2/10 8/2/10 9/2/10
f 11/2/10 10/2/10 9/2/10
f 12/2/10 10/2/10 11/2/10
f 6/2/10 7/2/10 13/2/10
f 14/2/10 13/2/10 7/2/10
f 15/2/10 13/2/10 14/2/10
f 12/2/10 15/2/10 14/2/10
f 16/2/10 12/2/10 14/2/10
f 10/2/10 12/2/10 16/2/10
f 5/2/18 8/2/18 17/2/18
f 18/2/18 17/2/18 8/2/18
f 21/2/22 20/2/22 19/2/22
f 22/2/22 19/2/22 20/2/22
f 1/2/23 23/2/23 3/2/23
f 24/2/23 3/2/23 23/2/23
f 21/2/24 25/2/24 20/2/24
f 26/2/24 20/2/24 25/2/24
f 37/2/25 49/2/25 50/2/25
f 49/2/25 37/2/25 39/2/25
f 50/2/26 49/2/26 37/2/26
f 39/2/26 37/2/26 49/2/26
f 37/2/27 51/2/27 36/2/27
f 51/2/27 37/2/27 50/2/27
f 36/2/28 51/2/28 37/2/28
f 50/2/28 37/2/28 51/2/28
f 27/2/29 23/2/29 4/2/29
f 1/2/29 4/2/29 23/2/29
f 24/2/30 23/2/30 28/2/30
f 27/2/30 28/2/30 23/2/30
f 44/2/31 12/2/31 15/2/31
f 12/2/31 44/2/31 46/2/31
f 15/2/32 12/2/32 44/2/32
f 46/2/32 44/2/32 12/2/32
f 25/2/33 29/2/33 26/2/33
f 30/2/33 26/2/33 29/2/33
f 17/2/2 32/2/2 31/2/2
f 33/2/2 31/2/2 32/2/2
f 34/2/2 33/2/2 32/2/2
f 35/2/2 33/2/2 34/2/2
f 36/2/2 35/2/2 34/2/2
f 37/2/2 35/2/2 36/2/2
f 32/2/2 17/2/2 38/2/2
f 18/2/2 38/2/2 17/2/2
f 39/2/2 38/2/2 18/2/2
f 37/2/2 39/2/2 18/2/2
f 40/2/2 37/2/2 18/2/2
f 35/2/2 37/2/2 40/2/2
f 48/2/34 38/2/34 32/2/34
f 38/2/34 48/2/34 52/2/34
f 32/2/35 38/2/35 48/2/35
f 52/2/35 48/2/35 38/2/35
f 34/2/36 51/2/36 47/2/36
f 51/2/36 34/2/36 36/2/36
f 47/2/37 51/2/37 34/2/37
f 36/2/37 34/2/37 51/2/37
f 42/2/38 15/2/38 13/2/38
f 15/2/38 42/2/38 44/2/38
f 13/2/39 15/2/39 42/2/39
f 44/2/39 42/2/39 15/2/39
f 46/2/40 11/2/40 12/2/40
f 11/2/40 46/2/40 45/2/40
f 12/2/41 11/2/41 46/2/41
f 45/2/41 46/2/41 11/2/41
f 6/2/42 42/2/42 13/2/42
f 42/2/42 6/2/42 43/2/42
f 13/2/43 42/2/43 6/2/43
f 43/2/43 6/2/43 42/2/43
f 14/2/16 7/2/16 33/2/16
f 31/2/16 33/2/16 7/2/16
f 47/2/10 52/2/10 48/2/10
f 52/2/10 47/2/10 49/2/10
f 49/2/10 47/2/10 51/2/10
f 49/2/10 51/2/10 50/2/10
f 48/2/2 52/2/2 47/2/2
f 49/2/2 47/2/2 52/2/2
f 51/2/2 47/2/2 49/2/2
f 50/2/2 51/2/2 49/2/2
f 26/2/44 30/2/44 20/2/44
f 22/2/44 20/2/44 30/2/44
f 27/2/45 4/2/45 28/2/45
f 2/2/45 28/2/45 4/2/45
f 45/2/46 9/2/46 11/2/46
f 9/2/46 45/2/46 41/2/46
f 11/2/47 9/2/47 45/2/47
f 41/2/47 45/2/47 9/2/47
f 41/2/48 6/2/48 9/2/48
f 6/2/48 41/2/48 43/2/48
f 9/2/49 6/2/49 41/2/49
f 43/2/49 41/2/49 6/2/49
f 16/2/15 35/2/15 10/2/15
f 40/2/15 10/2/15 35/2/15
f 31/2/14 7/2/14 17/2/14
f 5/2/14 17/2/14 7/2/14
f 10/2/11 25/2/11 8/2/11
f 18/2/11 8/2/11 25/2/11
f 21/2/11 18/2/11 25/2/11
f 19/2/11 18/2/11 21/2/11
f 25/2/11 10/2/11 29/2/11
f 40/2/11 29/2/11 10/2/11
f 19/2/11 29/2/11 40/2/11
f 18/2/11 19/2/11 40/2/11
f 39/2/50 52/2/50 49/2/50
f 52/2/50 39/2/50 38/2/50
f 49/2/51 52/2/51 39/2/51
f 38/2/51 39/2/51 52/2/51
f 29/2/52 19/2/52 30/2/52
f 22/2/52 30/2/52 19/2/52
f 14/2/3 28/2/3 16/2/3
f 35/2/3 16/2/3 28/2/3
f 2/2/3 35/2/3 28/2/3
f 3/2/3 35/2/3 2/2/3
f 28/2/3 14/2/3 24/2/3
f 33/2/3 24/2/3 14/2/3
f 3/2/3 24/2/3 33/2/3
f 35/2/3 3/2/3 33/2/3
f 53/1/53 54/1/53 55/1/53
f 54/1/53 53/1/53 56/1/53
f 57/1/54 58/1/54 59/1/54
f 58/1/54 57/1/54 60/1/54
f 58/1/54 60/1/54 61/1/54
f 61/1/54 60/1/54 62/1/54
f 61/1/54 62/1/54 63/1/54
f 63/1/54 62/1/54 64/1/54
f 65/1/54 59/1/54 58/1/54
f 59/1/54 65/1/54 66/1/54
f 66/1/54 65/1/54 67/1/54
f 66/1/54 67/1/54 64/1/54
f 66/1/54 64/1/54 68/1/54
f 68/1/54 64/1/54 62/1/54
f 69/1/55 60/1/55 57/1/55
f 60/1/55 69/1/55 70/1/55
f 71/1/56 72/1/56 73/1/56
f 72/1/56 71/1/56 74/1/56
f 55/1/57 75/1/57 53/1/57
f 75/1/57 55/1/57 76/1/57
f 72/1/58 77/1/58 73/1/58
f 77/1/58 72/1/58 78/1/58
f 56/1/59 75/1/59 79/1/59
f 75/1/59 56/1/59 53/1/59
f 80/1/60 75/1/60 76/1/60
f 75/1/60 80/1/60 79/1/60
f 78/1/61 81/1/61 77/1/61
f 81/1/61 78/1/61 82/1/61
f 83/1/62 84/1/62 69/1/62
f 84/1/62 83/1/62 85/1/62
f 84/1/62 85/1/62 86/1/62
f 86/1/62 85/1/62 87/1/62
f 86/1/62 87/1/62 88/1/62
f 88/1/62 87/1/62 89/1/62
f 90/1/62 69/1/62 84/1/62
f 69/1/62 90/1/62 70/1/62
f 70/1/62 90/1/62 91/1/62
f 70/1/62 91/1/62 89/1/62
f 70/1/62 89/1/62 92/1/62
f 92/1/62 89/1/62 87/1/62
f 85/1/63 59/1/63 66/1/63
f 59/1/63 85/1/63 83/1/63
f 72/1/64 82/1/64 78/1/64
f 82/1/64 72/1/64 74/1/64
f 80/1/65 56/1/65 79/1/65
f 56/1/65 80/1/65 54/1/65
f 62/1/14 87/1/14 68/1/14
f 87/1/14 62/1/14 92/1/14
f 69/1/15 59/1/15 83/1/15
f 59/1/15 69/1/15 57/1/15
f 60/1/66 77/1/66 62/1/66
f 77/1/66 60/1/66 70/1/66
f 77/1/66 70/1/66 73/1/66
f 73/1/66 70/1/66 71/1/66
f 81/1/66 62/1/66 77/1/66
f 62/1/66 81/1/66 92/1/66
f 92/1/66 81/1/66 71/1/66
f 92/1/66 71/1/66 70/1/66
f 82/1/67 71/1/67 81/1/67
f 71/1/67 82/1/67 74/1/67
f 68/1/68 80/1/68 66/1/68
f 80/1/68 68/1/68 87/1/68
f 80/1/68 87/1/68 54/1/68
f 54/1/68 87/1/68 55/1/68
f 76/1/68 66/1/68 80/1/68
f 66/1/68 76/1/68 85/1/68
f 85/1/68 76/1/68 55/1/68
f 85/1/68 55/1/68 87/1/68
f 55/2/69 54/2/69 53/2/69
f 56/2/69 53/2/69 54/2/69
f 93/2/54 94/2/54 95/2/54
f 94/2/54 93/2/54 96/2/54
f 96/2/54 93/2/54 97/2/54
f 96/2/54 97/2/54 98/2/54
f 95/2/62 94/2/62 93/2/62
f 96/2/62 93/2/62 94/2/62
f 97/2/62 93/2/62 96/2/62
f 98/2/62 97/2/62 96/2/62
f 84/2/70 99/2/70 100/2/70
f 99/2/70 84/2/70 86/2/70
f 100/2/71 99/2/71 84/2/71
f 86/2/71 84/2/71 99/2/71
f 59/2/62 58/2/62 57/2/62
f 60/2/62 57/2/62 58/2/62
f 61/2/62 60/2/62 58/2/62
f 62/2/62 60/2/62 61/2/62
f 63/2/62 62/2/62 61/2/62
f 64/2/62 62/2/62 63/2/62
f 58/2/62 59/2/62 65/2/62
f 66/2/62 65/2/62 59/2/62
f 67/2/62 65/2/62 66/2/62
f 64/2/62 67/2/62 66/2/62
f 68/2/62 64/2/62 66/2/62
f 62/2/62 64/2/62 68/2/62
f 57/2/68 60/2/68 69/2/68
f 70/2/68 69/2/68 60/2/68
f 73/2/72 72/2/72 71/2/72
f 74/2/72 71/2/72 72/2/72
f 53/2/73 75/2/73 55/2/73
f 76/2/73 55/2/73 75/2/73
f 73/2/74 77/2/74 72/2/74
f 78/2/74 72/2/74 77/2/74
f 89/2/75 101/2/75 102/2/75
f 101/2/75 89/2/75 91/2/75
f 102/2/76 101/2/76 89/2/76
f 91/2/76 89/2/76 101/2/76
f 89/2/77 103/2/77 88/2/77
f 103/2/77 89/2/77 102/2/77
f 88/2/78 103/2/78 89/2/78
f 102/2/78 89/2/78 103/2/78
f 79/2/79 75/2/79 56/2/79
f 53/2/79 56/2/79 75/2/79
f 76/2/80 75/2/80 80/2/80
f 79/2/80 80/2/80 75/2/80
f 96/2/81 64/2/81 67/2/81
f 64/2/81 96/2/81 98/2/81
f 67/2/82 64/2/82 96/2/82
f 98/2/82 96/2/82 64/2/82
f 77/2/83 81/2/83 78/2/83
f 82/2/83 78/2/83 81/2/83
f 69/2/54 84/2/54 83/2/54
f 85/2/54 83/2/54 84/2/54
f 86/2/54 85/2/54 84/2/54
f 87/2/54 85/2/54 86/2/54
f 88/2/54 87/2/54 86/2/54
f 89/2/54 87/2/54 88/2/54
f 84/2/54 69/2/54 90/2/54
f 70/2/54 90/2/54 69/2/54
f 91/2/54 90/2/54 70/2/54
f 89/2/54 91/2/54 70/2/54
f 92/2/54 89/2/54 70/2/54
f 87/2/54 89/2/54 92/2/54
f 100/2/84 90/2/84 84/2/84
f 90/2/84 100/2/84 104/2/84
f 84/2/85 90/2/85 100/2/85
f 104/2/85 100/2/85 90/2/85
f 86/2/86 103/2/86 99/2/86
f 103/2/86 86/2/86 88/2/86
f 99/2/87 103/2/87 86/2/87
f 88/2/87 86/2/87 103/2/87
f 94/2/88 67/2/88 65/2/88
f 67/2/88 94/2/88 96/2/88
f 65/2/89 67/2/89 94/2/89
f 96/2/89 94/2/89 67/2/89
f 98/2/90 63/2/90 64/2/90
f 63/2/90 98/2/90 97/2/90
f 64/2/91 63/2/91 98/2/91
f 97/2/91 98/2/91 63/2/91
f 58/2/92 94/2/92 65/2/92
f 94/2/92 58/2/92 95/2/92
f 65/2/93 94/2/93 58/2/93
f 95/2/93 58/2/93 94/2/93
f 66/2/66 59/2/66 85/2/66
f 83/2/66 85/2/66 59/2/66
f 99/2/62 104/2/62 100/2/62
f 104/2/62 99/2/62 101/2/62
f 101/2/62 99/2/62 103/2/62
f 101/2/62 103/2/62 102/2/62
f 100/2/54 104/2/54 99/2/54
f 101/2/54 99/2/54 104/2/54
f 103/2/54 99/2/54 101/2/54
f 102/2/54 103/2/54 101/2/54
f 78/2/94 82/2/94 72/2/94
f 74/2/94 72/2/94 82/2/94
f 79/2/95 56/2/95 80/2/95
f 54/2/95 80/2/95 56/2/95
f 97/2/96 61/2/96 63/2/96
f 61/2/96 97/2/96 93/2/96
f 63/2/97 61/2/97 97/2/97
f 93/2/97 97/2/97 61/2/97
f 93/2/98 58/2/98 61/2/98
f 58/2/98 93/2/98 95/2/98
f 61/2/99 58/2/99 93/2/99
f 95/2/99 93/2/99 58/2/99
f 68/2/15 87/2/15 62/2/15
f 92/2/15 62/2/15 87/2/15
f 83/2/14 59/2/14 69/2/14
f 57/2/14 69/2/14 59/2/14
f 62/2/63 77/2/63 60/2/63
f 70/2/63 60/2/63 77/2/63
f 73/2/63 70/2/63 77/2/63
f 71/2/63 70/2/63 73/2/63
f 77/2/63 62/2/63 81/2/63
f 92/2/63 81/2/63 62/2/63
f 71/2/63 81/2/63 92/2/63
f 70/2/63 71/2/63 92/2/63
f 91/2/100 104/2/100 101/2/100
f 104/2/100 91/2/100 90/2/100
f 101/2/101 104/2/101 91/2/101
f 90/2/101 91/2/101 104/2/101
f 81/2/102 71/2/102 82/2/102
f 74/2/102 82/2/102 71/2/102
f 66/2/55 80/2/55 68/2/55
f 87/2/55 68/2/55 80/2/55
f 54/2/55 87/2/55 80/2/55
f 55/2/55 87/2/55 54/2/55
f 80/2/55 66/2/55 76/2/55
f 85/2/55 76/2/55 66/2/55
f 55/2/55 76/2/55 85/2/55
f 87/2/55 55/2/55 85/2/55
f 105/3/103 106/3/104 107/3/105
f 106/3/104 105/3/103 108/3/106
f 109/3/107 110/3/108 111/3/109
f 110/3/108 109/3/107 112/3/110
f 113/3/111 112/3/110 109/3/107
f 112/3/110 113/3/111 114/3/112
f 115/2/113 109/2/107 111/2/109
f 109/2/107 115/2/113 116/2/114
f 109/2/107 117/2/115 113/2/111
f 117/2/115 109/2/107 116/2/114
f 108/1/106 118/1/116 119/1/117
f 118/1/116 108/1/106 105/1/103
f 112/3/110 118/3/116 110/3/108
f 118/3/116 112/3/110 119/3/117
f 106/3/104 117/3/115 116/3/114
f 117/3/115 106/3/104 120/3/118
f 108/3/106 120/3/118 106/3/104
f 120/3/118 108/3/106 121/3/119
f 114/3/112 119/3/117 112/3/110
f 119/3/117 114/3/112 122/3/120
f 118/1/116 123/1/121 124/1/122
f 123/1/121 118/1/116 105/1/103
f 110/3/108 124/3/122 125/3/123
f 124/3/122 110/3/108 118/3/116
f 126/2/124 111/2/109 127/2/125
f 111/2/109 126/2/124 115/2/113
f 123/3/121 107/3/105 128/3/126
f 107/3/105 123/3/121 105/3/103
f 121/1/119 119/1/117 122/1/120
f 119/1/117 121/1/119 108/1/106
f 107/3/105 116/3/114 115/3/113
f 116/3/114 107/3/105 106/3/104
f 111/3/109 125/3/123 127/3/125
f 125/3/123 111/3/109 110/3/108
f 128/3/126 115/3/113 126/3/124
f 115/3/113 128/3/126 107/3/105
f 123/1/127 129/1/127 124/1/127
f 129/3/127 123/3/127 128/3/127
f 130/1/127 124/1/127 129/1/127
f 129/3/127 128/3/127 131/3/127
f 131/3/127 128/3/127 132/3/127
f 132/3/127 128/3/127 126/3/127
f 124/3/127 130/3/127 125/3/127
f 125/3/127 130/3/127 133/3/127
f 132/2/127 126/2/127 134/2/127
f 125/3/127 133/3/127 134/3/127
f 127/2/127 134/2/127 126/2/127
f 125/3/127 134/3/127 127/3/127
f 135/3/128 113/3/128 136/3/128
f 136/2/128 113/2/128 137/2/128
f 135/3/128 114/3/128 113/3/128
f 117/2/128 137/2/128 113/2/128
f 117/3/128 138/3/128 137/3/128
f 120/3/128 138/3/128 117/3/128
f 120/3/128 139/3/128 138/3/128
f 139/3/128 120/3/128 121/3/128
f 140/3/128 114/3/128 135/3/128
f 121/1/128 140/1/128 139/1/128
f 140/3/128 122/3/128 114/3/128
f 122/1/128 140/1/128 121/1/128
f 141/3/129 142/3/130 143/3/129
f 142/3/130 141/3/129 144/3/130
f 145/2/131 144/2/131 141/2/131
f 144/2/131 145/2/131 146/2/131
f 147/3/132 141/3/129 143/3/129
f 141/3/129 147/3/132 145/3/132
f 144/3/130 148/3/133 142/3/130
f 148/3/133 144/3/130 146/3/133
f 148/3/133 145/3/132 147/3/132
f 145/3/132 148/3/133 146/3/133
f 149/3/134 150/3/135 151/3/135
f 150/3/135 149/3/134 152/3/134
f 153/3/136 149/3/134 154/3/136
f 149/3/134 153/3/136 152/3/134
f 155/2/137 152/2/137 153/2/137
f 152/2/137 155/2/137 150/2/137
f 155/3/138 154/3/136 156/3/138
f 154/3/136 155/3/138 153/3/136
f 151/3/135 155/3/138 156/3/138
f 155/3/138 151/3/135 150/3/135
f 140/3/128 138/3/128 139/3/128
f 138/3/128 140/3/128 135/3/128
f 138/2/128 135/2/128 137/2/128
f 137/2/128 135/2/128 136/2/128
f 131/3/127 130/3/127 129/3/127
f 130/3/127 131/3/127 133/3/127
f 133/2/127 131/2/127 132/2/127
f 133/2/127 132/2/127 134/2/127
f 105/3/103 106/3/104 107/3/105
f 106/3/104 105/3/103 108/3/106
f 109/3/107 110/3/108 111/3/109
f 110/3/108 109/3/107 112/3/110
f 113/3/111 112/3/110 109/3/107
f 112/3/110 113/3/111 114/3/112
f 115/2/113 109/2/107 111/2/109
f 109/2/107 115/2/113 116/2/114
f 109/2/107 117/2/115 113/2/111
f 117/2/115 109/2/107 116/2/114
f 108/1/106 118/1/116 119/1/117
f 118/1/116 108/1/106 105/1/103
f 112/3/110 118/3/116 110/3/108
f 118/3/116 112/3/110 119/3/117
f 106/3/104 117/3/115 116/3/114
f 117/3/115 106/3/104 120/3/118
f 108/3/106 120/3/118 106/3/104
f 120/3/118 108/3/106 121/3/119
f 114/3/112 119/3/117 112/3/110
f 119/3/117 114/3/112 122/3/120
f 118/1/116 123/1/121 124/1/122
f 123/1/121 118/1/116 105/1/103
f 110/3/108 124/3/122 125/3/123
f 124/3/122 110/3/108 118/3/116
f 126/2/124 111/2/109 127/2/125
f 111/2/109 126/2/124 115/2/113
f 123/3/121 107/3/105 128/3/126
f 107/3/105 123/3/121 105/3/103
f 121/1/119 119/1/117 122/1/120
f 119/1/117 121/1/119 108/1/106
f 107/3/105 116/3/114 115/3/113
f 116/3/114 107/3/105 106/3/104
f 111/3/109 125/3/123 127/3/125
f 125/3/123 111/3/109 110/3/108
f 128/3/126 115/3/113 126/3/124
f 115/3/113 128/3/126 107/3/105
f 123/1/127 129/1/127 124/1/127
f 129/3/127 123/3/127 128/3/127
f 130/1/127 124/1/127 129/1/127
f 129/3/127 128/3/127 131/3/127
f 131/3/127 128/3/127 132/3/127
f 132/3/127 128/3/127 126/3/127
f 124/3/127 130/3/127 125/3/127
f 125/3/127 130/3/127 133/3/127
f 132/2/127 126/2/127 134/2/127
f 125/3/127 133/3/127 134/3/127
f 127/2/127 134/2/127 126/2/127
f 125/3/127 134/3/127 127/3/127
f 135/3/128 113/3/128 136/3/128
f 136/2/128 113/2/128 137/2/128
f 135/3/128 114/3/128 113/3/128
f 117/2/128 137/2/128 113/2/128
f 117/3/128 138/3/128 137/3/128
f 120/3/128 138/3/128 117/3/128
f 120/3/128 139/3/128 138/3/128
f 139/3/128 120/3/128 121/3/128
f 140/3/128 114/3/128 135/3/128
f 121/1/128 140/1/128 139/1/128
f 140/3/128 122/3/128 114/3/128
f 122/1/128 140/1/128 121/1/128
f 141/3/129 142/3/130 143/3/129
f 142/3/130 141/3/129 144/3/130
f 145/2/131 144/2/131 141/2/131
f 144/2/131 145/2/131 146/2/131
f 147/3/132 141/3/129 143/3/129
f 141/3/129 147/3/132 145/3/132
f 144/3/130 148/3/133 142/3/130
f 148/3/133 144/3/130 146/3/133
f 148/3/133 145/3/132 147/3/132
f 145/3/132 148/3/133 146/3/133
f 149/3/134 150/3/135 151/3/135
f 150/3/135 149/3/134 152/3/134
f 153/3/136 149/3/134 154/3/136
f 149/3/134 153/3/136 152/3/134
f 155/2/137 152/2/137 153/2/137
f 152/2/137 155/2/137 150/2/137
f 155/3/138 154/3/136 156/3/138
f 154/3/136 155/3/138 153/3/136
f 151/3/135 155/3/138 156/3/138
f 155/3/138 151/3/135 150/3/135
f 140/3/128 138/3/128 139/3/128
f 138/3/128 140/3/128 135/3/128
f 138/2/128 135/2/128 137/2/128
f 137/2/128 135/2/128 136/2/128
f 131/3/127 130/3/127 129/3/127
f 130/3/127 131/3/127 133/3/127
f 133/2/127 131/2/127 132/2/127
f 133/2/127 132/2/127 134/2/127
