# wall_unfinished.obj — недостроенная стена: начатый остов и куча брёвен рядом
# Generated by tools/valley-assets/build_assets.py; see
# assets/valley/CREDITS.txt. Colors are cells of
# assets/valley/textures/valley_atlas.png — no materials here.
# Source: Kenney Nature Kit (CC0) — https://kenney.nl/assets/nature-kit
# Source: Kenney Survival Kit (CC0) — https://kenney.nl/assets/survival-kit
v -0.010290 0.000000 -1.077443
v 0.225000 0.000000 -1.312733
v 0.225000 0.000000 -1.077443
v -0.010290 0.000000 -1.312733
v 0.019121 2.200000 -1.283322
v 0.195589 2.200000 -1.283322
v 0.195589 2.200000 -1.106854
v 0.019121 2.200000 -1.106854
v -1.975000 0.000000 -1.077443
v -1.739710 0.000000 -1.312733
v -1.739710 0.000000 -1.077443
v -1.975000 0.000000 -1.312733
v -1.945589 2.200000 -1.283322
v -1.769121 2.200000 -1.283322
v -1.769121 2.200000 -1.106854
v -1.945589 2.200000 -1.106854
v -0.010290 0.000000 0.887267
v 0.225000 0.000000 0.651977
v 0.225000 0.000000 0.887267
v -0.010290 0.000000 0.651977
v 0.019121 2.200000 0.681388
v 0.195589 2.200000 0.681388
v 0.195589 2.200000 0.857856
v 0.019121 2.200000 0.857856
v -1.975000 0.000000 0.887267
v -1.739710 0.000000 0.651977
v -1.739710 0.000000 0.887267
v -1.975000 0.000000 0.651977
v -1.945589 2.200000 0.681388
v -1.769121 2.200000 0.681388
v -1.769121 2.200000 0.857856
v -1.945589 2.200000 0.857856
v -1.769121 1.995400 0.718472
v 0.019121 1.995400 0.820772
v 0.019121 1.995400 0.718472
v -1.769121 1.995400 0.820772
v -1.769121 1.790800 0.718472
v 0.019121 1.790800 0.718472
v -1.769121 1.790800 0.820772
v 0.019121 1.790800 0.820772
v 0.158505 1.995400 -1.106854
v 0.056205 1.995400 0.681388
v 0.158505 1.995400 0.681388
v 0.056205 1.995400 -1.106854
v 0.158505 1.790800 -1.106854
v 0.158505 1.790800 0.681388
v 0.056205 1.790800 -1.106854
v 0.056205 1.790800 0.681388
v -1.806205 1.995400 -1.106854
v -1.908505 1.995400 0.681388
v -1.806205 1.995400 0.681388
v -1.908505 1.995400 -1.106854
v -1.806205 1.790800 -1.106854
v -1.806205 1.790800 0.681388
v -1.908505 1.790800 -1.106854
v -1.908505 1.790800 0.681388
v -1.769121 1.995400 -1.246238
v 0.019121 1.995400 -1.143938
v 0.019121 1.995400 -1.246238
v -1.769121 1.995400 -1.143938
v -1.769121 1.790800 -1.246238
v 0.019121 1.790800 -1.246238
v -1.769121 1.790800 -1.143938
v 0.019121 1.790800 -1.143938
v 1.913028 0.268346 -0.994157
v -0.163028 0.000000 -0.839228
v -0.163028 0.268346 -0.994157
v 1.913028 0.000000 -0.839228
v 1.913028 0.000000 -0.529369
v -0.163028 0.000000 -0.529369
v 0.243053 0.458967 -0.884102
v 0.268474 0.445550 -1.070745
v 0.243053 0.346070 -0.949283
v 0.268474 0.514417 -1.030985
v 0.373415 0.346070 -0.949283
v 0.347995 0.445550 -1.070745
v 1.913028 0.092516 -0.785814
v 1.913028 0.268346 -0.887329
v 1.913028 0.536692 -0.839228
v 1.913028 0.444176 -0.785814
v 1.913028 0.444176 -0.582783
v 1.913028 0.092516 -0.582783
v 1.913028 0.268346 -0.374439
v 1.913028 0.268346 -0.481267
v 1.913028 0.536692 -0.529369
v 1.423344 0.875857 -0.766751
v 1.287170 0.941342 -0.808668
v 1.387310 0.941342 -0.830137
v 1.280286 0.875857 -0.736082
v 0.373415 0.458967 -0.884102
v 0.347995 0.514417 -1.030985
v -0.163028 0.091193 -0.582019
v -0.163028 0.268346 -0.374439
v -0.163028 0.268346 -0.479740
v -0.163028 0.536692 -0.529369
v -0.163028 0.445498 -0.582019
v -0.163028 0.445498 -0.786577
v -0.163028 0.091193 -0.786577
v -0.163028 0.268346 -0.888857
v -0.163028 0.536692 -0.839228
v 1.295620 1.002564 -0.664553
v 1.297904 1.030037 -0.758598
v 1.860492 0.536692 -0.743835
v 1.871689 0.629208 -0.691607
v 1.906470 0.536692 -0.529369
v 1.828016 0.805038 -0.895322
v 1.850409 0.805038 -0.790867
v 1.860492 1.073384 -0.743835
v 1.871689 0.980867 -0.691607
v 1.914248 0.980867 -0.493087
v 1.914248 0.629208 -0.493087
v 1.957921 0.805038 -0.289372
v 1.925445 0.536692 -0.440860
v 1.935528 0.805038 -0.393827
v 1.925445 1.073384 -0.440860
v -0.104488 0.536692 -0.005680
v -0.169441 0.536692 -0.308655
v -0.150330 0.536692 -0.219510
v -0.115525 0.627885 -0.057160
v -0.072012 0.805038 0.145808
v -0.094085 0.805038 0.042846
v -0.104488 1.073384 -0.005680
v -0.115525 0.982190 -0.057160
v -0.158404 0.982190 -0.257174
v -0.158404 0.627885 -0.257174
v -0.201917 0.805038 -0.460142
v -0.179844 0.805038 -0.357181
v -0.169441 1.073384 -0.308655
v 1.398044 1.030037 -0.780067
v -0.225000 0.000000 0.090350
v -0.225000 0.091193 0.037699
v -0.225000 0.000000 -0.219509
v -0.225000 0.268346 0.245279
v -0.225000 0.268346 0.139978
v -0.225000 0.536692 0.090350
v -0.225000 0.445499 0.037699
v -0.225000 0.445499 -0.166859
v -0.225000 0.091193 -0.166859
v -0.225000 0.268346 -0.374439
v -0.225000 0.268346 -0.269138
v -0.225000 0.536692 -0.219509
v 1.975000 0.000000 -0.219509
v 1.975000 0.268346 -0.374439
v 1.438678 1.002564 -0.695222
v 1.975000 0.000000 0.090350
v 1.975000 0.268346 0.245279
v 0.860097 0.536692 -0.529369
v 0.892939 0.536692 -0.219510
v 1.975000 0.092516 -0.166095
v 1.975000 0.268346 -0.267611
v 1.975000 0.536692 -0.219509
v 1.975000 0.444176 -0.166095
v 1.975000 0.444176 0.036936
v 1.975000 0.092516 0.036936
v 1.975000 0.268346 0.138451
v 1.975000 0.536692 0.090350
v 1.284429 0.367864 0.619216
v 1.267853 0.423520 0.749403
v 1.286184 0.308332 0.685476
v 1.271597 0.448495 0.663965
v -0.319077 0.000000 0.626069
v -0.305884 0.082903 0.580060
v -0.241432 0.000000 0.355291
v -0.357899 0.243951 0.761458
v -0.331513 0.243951 0.669439
v -0.319077 0.487902 0.626069
v -0.305884 0.404999 0.580060
v -0.254626 0.404999 0.401301
v -0.254626 0.082903 0.401301
v -0.202610 0.243951 0.219902
v -0.228997 0.243951 0.311922
v -0.241432 0.487902 0.355291
v 1.603447 0.000000 1.177344
v 1.564624 0.243951 1.312733
v 0.192619 0.417243 0.815234
v 0.123635 0.405046 0.971968
v 0.176286 0.314609 0.872195
v 0.133598 0.467652 0.937222
v 1.194930 0.367864 0.593552
v 1.158329 0.308332 0.648814
v 0.062365 0.314609 0.839528
v 0.054144 0.405046 0.952042
v 1.182098 0.448495 0.638302
v 1.139998 0.423520 0.712742
v 0.078698 0.417243 0.782568
v 0.064107 0.467652 0.917296
v 1.681091 0.000000 0.906566
v 1.667706 0.084105 0.953243
v 1.719913 0.243951 0.771177
v 1.693144 0.243951 0.864532
v 1.681091 0.487902 0.906566
v 1.667706 0.403796 0.953243
v 1.616831 0.403796 1.130667
v 1.616831 0.084105 1.130667
v 1.591393 0.243951 1.219379
v 1.603447 0.487902 1.177344
v -0.267106 0.243951 0.649216
v -0.205596 0.115112 0.434706
v -0.246602 0.115112 0.577713
v -0.185093 0.243951 0.363203
v -0.246602 0.372789 0.577713
v -0.205596 0.372789 0.434706
v 1.628813 0.243951 0.884488
v 1.608463 0.116075 0.955457
v 1.547413 0.243951 1.168365
v 1.567763 0.371827 1.097396
v 1.608463 0.371827 0.955457
v 1.567763 0.116075 1.097396
vt 0.093750 0.968750
vt 0.093750 0.843750
vt 0.156250 0.906250
vn 0.000000 -1.000000 0.000000
vn 0.000000 0.013368 -0.999911
vn 0.000000 0.013368 0.999911
vn 0.999911 0.013368 0.000000
vn -0.999911 0.013368 0.000000
vn 0.000000 1.000000 0.000000
vn 0.000000 0.000000 -1.000000
vn 0.000000 0.000000 1.000000
vn 1.000000 0.000000 0.000000
vn -1.000000 0.000000 0.000000
vn 0.000000 -0.500000 -0.866025
vn -0.986805 0.080956 -0.140221
vn 0.000000 -0.773640 -0.633625
vn -0.143717 -0.727968 -0.670379
vn 0.986805 0.080956 -0.140221
vn 0.000000 0.935555 0.353182
vn -0.993334 0.114887 0.009441
vn 0.977783 0.000000 -0.209619
vn -0.977783 0.000000 0.209619
vn -0.181535 0.500000 -0.846785
vn 0.060293 0.957741 0.281243
vn 0.000000 -0.500000 0.866025
vn -0.181535 -0.500000 -0.846785
vn 0.909911 0.114885 -0.398576
vn 0.181535 0.500000 0.846785
vn 0.000000 0.500000 0.866026
vn 0.000000 0.500000 -0.866026
vn 0.181535 -0.500000 0.846785
vn 0.000000 0.500001 -0.866025
vn 0.990391 0.114885 0.076984
vn -0.961262 0.000000 -0.275637
vn -0.238709 -0.500000 0.832477
vn 0.909928 0.080956 0.406789
vn 0.188980 -0.727968 -0.659052
vn -0.174651 -0.773640 0.609079
vn 0.238709 0.500001 -0.832477
vn -0.880693 0.114887 -0.459544
vn -0.987228 0.080956 -0.137212
vn 0.961262 0.000000 0.275637
vn 0.238709 -0.500000 -0.832477
vn -0.238709 0.500001 0.832477
vn -0.079282 0.957741 0.276491
vn -0.238709 0.500000 0.832477
vn 0.097350 0.935555 -0.339500
vn 0.238709 0.500000 -0.832477
vn -0.990391 -0.114885 -0.076984
vn 0.266798 0.434865 0.860065
vn -0.266798 -0.434865 -0.860065
vn -0.909928 -0.080956 -0.406789
vn -0.188980 0.727968 0.659052
vn 0.174651 0.773640 -0.609079
vn 0.682022 -0.434865 -0.587995
vn -0.682022 0.434865 0.587995
vn 0.474410 -0.869730 0.136035
vn -0.474410 0.869730 -0.136035
vn -0.238709 -0.500001 0.832477
vn 0.880693 -0.114887 0.459544
vn -0.684335 -0.434067 0.585894
vn 0.684335 0.434067 -0.585894
vn 0.987228 -0.080956 0.137212
vn 0.474410 0.869730 0.136035
vn -0.474410 -0.869730 -0.136035
vn 0.266798 -0.434865 0.860065
vn -0.266798 0.434865 -0.860065
vn -0.684334 0.434067 0.585895
vn 0.684334 -0.434067 -0.585895
vn -0.477106 -0.868132 -0.136808
vn 0.477106 0.868132 0.136808
vn -0.477103 0.868134 -0.136807
vn 0.477103 -0.868134 0.136807
vn 0.238709 -0.500001 -0.832477
vn 0.079282 -0.957741 -0.276491
vn -0.269872 -0.434067 -0.859509
vn 0.269872 0.434067 0.859509
vn -0.269871 0.434067 -0.859509
vn 0.269871 -0.434067 0.859509
vn 0.682022 0.434865 -0.587995
vn -0.682022 -0.434865 0.587995
vn -0.097350 -0.935555 0.339500
f 1/1/1 2/1/1 3/1/1
f 2/1/1 1/1/1 4/1/1
f 5/2/2 2/2/2 4/2/2
f 2/2/2 5/2/2 6/2/2
f 7/2/3 1/2/3 3/2/3
f 1/2/3 7/2/3 8/2/3
f 6/2/4 3/2/4 2/2/4
f 3/2/4 6/2/4 7/2/4
f 1/2/5 5/2/5 4/2/5
f 5/2/5 1/2/5 8/2/5
f 5/3/6 7/3/6 6/3/6
f 7/3/6 5/3/6 8/3/6
f 9/1/1 10/1/1 11/1/1
f 10/1/1 9/1/1 12/1/1
f 13/2/2 10/2/2 12/2/2
f 10/2/2 13/2/2 14/2/2
f 15/2/3 9/2/3 11/2/3
f 9/2/3 15/2/3 16/2/3
f 14/2/4 11/2/4 10/2/4
f 11/2/4 14/2/4 15/2/4
f 9/2/5 13/2/5 12/2/5
f 13/2/5 9/2/5 16/2/5
f 13/3/6 15/3/6 14/3/6
f 15/3/6 13/3/6 16/3/6
f 17/1/1 18/1/1 19/1/1
f 18/1/1 17/1/1 20/1/1
f 21/2/2 18/2/2 20/2/2
f 18/2/2 21/2/2 22/2/2
f 23/2/3 17/2/3 19/2/3
f 17/2/3 23/2/3 24/2/3
f 22/2/4 19/2/4 18/2/4
f 19/2/4 22/2/4 23/2/4
f 17/2/5 21/2/5 20/2/5
f 21/2/5 17/2/5 24/2/5
f 21/3/6 23/3/6 22/3/6
f 23/3/6 21/3/6 24/3/6
f 25/1/1 26/1/1 27/1/1
f 26/1/1 25/1/1 28/1/1
f 29/2/2 26/2/2 28/2/2
f 26/2/2 29/2/2 30/2/2
f 31/2/3 25/2/3 27/2/3
f 25/2/3 31/2/3 32/2/3
f 30/2/4 27/2/4 26/2/4
f 27/2/4 30/2/4 31/2/4
f 25/2/5 29/2/5 28/2/5
f 29/2/5 25/2/5 32/2/5
f 29/3/6 31/3/6 30/3/6
f 31/3/6 29/3/6 32/3/6
f 33/2/6 34/2/6 35/2/6
f 34/2/6 33/2/6 36/2/6
f 37/2/7 35/2/7 38/2/7
f 35/2/7 37/2/7 33/2/7
f 34/2/8 39/2/8 40/2/8
f 39/2/8 34/2/8 36/2/8
f 39/2/1 38/2/1 40/2/1
f 38/2/1 39/2/1 37/2/1
f 41/2/6 42/2/6 43/2/6
f 42/2/6 41/2/6 44/2/6
f 45/2/9 43/2/9 46/2/9
f 43/2/9 45/2/9 41/2/9
f 42/2/10 47/2/10 48/2/10
f 47/2/10 42/2/10 44/2/10
f 47/2/1 46/2/1 48/2/1
f 46/2/1 47/2/1 45/2/1
f 49/2/6 50/2/6 51/2/6
f 50/2/6 49/2/6 52/2/6
f 53/2/9 51/2/9 54/2/9
f 51/2/9 53/2/9 49/2/9
f 50/2/10 55/2/10 56/2/10
f 55/2/10 50/2/10 52/2/10
f 55/2/1 54/2/1 56/2/1
f 54/2/1 55/2/1 53/2/1
f 57/2/6 58/2/6 59/2/6
f 58/2/6 57/2/6 60/2/6
f 61/2/7 59/2/7 62/2/7
f 59/2/7 61/2/7 57/2/7
f 58/2/8 63/2/8 64/2/8
f 63/2/8 58/2/8 60/2/8
f 63/2/1 62/2/1 64/2/1
f 62/2/1 63/2/1 61/2/1
f 1/1/1 2/1/1 3/1/1
f 2/1/1 1/1/1 4/1/1
f 5/2/2 2/2/2 4/2/2
f 2/2/2 5/2/2 6/2/2
f 7/2/3 1/2/3 3/2/3
f 1/2/3 7/2/3 8/2/3
f 6/2/4 3/2/4 2/2/4
f 3/2/4 6/2/4 7/2/4
f 1/2/5 5/2/5 4/2/5
f 5/2/5 1/2/5 8/2/5
f 5/3/6 7/3/6 6/3/6
f 7/3/6 5/3/6 8/3/6
f 9/1/1 10/1/1 11/1/1
f 10/1/1 9/1/1 12/1/1
f 13/2/2 10/2/2 12/2/2
f 10/2/2 13/2/2 14/2/2
f 15/2/3 9/2/3 11/2/3
f 9/2/3 15/2/3 16/2/3
f 14/2/4 11/2/4 10/2/4
f 11/2/4 14/2/4 15/2/4
f 9/2/5 13/2/5 12/2/5
f 13/2/5 9/2/5 16/2/5
f 13/3/6 15/3/6 14/3/6
f 15/3/6 13/3/6 16/3/6
f 17/1/1 18/1/1 19/1/1
f 18/1/1 17/1/1 20/1/1
f 21/2/2 18/2/2 20/2/2
f 18/2/2 21/2/2 22/2/2
f 23/2/3 17/2/3 19/2/3
f 17/2/3 23/2/3 24/2/3
f 22/2/4 19/2/4 18/2/4
f 19/2/4 22/2/4 23/2/4
f 17/2/5 21/2/5 20/2/5
f 21/2/5 17/2/5 24/2/5
f 21/3/6 23/3/6 22/3/6
f 23/3/6 21/3/6 24/3/6
f 25/1/1 26/1/1 27/1/1
f 26/1/1 25/1/1 28/1/1
f 29/2/2 26/2/2 28/2/2
f 26/2/2 29/2/2 30/2/2
f 31/2/3 25/2/3 27/2/3
f 25/2/3 31/2/3 32/2/3
f 30/2/4 27/2/4 26/2/4
f 27/2/4 30/2/4 31/2/4
f 25/2/5 29/2/5 28/2/5
f 29/2/5 25/2/5 32/2/5
f 29/3/6 31/3/6 30/3/6
f 31/3/6 29/3/6 32/3/6
f 33/2/6 34/2/6 35/2/6
f 34/2/6 33/2/6 36/2/6
f 37/2/7 35/2/7 38/2/7
f 35/2/7 37/2/7 33/2/7
f 34/2/8 39/2/8 40/2/8
f 39/2/8 34/2/8 36/2/8
f 39/2/1 38/2/1 40/2/1
f 38/2/1 39/2/1 37/2/1
f 41/2/6 42/2/6 43/2/6
f 42/2/6 41/2/6 44/2/6
f 45/2/9 43/2/9 46/2/9
f 43/2/9 45/2/9 41/2/9
f 42/2/10 47/2/10 48/2/10
f 47/2/10 42/2/10 44/2/10
f 47/2/1 46/2/1 48/2/1
f 46/2/1 47/2/1 45/2/1
f 49/2/6 50/2/6 51/2/6
f 50/2/6 49/2/6 52/2/6
f 53/2/9 51/2/9 54/2/9
f 51/2/9 53/2/9 49/2/9
f 50/2/10 55/2/10 56/2/10
f 55/2/10 50/2/10 52/2/10
f 55/2/1 54/2/1 56/2/1
f 54/2/1 55/2/1 53/2/1
f 57/2/6 58/2/6 59/2/6
f 58/2/6 57/2/6 60/2/6
f 61/2/7 59/2/7 62/2/7
f 59/2/7 61/2/7 57/2/7
f 58/2/8 63/2/8 64/2/8
f 63/2/8 58/2/8 60/2/8
f 63/2/1 62/2/1 64/2/1
f 62/2/1 63/2/1 61/2/1
f 65/1/11 66/1/11 67/1/11
f 66/1/11 65/1/11 68/1/11
f 69/1/1 66/1/1 68/1/1
f 66/1/1 69/1/1 70/1/1
f 71/1/12 72/1/12 73/1/12
f 72/1/12 71/1/12 74/1/12
f 75/1/13 72/1/13 76/1/13
f 72/1/13 75/1/13 73/1/13
f 68/1/9 77/1/9 69/1/9
f 77/1/9 68/1/9 65/1/9
f 77/1/9 65/1/9 78/1/9
f 78/1/9 65/1/9 79/1/9
f 78/1/9 79/1/9 80/1/9
f 80/1/9 79/1/9 81/1/9
f 82/1/9 69/1/9 77/1/9
f 69/1/9 82/1/9 83/1/9
f 83/1/9 82/1/9 84/1/9
f 83/1/9 84/1/9 81/1/9
f 83/1/9 81/1/9 85/1/9
f 85/1/9 81/1/9 79/1/9
f 86/1/14 87/1/14 88/1/14
f 87/1/14 86/1/14 89/1/14
f 76/1/15 90/1/15 75/1/15
f 90/1/15 76/1/15 91/1/15
f 71/1/16 91/1/16 74/1/16
f 91/1/16 71/1/16 90/1/16
f 70/1/10 92/1/10 66/1/10
f 92/1/10 70/1/10 93/1/10
f 92/1/10 93/1/10 94/1/10
f 94/1/10 93/1/10 95/1/10
f 94/1/10 95/1/10 96/1/10
f 96/1/10 95/1/10 97/1/10
f 98/1/10 66/1/10 92/1/10
f 66/1/10 98/1/10 67/1/10
f 67/1/10 98/1/10 99/1/10
f 67/1/10 99/1/10 97/1/10
f 67/1/10 97/1/10 100/1/10
f 100/1/10 97/1/10 95/1/10
f 101/1/17 87/1/17 89/1/17
f 87/1/17 101/1/17 102/1/17
f 103/1/18 104/1/18 105/1/18
f 104/1/18 103/1/18 106/1/18
f 104/1/18 106/1/18 107/1/18
f 107/1/18 106/1/18 108/1/18
f 107/1/18 108/1/18 109/1/18
f 109/1/18 108/1/18 110/1/18
f 111/1/18 105/1/18 104/1/18
f 112/1/18 105/1/18 111/1/18
f 105/1/18 112/1/18 113/1/18
f 112/1/18 111/1/18 114/1/18
f 112/1/18 114/1/18 110/1/18
f 112/1/18 110/1/18 115/1/18
f 115/1/18 110/1/18 108/1/18
f 116/1/19 117/1/19 118/1/19
f 117/1/19 116/1/19 119/1/19
f 119/1/19 116/1/19 120/1/19
f 119/1/19 120/1/19 121/1/19
f 121/1/19 120/1/19 122/1/19
f 121/1/19 122/1/19 123/1/19
f 123/1/19 122/1/19 124/1/19
f 125/1/19 117/1/19 119/1/19
f 117/1/19 125/1/19 126/1/19
f 126/1/19 125/1/19 127/1/19
f 126/1/19 127/1/19 124/1/19
f 126/1/19 124/1/19 128/1/19
f 128/1/19 124/1/19 122/1/19
f 102/1/20 88/1/20 87/1/20
f 88/1/20 102/1/20 129/1/20
f 130/1/10 131/1/10 132/1/10
f 131/1/10 130/1/10 133/1/10
f 131/1/10 133/1/10 134/1/10
f 134/1/10 133/1/10 135/1/10
f 134/1/10 135/1/10 136/1/10
f 136/1/10 135/1/10 137/1/10
f 138/1/10 132/1/10 131/1/10
f 132/1/10 138/1/10 139/1/10
f 139/1/10 138/1/10 140/1/10
f 139/1/10 140/1/10 137/1/10
f 139/1/10 137/1/10 141/1/10
f 141/1/10 137/1/10 135/1/10
f 93/1/11 132/1/11 139/1/11
f 132/1/11 93/1/11 142/1/11
f 142/1/11 93/1/11 83/1/11
f 142/1/11 83/1/11 143/1/11
f 128/1/6 115/1/6 108/1/6
f 115/1/6 128/1/6 122/1/6
f 102/1/21 144/1/21 129/1/21
f 144/1/21 102/1/21 101/1/21
f 145/1/22 133/1/22 130/1/22
f 133/1/22 145/1/22 146/1/22
f 113/1/1 147/1/1 105/1/1
f 147/1/1 113/1/1 117/1/1
f 117/1/1 113/1/1 148/1/1
f 117/1/1 148/1/1 118/1/1
f 106/1/23 117/1/23 126/1/23
f 117/1/23 106/1/23 147/1/23
f 147/1/23 106/1/23 103/1/23
f 88/1/24 144/1/24 86/1/24
f 144/1/24 88/1/24 129/1/24
f 142/1/9 149/1/9 145/1/9
f 149/1/9 142/1/9 143/1/9
f 149/1/9 143/1/9 150/1/9
f 150/1/9 143/1/9 151/1/9
f 150/1/9 151/1/9 152/1/9
f 152/1/9 151/1/9 153/1/9
f 154/1/9 145/1/9 149/1/9
f 145/1/9 154/1/9 146/1/9
f 146/1/9 154/1/9 155/1/9
f 146/1/9 155/1/9 153/1/9
f 146/1/9 153/1/9 156/1/9
f 156/1/9 153/1/9 151/1/9
f 120/1/25 115/1/25 122/1/25
f 115/1/25 120/1/25 112/1/25
f 146/1/26 135/1/26 133/1/26
f 135/1/26 146/1/26 156/1/26
f 141/1/6 116/1/6 118/1/6
f 116/1/6 141/1/6 135/1/6
f 156/1/6 116/1/6 135/1/6
f 151/1/6 116/1/6 156/1/6
f 116/1/6 151/1/6 148/1/6
f 118/1/27 139/1/27 141/1/27
f 139/1/27 118/1/27 93/1/27
f 93/1/27 118/1/27 83/1/27
f 83/1/27 118/1/27 148/1/27
f 83/1/27 148/1/27 151/1/27
f 83/1/27 151/1/27 143/1/27
f 128/1/20 101/1/20 89/1/20
f 101/1/20 128/1/20 108/1/20
f 101/1/20 108/1/20 144/1/20
f 144/1/20 108/1/20 106/1/20
f 126/1/20 89/1/20 106/1/20
f 89/1/20 126/1/20 128/1/20
f 106/1/20 89/1/20 86/1/20
f 106/1/20 86/1/20 144/1/20
f 145/1/1 132/1/1 142/1/1
f 132/1/1 145/1/1 130/1/1
f 148/1/28 120/1/28 116/1/28
f 120/1/28 148/1/28 112/1/28
f 112/1/28 148/1/28 113/1/28
f 69/1/22 93/1/22 70/1/22
f 93/1/22 69/1/22 83/1/22
f 83/1/26 95/1/26 93/1/26
f 95/1/26 83/1/26 147/1/26
f 147/1/26 83/1/26 105/1/26
f 105/1/26 83/1/26 85/1/26
f 95/1/6 79/1/6 100/1/6
f 79/1/6 95/1/6 103/1/6
f 103/1/6 95/1/6 147/1/6
f 103/1/6 85/1/6 79/1/6
f 85/1/6 103/1/6 105/1/6
f 91/1/29 72/1/29 74/1/29
f 72/1/29 91/1/29 76/1/29
f 100/1/27 71/1/27 67/1/27
f 71/1/27 100/1/27 79/1/27
f 71/1/27 79/1/27 90/1/27
f 90/1/27 79/1/27 75/1/27
f 73/1/27 67/1/27 71/1/27
f 67/1/27 73/1/27 65/1/27
f 65/1/27 73/1/27 75/1/27
f 65/1/27 75/1/27 79/1/27
f 134/3/10 138/3/10 131/3/10
f 138/3/10 134/3/10 140/3/10
f 140/3/10 134/3/10 136/3/10
f 140/3/10 136/3/10 137/3/10
f 107/3/18 111/3/18 104/3/18
f 111/3/18 107/3/18 114/3/18
f 114/3/18 107/3/18 109/3/18
f 114/3/18 109/3/18 110/3/18
f 121/3/19 125/3/19 119/3/19
f 125/3/19 121/3/19 127/3/19
f 127/3/19 121/3/19 123/3/19
f 127/3/19 123/3/19 124/3/19
f 150/3/9 154/3/9 149/3/9
f 154/3/9 150/3/9 155/3/9
f 155/3/9 150/3/9 152/3/9
f 155/3/9 152/3/9 153/3/9
f 94/3/10 98/3/10 92/3/10
f 98/3/10 94/3/10 99/3/10
f 99/3/10 94/3/10 96/3/10
f 99/3/10 96/3/10 97/3/10
f 78/3/9 82/3/9 77/3/9
f 82/3/9 78/3/9 84/3/9
f 84/3/9 78/3/9 80/3/9
f 84/3/9 80/3/9 81/3/9
f 157/1/30 158/1/30 159/1/30
f 158/1/30 157/1/30 160/1/30
f 161/1/31 162/1/31 163/1/31
f 162/1/31 161/1/31 164/1/31
f 162/1/31 164/1/31 165/1/31
f 165/1/31 164/1/31 166/1/31
f 165/1/31 166/1/31 167/1/31
f 167/1/31 166/1/31 168/1/31
f 169/1/31 163/1/31 162/1/31
f 163/1/31 169/1/31 170/1/31
f 170/1/31 169/1/31 171/1/31
f 170/1/31 171/1/31 168/1/31
f 170/1/31 168/1/31 172/1/31
f 172/1/31 168/1/31 166/1/31
f 173/1/32 164/1/32 161/1/32
f 164/1/32 173/1/32 174/1/32
f 175/1/33 176/1/33 177/1/33
f 176/1/33 175/1/33 178/1/33
f 159/1/34 179/1/34 157/1/34
f 179/1/34 159/1/34 180/1/34
f 176/1/35 181/1/35 177/1/35
f 181/1/35 176/1/35 182/1/35
f 160/1/36 179/1/36 183/1/36
f 179/1/36 160/1/36 157/1/36
f 184/1/37 179/1/37 180/1/37
f 179/1/37 184/1/37 183/1/37
f 182/1/38 185/1/38 181/1/38
f 185/1/38 182/1/38 186/1/38
f 187/1/39 188/1/39 173/1/39
f 188/1/39 187/1/39 189/1/39
f 188/1/39 189/1/39 190/1/39
f 190/1/39 189/1/39 191/1/39
f 190/1/39 191/1/39 192/1/39
f 192/1/39 191/1/39 193/1/39
f 194/1/39 173/1/39 188/1/39
f 173/1/39 194/1/39 174/1/39
f 174/1/39 194/1/39 195/1/39
f 174/1/39 195/1/39 193/1/39
f 174/1/39 193/1/39 196/1/39
f 196/1/39 193/1/39 191/1/39
f 189/1/40 163/1/40 170/1/40
f 163/1/40 189/1/40 187/1/40
f 176/1/41 186/1/41 182/1/41
f 186/1/41 176/1/41 178/1/41
f 184/1/42 160/1/42 183/1/42
f 160/1/42 184/1/42 158/1/42
f 166/1/6 191/1/6 172/1/6
f 191/1/6 166/1/6 196/1/6
f 173/1/1 163/1/1 187/1/1
f 163/1/1 173/1/1 161/1/1
f 164/1/43 181/1/43 166/1/43
f 181/1/43 164/1/43 174/1/43
f 181/1/43 174/1/43 177/1/43
f 177/1/43 174/1/43 175/1/43
f 185/1/43 166/1/43 181/1/43
f 166/1/43 185/1/43 196/1/43
f 196/1/43 185/1/43 175/1/43
f 196/1/43 175/1/43 174/1/43
f 186/1/44 175/1/44 185/1/44
f 175/1/44 186/1/44 178/1/44
f 172/1/45 184/1/45 170/1/45
f 184/1/45 172/1/45 191/1/45
f 184/1/45 191/1/45 158/1/45
f 158/1/45 191/1/45 159/1/45
f 180/1/45 170/1/45 184/1/45
f 170/1/45 180/1/45 189/1/45
f 189/1/45 180/1/45 159/1/45
f 189/1/45 159/1/45 191/1/45
f 159/3/46 158/3/46 157/3/46
f 160/3/46 157/3/46 158/3/46
f 197/3/31 198/3/31 199/3/31
f 198/3/31 197/3/31 200/3/31
f 200/3/31 197/3/31 201/3/31
f 200/3/31 201/3/31 202/3/31
f 199/3/39 198/3/39 197/3/39
f 200/3/39 197/3/39 198/3/39
f 201/3/39 197/3/39 200/3/39
f 202/3/39 201/3/39 200/3/39
f 188/3/47 203/3/47 204/3/47
f 203/3/47 188/3/47 190/3/47
f 204/3/48 203/3/48 188/3/48
f 190/3/48 188/3/48 203/3/48
f 163/3/39 162/3/39 161/3/39
f 164/3/39 161/3/39 162/3/39
f 165/3/39 164/3/39 162/3/39
f 166/3/39 164/3/39 165/3/39
f 167/3/39 166/3/39 165/3/39
f 168/3/39 166/3/39 167/3/39
f 162/3/39 163/3/39 169/3/39
f 170/3/39 169/3/39 163/3/39
f 171/3/39 169/3/39 170/3/39
f 168/3/39 171/3/39 170/3/39
f 172/3/39 168/3/39 170/3/39
f 166/3/39 168/3/39 172/3/39
f 161/3/45 164/3/45 173/3/45
f 174/3/45 173/3/45 164/3/45
f 177/3/49 176/3/49 175/3/49
f 178/3/49 175/3/49 176/3/49
f 157/3/50 179/3/50 159/3/50
f 180/3/50 159/3/50 179/3/50
f 177/3/51 181/3/51 176/3/51
f 182/3/51 176/3/51 181/3/51
f 193/3/52 205/3/52 206/3/52
f 205/3/52 193/3/52 195/3/52
f 206/3/53 205/3/53 193/3/53
f 195/3/53 193/3/53 205/3/53
f 193/3/54 207/3/54 192/3/54
f 207/3/54 193/3/54 206/3/54
f 192/3/55 207/3/55 193/3/55
f 206/3/55 193/3/55 207/3/55
f 183/3/56 179/3/56 160/3/56
f 157/3/56 160/3/56 179/3/56
f 180/3/57 179/3/57 184/3/57
f 183/3/57 184/3/57 179/3/57
f 200/3/58 168/3/58 171/3/58
f 168/3/58 200/3/58 202/3/58
f 171/3/59 168/3/59 200/3/59
f 202/3/59 200/3/59 168/3/59
f 181/3/60 185/3/60 182/3/60
f 186/3/60 182/3/60 185/3/60
f 173/3/31 188/3/31 187/3/31
f 189/3/31 187/3/31 188/3/31
f 190/3/31 189/3/31 188/3/31
f 191/3/31 189/3/31 190/3/31
f 192/3/31 191/3/31 190/3/31
f 193/3/31 191/3/31 192/3/31
f 188/3/31 173/3/31 194/3/31
f 174/3/31 194/3/31 173/3/31
f 195/3/31 194/3/31 174/3/31
f 193/3/31 195/3/31 174/3/31
f 196/3/31 193/3/31 174/3/31
f 191/3/31 193/3/31 196/3/31
f 204/3/61 194/3/61 188/3/61
f 194/3/61 204/3/61 208/3/61
f 188/3/62 194/3/62 204/3/62
f 208/3/62 204/3/62 194/3/62
f 190/3/63 207/3/63 203/3/63
f 207/3/63 190/3/63 192/3/63
f 203/3/64 207/3/64 190/3/64
f 192/3/64 190/3/64 207/3/64
f 198/3/65 171/3/65 169/3/65
f 171/3/65 198/3/65 200/3/65
f 169/3/66 171/3/66 198/3/66
f 200/3/66 198/3/66 171/3/66
f 202/3/67 167/3/67 168/3/67
f 167/3/67 202/3/67 201/3/67
f 168/3/68 167/3/68 202/3/68
f 201/3/68 202/3/68 167/3/68
f 162/3/69 198/3/69 169/3/69
f 198/3/69 162/3/69 199/3/69
f 169/3/70 198/3/70 162/3/70
f 199/3/70 162/3/70 198/3/70
f 170/3/43 163/3/43 189/3/43
f 187/3/43 189/3/43 163/3/43
f 203/3/39 208/3/39 204/3/39
f 208/3/39 203/3/39 205/3/39
f 205/3/39 203/3/39 207/3/39
f 205/3/39 207/3/39 206/3/39
f 204/3/31 208/3/31 203/3/31
f 205/3/31 203/3/31 208/3/31
f 207/3/31 203/3/31 205/3/31
f 206/3/31 207/3/31 205/3/31
f 182/3/71 186/3/71 176/3/71
f 178/3/71 176/3/71 186/3/71
f 183/3/72 160/3/72 184/3/72
f 158/3/72 184/3/72 160/3/72
f 201/3/73 165/3/73 167/3/73
f 165/3/73 201/3/73 197/3/73
f 167/3/74 165/3/74 201/3/74
f 197/3/74 201/3/74 165/3/74
f 197/3/75 162/3/75 165/3/75
f 162/3/75 197/3/75 199/3/75
f 165/3/76 162/3/76 197/3/76
f 199/3/76 197/3/76 162/3/76
f 172/3/1 191/3/1 166/3/1
f 196/3/1 166/3/1 191/3/1
f 187/3/6 163/3/6 173/3/6
f 161/3/6 173/3/6 163/3/6
f 166/3/40 181/3/40 164/3/40
f 174/3/40 164/3/40 181/3/40
f 177/3/40 174/3/40 181/3/40
f 175/3/40 174/3/40 177/3/40
f 181/3/40 166/3/40 185/3/40
f 196/3/40 185/3/40 166/3/40
f 175/3/40 185/3/40 196/3/40
f 174/3/40 175/3/40 196/3/40
f 195/3/77 208/3/77 205/3/77
f 208/3/77 195/3/77 194/3/77
f 205/3/78 208/3/78 195/3/78
f 194/3/78 195/3/78 208/3/78
f 185/3/79 175/3/79 186/3/79
f 178/3/79 186/3/79 175/3/79
f 170/3/32 184/3/32 172/3/32
f 191/3/32 172/3/32 184/3/32
f 158/3/32 191/3/32 184/3/32
f 159/3/32 191/3/32 158/3/32
f 184/3/32 170/3/32 180/3/32
f 189/3/32 180/3/32 170/3/32
f 159/3/32 180/3/32 189/3/32
f 191/3/32 159/3/32 189/3/32
