# boulder_small.obj — валун, малый
# Generated by tools/valley-assets/build_assets.py; see
# assets/valley/CREDITS.txt. Colors are cells of
# assets/valley/textures/valley_atlas.png — no materials here.
# Source: Kenney Nature Kit (CC0) — https://kenney.nl/assets/nature-kit
v -0.006884 0.343000 -0.164696
v 0.164696 0.343000 0.164696
v 0.164696 0.343000 0.062180
v 0.111535 0.343000 0.164696
v -0.164696 0.343000 0.084896
v -0.063571 0.343000 -0.164696
v -0.164696 0.343000 0.042759
v 0.350000 0.000000 0.350000
v 0.350000 0.000000 0.000000
v 0.085305 0.000000 -0.350000
v 0.085305 0.000000 0.350000
v -0.179391 0.000000 -0.350000
v -0.350000 0.000000 0.224245
v -0.350000 0.000000 0.000000
vt 0.093750 0.593750
vn 0.000000 1.000000 0.000000
vn 0.879816 0.475315 0.000000
vn 0.701734 0.475315 -0.530702
vn 0.000000 0.475315 0.879816
vn 0.000000 0.475315 -0.879816
vn 0.000000 -1.000000 0.000000
vn -0.790860 0.475315 -0.385509
vn -0.879816 0.475315 0.000000
vn -0.244185 0.475315 0.845251
f 1/1/1 2/1/1 3/1/1
f 2/1/1 1/1/1 4/1/1
f 4/1/1 1/1/1 5/1/1
f 5/1/1 1/1/1 6/1/1
f 5/1/1 6/1/1 7/1/1
f 3/1/2 8/1/2 9/1/2
f 8/1/2 3/1/2 2/1/2
f 1/1/3 9/1/3 10/1/3
f 9/1/3 1/1/3 3/1/3
f 2/1/4 11/1/4 8/1/4
f 11/1/4 2/1/4 4/1/4
f 6/1/5 10/1/5 12/1/5
f 10/1/5 6/1/5 1/1/5
f 11/1/6 9/1/6 8/1/6
f 9/1/6 11/1/6 10/1/6
f 10/1/6 11/1/6 13/1/6
f 10/1/6 13/1/6 12/1/6
f 12/1/6 13/1/6 14/1/6
f 14/1/7 6/1/7 12/1/7
f 6/1/7 14/1/7 7/1/7
f 13/1/8 7/1/8 14/1/8
f 7/1/8 13/1/8 5/1/8
f 4/1/9 13/1/9 11/1/9
f 13/1/9 4/1/9 5/1/9
