# grass_tuft.obj — трава
# Generated by tools/valley-assets/build_assets.py; see
# assets/valley/CREDITS.txt. Colors are cells of
# assets/valley/textures/valley_atlas.png — no materials here.
# Source: Kenney Nature Kit (CC0) — https://kenney.nl/assets/nature-kit
v -0.188006 0.045317 0.070158
v -0.132888 0.000000 0.081317
v -0.188006 0.000000 0.081317
v -0.132888 0.045317 0.070158
v 0.089237 0.221536 0.080792
v 0.059057 0.131834 0.025674
v 0.089237 0.221536 0.025674
v 0.059057 0.131834 0.080792
v -0.034779 0.107103 0.080792
v 0.025581 0.063736 0.025674
v 0.025581 0.063736 0.080792
v -0.034779 0.107103 0.025674
v 0.155815 0.223650 -0.075869
v 0.100697 0.248500 -0.103428
v 0.155815 0.248500 -0.103428
v 0.100697 0.223650 -0.075869
v 0.155815 0.133091 -0.045689
v 0.100697 0.133091 -0.045689
v 0.049505 0.113652 -0.212466
v 0.104623 0.000000 -0.201307
v 0.049505 0.000000 -0.201307
v 0.104623 0.113652 -0.212466
v 0.049505 0.190984 -0.242646
v 0.104623 0.212205 -0.270205
v 0.104623 0.190984 -0.242646
v 0.049505 0.212205 -0.270205
v -0.020339 0.315000 -0.108351
v -0.047899 0.350000 -0.163469
v -0.020339 0.315000 -0.163469
v -0.047899 0.350000 -0.108351
v 0.103676 0.159855 -0.108351
v 0.043317 0.095128 -0.163469
v 0.103676 0.159855 -0.163469
v 0.043317 0.095128 -0.108351
v 0.155815 0.000000 -0.034530
v 0.100697 0.000000 -0.034530
v 0.019393 0.135599 0.242646
v -0.035725 0.080693 0.212466
v 0.019393 0.080693 0.212466
v -0.035725 0.135599 0.242646
v 0.047899 0.000000 0.025674
v 0.047899 0.000000 0.080792
v 0.020999 0.000000 -0.163469
v 0.020999 0.000000 -0.108351
v -0.188006 0.076152 0.039979
v -0.132888 0.076152 0.039979
v 0.009840 0.187453 -0.108351
v 0.009840 0.187453 -0.163469
v -0.035725 0.000000 0.201307
v 0.019393 0.000000 0.201307
v -0.262551 0.212205 -0.076653
v -0.234992 0.190984 -0.131771
v -0.234992 0.190984 -0.076653
v -0.262551 0.212205 -0.131771
v -0.035725 0.150665 0.270205
v 0.019393 0.150665 0.270205
v 0.234992 0.135599 0.049094
v 0.204812 0.080693 -0.006025
v 0.234992 0.135599 -0.006025
v 0.204812 0.080693 0.049094
v -0.204812 0.113652 -0.076653
v -0.204812 0.113652 -0.131771
v -0.031799 0.275591 0.020751
v -0.086918 0.248031 -0.006808
v -0.031799 0.248031 -0.006808
v -0.086918 0.275591 0.020751
v -0.188006 0.079256 0.140018
v -0.132888 0.047164 0.097163
v -0.132888 0.079256 0.140018
v -0.188006 0.047164 0.097163
v -0.132888 0.084614 0.012419
v -0.188006 0.084614 0.012419
v 0.116796 0.246152 0.025674
v 0.116796 0.246152 0.080792
v 0.262551 0.150665 -0.006025
v 0.262551 0.150665 0.049094
v -0.193653 0.000000 -0.076653
v -0.193653 0.000000 -0.131771
v 0.193653 0.000000 -0.006025
v 0.193653 0.000000 0.049094
v -0.031799 0.147601 -0.036988
v -0.086918 0.000000 -0.048147
v -0.031799 0.000000 -0.048147
v -0.086918 0.147601 -0.036988
vt 0.093750 0.656250
vn 0.000000 -0.239099 -0.970995
vn 0.000000 0.239099 0.970995
vn 0.947796 -0.318877 0.000000
vn -0.947796 0.318877 0.000000
vn -0.583496 -0.812116 0.000000
vn 0.583496 0.812116 0.000000
vn 0.000000 -0.742666 -0.669662
vn 0.000000 0.742666 0.669662
vn 0.000000 -0.316166 -0.948704
vn 0.000000 0.316166 0.948704
vn 0.000000 -0.097715 -0.995214
vn 0.000000 0.097715 0.995214
vn 0.000000 -0.792330 -0.610093
vn 0.000000 0.792330 0.610093
vn -0.785674 -0.618641 0.000000
vn 0.785674 0.618641 0.000000
vn 0.731354 -0.681998 0.000000
vn -0.731354 0.681998 0.000000
vn 0.000000 -0.083551 -0.996503
vn 0.000000 0.083551 0.996503
vn 0.000000 -0.481693 0.876340
vn 0.000000 0.481693 -0.876340
vn 0.996437 -0.084343 0.000000
vn -0.996437 0.084343 0.000000
vn 0.973565 -0.228408 0.000000
vn -0.973565 0.228408 0.000000
vn 0.000000 -0.699471 -0.714661
vn 0.000000 0.699471 0.714661
vn -0.973130 -0.230257 0.000000
vn 0.973130 0.230257 0.000000
vn -0.998233 -0.059424 0.000000
vn 0.998233 0.059424 0.000000
vn 0.000000 -0.136985 0.990573
vn 0.000000 0.136985 -0.990573
vn -0.610093 -0.792330 0.000000
vn 0.610093 0.792330 0.000000
vn 0.000000 -0.877436 0.479694
vn 0.000000 0.877436 -0.479694
vn 0.876340 -0.481693 0.000000
vn -0.876340 0.481693 0.000000
vn -0.931572 -0.363557 0.000000
vn 0.931572 0.363557 0.000000
vn 0.000000 -0.707107 0.707107
vn 0.000000 0.707107 -0.707107
vn 0.000000 -0.800443 0.599409
vn 0.000000 0.800443 -0.599409
vn 0.000000 -0.955958 -0.293504
vn 0.000000 0.955958 0.293504
vn 0.000000 -0.318474 0.947931
vn 0.000000 0.318474 -0.947931
vn 0.000000 -0.363557 -0.931572
vn 0.000000 0.363557 0.931572
vn 0.666150 -0.745818 0.000000
vn -0.666150 0.745818 0.000000
vn 0.479694 -0.877436 0.000000
vn -0.479694 0.877436 0.000000
vn -0.943810 -0.330488 0.000000
vn 0.943810 0.330488 0.000000
vn -0.995214 -0.097715 0.000000
vn 0.995214 0.097715 0.000000
vn 0.990573 -0.136985 0.000000
vn -0.990573 0.136985 0.000000
vn 0.000000 -0.075388 0.997154
vn 0.000000 0.075388 -0.997154
vn 0.000000 -0.287788 0.957694
vn 0.000000 0.287788 -0.957694
f 1/1/1 2/1/1 3/1/1
f 2/1/1 1/1/1 4/1/1
f 3/1/2 2/1/2 1/1/2
f 4/1/2 1/1/2 2/1/2
f 5/1/3 6/1/3 7/1/3
f 6/1/3 5/1/3 8/1/3
f 7/1/4 6/1/4 5/1/4
f 8/1/4 5/1/4 6/1/4
f 9/1/5 10/1/5 11/1/5
f 10/1/5 9/1/5 12/1/5
f 11/1/6 10/1/6 9/1/6
f 12/1/6 9/1/6 10/1/6
f 13/1/7 14/1/7 15/1/7
f 14/1/7 13/1/7 16/1/7
f 15/1/8 14/1/8 13/1/8
f 16/1/8 13/1/8 14/1/8
f 16/1/9 17/1/9 18/1/9
f 17/1/9 16/1/9 13/1/9
f 18/1/10 17/1/10 16/1/10
f 13/1/10 16/1/10 17/1/10
f 19/1/11 20/1/11 21/1/11
f 20/1/11 19/1/11 22/1/11
f 21/1/12 20/1/12 19/1/12
f 22/1/12 19/1/12 20/1/12
f 23/1/13 24/1/13 25/1/13
f 24/1/13 23/1/13 26/1/13
f 25/1/14 24/1/14 23/1/14
f 26/1/14 23/1/14 24/1/14
f 27/1/15 28/1/15 29/1/15
f 28/1/15 27/1/15 30/1/15
f 29/1/16 28/1/16 27/1/16
f 30/1/16 27/1/16 28/1/16
f 31/1/17 32/1/17 33/1/17
f 32/1/17 31/1/17 34/1/17
f 33/1/18 32/1/18 31/1/18
f 34/1/18 31/1/18 32/1/18
f 18/1/19 35/1/19 36/1/19
f 35/1/19 18/1/19 17/1/19
f 36/1/20 35/1/20 18/1/20
f 17/1/20 18/1/20 35/1/20
f 37/1/21 38/1/21 39/1/21
f 38/1/21 37/1/21 40/1/21
f 39/1/22 38/1/22 37/1/22
f 40/1/22 37/1/22 38/1/22
f 8/1/23 41/1/23 6/1/23
f 41/1/23 8/1/23 42/1/23
f 6/1/24 41/1/24 8/1/24
f 42/1/24 8/1/24 41/1/24
f 34/1/25 43/1/25 32/1/25
f 43/1/25 34/1/25 44/1/25
f 32/1/26 43/1/26 34/1/26
f 44/1/26 34/1/26 43/1/26
f 45/1/27 4/1/27 1/1/27
f 4/1/27 45/1/27 46/1/27
f 1/1/28 4/1/28 45/1/28
f 46/1/28 45/1/28 4/1/28
f 47/1/29 29/1/29 48/1/29
f 29/1/29 47/1/29 27/1/29
f 48/1/30 29/1/30 47/1/30
f 27/1/30 47/1/30 29/1/30
f 44/1/31 48/1/31 43/1/31
f 48/1/31 44/1/31 47/1/31
f 43/1/32 48/1/32 44/1/32
f 47/1/32 44/1/32 48/1/32
f 39/1/33 49/1/33 50/1/33
f 49/1/33 39/1/33 38/1/33
f 50/1/34 49/1/34 39/1/34
f 38/1/34 39/1/34 49/1/34
f 51/1/35 52/1/35 53/1/35
f 52/1/35 51/1/35 54/1/35
f 53/1/36 52/1/36 51/1/36
f 54/1/36 51/1/36 52/1/36
f 55/1/37 37/1/37 56/1/37
f 37/1/37 55/1/37 40/1/37
f 56/1/38 37/1/38 55/1/38
f 40/1/38 55/1/38 37/1/38
f 57/1/39 58/1/39 59/1/39
f 58/1/39 57/1/39 60/1/39
f 59/1/40 58/1/40 57/1/40
f 60/1/40 57/1/40 58/1/40
f 61/1/41 52/1/41 62/1/41
f 52/1/41 61/1/41 53/1/41
f 62/1/42 52/1/42 61/1/42
f 53/1/42 61/1/42 52/1/42
f 63/1/43 64/1/43 65/1/43
f 64/1/43 63/1/43 66/1/43
f 65/1/44 64/1/44 63/1/44
f 66/1/44 63/1/44 64/1/44
f 67/1/45 68/1/45 69/1/45
f 68/1/45 67/1/45 70/1/45
f 69/1/46 68/1/46 67/1/46
f 70/1/46 67/1/46 68/1/46
f 45/1/47 71/1/47 46/1/47
f 71/1/47 45/1/47 72/1/47
f 46/1/48 71/1/48 45/1/48
f 72/1/48 45/1/48 71/1/48
f 68/1/49 3/1/49 2/1/49
f 3/1/49 68/1/49 70/1/49
f 2/1/50 3/1/50 68/1/50
f 70/1/50 68/1/50 3/1/50
f 23/1/51 22/1/51 19/1/51
f 22/1/51 23/1/51 25/1/51
f 19/1/52 22/1/52 23/1/52
f 25/1/52 23/1/52 22/1/52
f 5/1/53 73/1/53 74/1/53
f 73/1/53 5/1/53 7/1/53
f 74/1/54 73/1/54 5/1/54
f 7/1/54 5/1/54 73/1/54
f 57/1/55 75/1/55 76/1/55
f 75/1/55 57/1/55 59/1/55
f 76/1/56 75/1/56 57/1/56
f 59/1/56 57/1/56 75/1/56
f 42/1/57 10/1/57 41/1/57
f 10/1/57 42/1/57 11/1/57
f 41/1/58 10/1/58 42/1/58
f 11/1/58 42/1/58 10/1/58
f 77/1/59 62/1/59 78/1/59
f 62/1/59 77/1/59 61/1/59
f 78/1/60 62/1/60 77/1/60
f 61/1/60 77/1/60 62/1/60
f 60/1/61 79/1/61 58/1/61
f 79/1/61 60/1/61 80/1/61
f 58/1/62 79/1/62 60/1/62
f 80/1/62 60/1/62 79/1/62
f 81/1/63 82/1/63 83/1/63
f 82/1/63 81/1/63 84/1/63
f 83/1/64 82/1/64 81/1/64
f 84/1/64 81/1/64 82/1/64
f 65/1/65 84/1/65 81/1/65
f 84/1/65 65/1/65 64/1/65
f 81/1/66 84/1/66 65/1/66
f 64/1/66 65/1/66 84/1/66
