# broadleaf_large.obj — лиственное дерево, большое
# Generated by tools/valley-assets/build_assets.py; see
# assets/valley/CREDITS.txt. Colors are cells of
# assets/valley/textures/valley_atlas.png — no materials here.
# Source: Kenney Nature Kit (CC0) — https://kenney.nl/assets/nature-kit
v 0.000000 2.989673 -1.038867
v 0.545475 1.519446 -0.314930
v 0.000000 1.519446 -0.629860
v 0.899685 2.989673 -0.519434
v -0.327285 1.305831 -0.188958
v 0.000000 1.305831 -0.377916
v -0.545475 1.519446 -0.314930
v -0.899685 2.989673 -0.519434
v 0.327285 1.305831 0.188958
v 0.545475 1.519446 0.314930
v 0.327285 1.305831 -0.188958
v 0.490565 7.249932 -0.283228
v 0.899685 2.989673 0.519434
v 0.490565 7.249932 0.283228
v 0.000000 1.519446 0.629860
v 0.000000 2.989673 1.038867
v 0.000000 7.249932 -0.566456
v -0.545475 1.519446 0.314930
v -0.327285 1.305831 0.188958
v 0.000000 1.305831 0.377916
v -0.490565 7.249932 -0.283228
v -0.899685 2.989673 0.519434
v 0.000000 7.249932 0.566456
v -0.490565 7.249932 0.283228
v -0.262845 7.600000 -0.151754
v 0.000000 7.600000 -0.303507
v 0.000000 7.600000 0.303507
v -0.262845 7.600000 0.151754
v 0.262845 7.600000 -0.151754
v 0.133499 1.305831 0.133499
v -0.133499 1.305831 0.133499
v -0.133499 1.305831 -0.133499
v 0.133499 1.305831 -0.133499
v 0.262845 7.600000 0.151754
v 0.210235 0.000000 -0.210235
v -0.210235 0.000000 -0.210235
v -0.210235 0.000000 0.210235
v 0.210235 0.000000 0.210235
vt 0.093750 0.718750
vt 0.093750 0.968750
vn 0.486092 -0.234221 -0.841936
vn -0.349788 -0.714558 -0.605850
vn -0.486092 -0.234221 -0.841936
vn 0.699576 -0.714559 0.000000
vn 0.995421 0.095592 0.000000
vn 0.486092 -0.234221 0.841936
vn 0.497710 0.095592 -0.862060
vn -0.699576 -0.714559 0.000000
vn 0.349788 -0.714558 0.605850
vn -0.349788 -0.714558 0.605850
vn -0.497710 0.095592 -0.862060
vn -0.486092 -0.234221 0.841936
vn 0.972183 -0.234221 0.000000
vn 0.497710 0.095592 0.862060
vn -0.972183 -0.234221 0.000000
vn -0.995421 0.095592 0.000000
vn -0.419126 0.545284 -0.725947
vn -0.419126 0.545284 0.725947
vn 0.419126 0.545284 -0.725947
vn 0.000000 -1.000000 0.000000
vn -0.497710 0.095592 0.862060
vn 0.000000 1.000000 0.000000
vn 0.838251 0.545284 0.000000
vn 0.349788 -0.714558 -0.605850
vn 0.419126 0.545284 0.725947
vn -0.838251 0.545284 0.000000
vn 0.000000 0.058663 -0.998278
vn -0.998278 0.058663 0.000000
vn 0.000000 0.058663 0.998278
vn 0.998278 0.058663 0.000000
f 1/1/1 2/1/1 3/1/1
f 2/1/1 1/1/1 4/1/1
f 5/1/2 3/1/2 6/1/2
f 3/1/2 5/1/2 7/1/2
f 8/1/3 3/1/3 7/1/3
f 3/1/3 8/1/3 1/1/3
f 9/1/4 2/1/4 10/1/4
f 2/1/4 9/1/4 11/1/4
f 12/1/5 13/1/5 4/1/5
f 13/1/5 12/1/5 14/1/5
f 13/1/6 15/1/6 10/1/6
f 15/1/6 13/1/6 16/1/6
f 17/1/7 4/1/7 1/1/7
f 4/1/7 17/1/7 12/1/7
f 18/1/8 5/1/8 19/1/8
f 5/1/8 18/1/8 7/1/8
f 15/1/9 9/1/9 10/1/9
f 9/1/9 15/1/9 20/1/9
f 18/1/10 20/1/10 15/1/10
f 20/1/10 18/1/10 19/1/10
f 21/1/11 1/1/11 8/1/11
f 1/1/11 21/1/11 17/1/11
f 16/1/12 18/1/12 15/1/12
f 18/1/12 16/1/12 22/1/12
f 13/1/13 2/1/13 4/1/13
f 2/1/13 13/1/13 10/1/13
f 14/1/14 16/1/14 13/1/14
f 16/1/14 14/1/14 23/1/14
f 7/1/15 22/1/15 8/1/15
f 22/1/15 7/1/15 18/1/15
f 22/1/16 21/1/16 8/1/16
f 21/1/16 22/1/16 24/1/16
f 25/1/17 17/1/17 21/1/17
f 17/1/17 25/1/17 26/1/17
f 27/1/18 24/1/18 23/1/18
f 24/1/18 27/1/18 28/1/18
f 26/1/19 12/1/19 17/1/19
f 12/1/19 26/1/19 29/1/19
f 20/1/20 11/1/20 9/1/20
f 11/1/20 20/1/20 30/1/20
f 30/1/20 20/1/20 31/1/20
f 31/1/20 20/1/20 19/1/20
f 31/1/20 19/1/20 32/1/20
f 33/1/20 11/1/20 30/1/20
f 11/1/20 33/1/20 6/1/20
f 6/1/20 33/1/20 32/1/20
f 6/1/20 32/1/20 5/1/20
f 5/1/20 32/1/20 19/1/20
f 23/1/21 22/1/21 16/1/21
f 22/1/21 23/1/21 24/1/21
f 26/1/22 34/1/22 29/1/22
f 34/1/22 26/1/22 27/1/22
f 27/1/22 26/1/22 25/1/22
f 27/1/22 25/1/22 28/1/22
f 29/1/23 14/1/23 12/1/23
f 14/1/23 29/1/23 34/1/23
f 11/1/24 3/1/24 2/1/24
f 3/1/24 11/1/24 6/1/24
f 34/1/25 23/1/25 14/1/25
f 23/1/25 34/1/25 27/1/25
f 24/1/26 25/1/26 21/1/26
f 25/1/26 24/1/26 28/1/26
f 32/2/27 35/2/27 36/2/27
f 35/2/27 32/2/27 33/2/27
f 37/2/28 32/2/28 36/2/28
f 32/2/28 37/2/28 31/2/28
f 30/2/29 37/2/29 38/2/29
f 37/2/29 30/2/29 31/2/29
f 33/2/30 38/2/30 35/2/30
f 38/2/30 33/2/30 30/2/30
f 37/2/20 35/2/20 38/2/20
f 35/2/20 37/2/20 36/2/20
