# pine_medium.obj — ель, средняя
# Generated by tools/valley-assets/build_assets.py; see
# assets/valley/CREDITS.txt. Colors are cells of
# assets/valley/textures/valley_atlas.png — no materials here.
# Source: Kenney Nature Kit (CC0) — https://kenney.nl/assets/nature-kit
v 0.000000 5.000000 0.000000
v 0.000000 4.124813 0.239393
v 0.169276 4.124813 0.169276
v 0.169276 4.124813 -0.169276
v 0.000000 4.124813 -0.239393
v 0.000000 2.940599 0.488657
v -0.486665 2.555772 0.486665
v 0.000000 2.555772 0.688249
v -0.345532 2.940599 0.345532
v 0.337173 3.892140 0.000000
v 0.238417 3.892140 -0.238417
v 0.239393 4.124813 0.000000
v 0.345532 2.940599 -0.345532
v 0.688249 2.555772 0.000000
v 0.486665 2.555772 -0.486665
v 0.488657 2.940599 0.000000
v 0.166042 3.892140 0.166042
v 0.000000 3.543089 0.337173
v 0.238417 3.543089 0.238417
v 0.000000 3.892140 0.234819
v 0.345532 2.940599 0.345532
v 0.486665 2.555772 0.486665
v 0.431915 2.239399 0.431915
v 0.000000 1.758365 0.860311
v 0.608332 1.758365 0.608332
v 0.000000 2.239399 0.610821
v 0.345324 2.555772 0.345324
v 0.000000 2.555772 0.488362
v -0.688249 2.555772 0.000000
v -0.345532 2.940599 -0.345532
v -0.486665 2.555772 -0.486665
v -0.488657 2.940599 0.000000
v -0.860311 1.758365 0.000000
v -0.431915 2.239399 0.431915
v -0.610821 2.239399 0.000000
v -0.608332 1.758365 0.608332
v 0.335799 3.192587 0.335799
v 0.391119 3.192587 0.000000
v 0.474892 3.192587 0.000000
v 0.276563 3.192587 0.276563
v 0.000000 3.192587 0.474892
v 0.000000 3.192587 0.391119
v -0.335799 3.192587 0.335799
v -0.276563 3.192587 0.276563
v -0.391119 3.192587 0.000000
v -0.474892 3.192587 0.000000
v 0.335799 3.192587 -0.335799
v 0.276563 3.192587 -0.276563
v 0.000000 3.192587 -0.474892
v 0.000000 3.192587 -0.391119
v -0.276563 3.192587 -0.276563
v -0.335799 3.192587 -0.335799
v 0.000000 2.239399 -0.610821
v 0.608332 1.758365 -0.608332
v 0.000000 1.758365 -0.860311
v 0.431915 2.239399 -0.431915
v -0.337173 3.892140 0.000000
v -0.169276 4.124813 -0.169276
v -0.238417 3.892140 -0.238417
v -0.239393 4.124813 0.000000
v 0.166042 3.892140 -0.166042
v 0.337173 3.543089 0.000000
v 0.238417 3.543089 -0.238417
v 0.234819 3.892140 0.000000
v 0.488362 2.555772 0.000000
v -0.345324 2.555772 0.345324
v -0.488362 2.555772 0.000000
v 0.345324 2.555772 -0.345324
v 0.000000 2.555772 -0.688249
v 0.000000 2.555772 -0.488362
v -0.345324 2.555772 -0.345324
v -0.431915 2.239399 -0.431915
v -0.608332 1.758365 -0.608332
v 0.000000 3.892140 -0.337173
v -0.238417 3.543089 -0.238417
v -0.337173 3.543089 0.000000
v -0.169276 4.124813 0.169276
v -0.238417 3.892140 0.238417
v 0.000000 3.892140 0.337173
v 0.238417 3.892140 0.238417
v 0.000000 2.940599 -0.488657
v -0.238417 3.543089 0.238417
v -0.166042 3.892140 0.166042
v -0.234819 3.892140 0.000000
v -0.166042 3.892140 -0.166042
v 0.860311 1.758365 0.000000
v 0.610821 2.239399 0.000000
v 0.000000 3.543089 -0.337173
v 0.000000 3.892140 -0.234819
v 0.093484 1.758365 0.093484
v -0.093484 1.758365 0.093484
v -0.093484 1.758365 -0.093484
v 0.093484 1.758365 -0.093484
v 0.157779 0.296828 0.157779
v -0.242737 0.000000 0.242737
v 0.242737 0.000000 0.242737
v -0.157779 0.296828 0.157779
v 0.157779 0.296828 -0.157779
v 0.242737 0.000000 -0.242737
v -0.157779 0.296828 -0.157779
v -0.242737 0.000000 -0.242737
v -0.303321 0.662359 -0.075014
v -0.140888 0.680803 0.012177
v -0.140888 0.680803 -0.095467
v -0.303321 0.662359 -0.008275
v -0.306988 0.579015 -0.008275
v -0.146801 0.546378 0.012177
v -0.146801 0.546378 -0.095467
v -0.306988 0.579015 -0.075014
v -0.047959 1.255494 0.115606
v -0.026430 1.349805 0.300017
v -0.047959 1.363034 0.110875
v -0.026430 1.285281 0.302855
v 0.038156 1.285281 0.302855
v 0.059685 1.255494 0.115606
v 0.038156 1.349805 0.300017
v 0.059685 1.363034 0.110875
vt 0.093750 0.781250
vt 0.031250 0.968750
vn 0.371020 0.245010 0.895720
vn 0.364001 0.308632 0.878777
vn 0.371020 0.245010 -0.895720
vn 0.364001 0.308632 -0.878777
vn -0.352433 0.389676 0.850849
vn -0.345109 0.432125 0.833167
vn 0.878777 0.308632 -0.364001
vn 0.861244 0.361935 -0.356739
vn 0.850849 0.389676 -0.352433
vn 0.833167 0.432125 -0.345109
vn 0.369369 0.261489 0.891734
vn 0.364481 0.304740 0.879936
vn 0.352433 0.389676 0.850849
vn 0.345109 0.432125 0.833167
vn 0.360336 0.336725 0.869928
vn -0.833167 0.432125 -0.345109
vn -0.850849 0.389676 -0.352433
vn -0.833167 0.432125 0.345109
vn -0.850849 0.389676 0.352433
vn 0.000000 -1.000000 0.000000
vn 0.352433 0.389676 -0.850849
vn 0.345109 0.432125 -0.833167
vn 0.869928 0.336725 -0.360336
vn -0.861244 0.361935 -0.356739
vn -0.878777 0.308632 -0.364001
vn 0.891734 0.261489 -0.369369
vn 0.879936 0.304740 -0.364481
vn 0.360336 0.336725 -0.869928
vn -0.364001 0.308632 -0.878777
vn -0.356739 0.361935 -0.861244
vn -0.868430 0.341223 -0.359716
vn -0.879936 0.304740 -0.364481
vn 0.891734 0.261489 0.369369
vn 0.879936 0.304740 0.364481
vn 0.850849 0.389676 0.352433
vn 0.833167 0.432125 0.345109
vn -0.861244 0.361935 0.356739
vn -0.878777 0.308632 0.364001
vn 0.356739 0.361935 0.861244
vn 0.868430 0.341223 -0.359716
vn 0.895720 0.245010 -0.371020
vn 0.356739 0.361935 -0.861244
vn -0.868430 0.341223 0.359716
vn -0.879936 0.304740 0.364481
vn -0.364001 0.308632 0.878777
vn -0.356739 0.361935 0.861244
vn 0.878777 0.308632 0.364001
vn 0.895720 0.245010 0.371020
vn -0.869928 0.336725 -0.360336
vn -0.895720 0.245010 0.371020
vn -0.891734 0.261489 0.369369
vn -0.891734 0.261489 -0.369369
vn 0.861244 0.361935 0.356739
vn -0.364481 0.304740 0.879936
vn -0.359716 0.341223 0.868430
vn -0.360336 0.336725 0.869928
vn -0.369369 0.261489 0.891734
vn 0.869928 0.336725 0.360336
vn -0.352433 0.389676 -0.850849
vn -0.345109 0.432125 -0.833167
vn 0.364481 0.304740 -0.879936
vn 0.359716 0.341223 -0.868430
vn -0.364481 0.304740 -0.879936
vn -0.359716 0.341223 -0.868430
vn -0.895720 0.245010 -0.371020
vn -0.369369 0.261489 -0.891734
vn -0.360336 0.336725 -0.869928
vn -0.371020 0.245010 -0.895720
vn -0.869928 0.336725 0.360336
vn -0.371020 0.245010 0.895720
vn 0.868430 0.341223 0.359716
vn 0.369369 0.261489 -0.891734
vn 0.359716 0.341223 0.868430
vn 0.000000 0.275170 0.961396
vn 0.961396 0.275170 0.000000
vn -0.961396 0.275170 0.000000
vn 0.000000 0.275170 -0.961396
vn -0.112826 0.993615 0.000000
vn -0.125541 0.005523 0.992073
vn -0.199642 -0.979869 0.000000
vn -0.999034 0.043949 0.000000
vn -0.125541 0.005523 -0.992073
vn -0.993533 0.004990 0.113437
vn 0.999034 0.043949 0.000000
vn 0.000000 -0.987582 0.157102
vn 0.993533 0.004990 0.113437
vn 0.000000 0.043949 -0.999034
vn 0.000000 0.997563 0.069772
vn 0.000000 0.043949 0.999034
f 1/1/1 2/1/2 3/1/2
f 1/1/3 4/1/4 5/1/4
f 6/1/5 7/1/6 8/1/6
f 7/1/6 6/1/5 9/1/5
f 4/1/7 10/1/8 11/1/8
f 10/1/8 4/1/7 12/1/7
f 13/1/9 14/1/10 15/1/10
f 14/1/10 13/1/9 16/1/9
f 17/1/11 18/1/12 19/1/12
f 18/1/12 17/1/11 20/1/11
f 21/1/13 8/1/14 22/1/14
f 8/1/14 21/1/13 6/1/13
f 23/1/13 24/1/14 25/1/14
f 24/1/14 23/1/13 26/1/13
f 27/1/15 26/1/13 23/1/13
f 26/1/13 27/1/15 28/1/15
f 29/1/16 30/1/17 31/1/16
f 30/1/17 29/1/16 32/1/17
f 33/1/18 34/1/19 35/1/19
f 34/1/19 33/1/18 36/1/18
f 37/1/20 38/1/20 39/1/20
f 38/1/20 37/1/20 40/1/20
f 40/1/20 37/1/20 41/1/20
f 40/1/20 41/1/20 42/1/20
f 42/1/20 41/1/20 43/1/20
f 42/1/20 43/1/20 44/1/20
f 44/1/20 43/1/20 45/1/20
f 45/1/20 43/1/20 46/1/20
f 38/1/20 47/1/20 39/1/20
f 47/1/20 38/1/20 48/1/20
f 47/1/20 48/1/20 49/1/20
f 49/1/20 48/1/20 50/1/20
f 49/1/20 50/1/20 51/1/20
f 49/1/20 51/1/20 52/1/20
f 52/1/20 51/1/20 45/1/20
f 52/1/20 45/1/20 46/1/20
f 26/1/5 36/1/6 24/1/6
f 36/1/6 26/1/5 34/1/5
f 53/1/21 54/1/22 55/1/22
f 54/1/22 53/1/21 56/1/21
f 48/1/23 16/1/9 13/1/9
f 16/1/9 48/1/23 38/1/23
f 57/1/24 58/1/25 59/1/24
f 58/1/25 57/1/24 60/1/25
f 61/1/26 62/1/27 63/1/27
f 62/1/27 61/1/26 64/1/26
f 22/1/20 65/1/20 14/1/20
f 65/1/20 22/1/20 27/1/20
f 27/1/20 22/1/20 8/1/20
f 27/1/20 8/1/20 28/1/20
f 28/1/20 8/1/20 66/1/20
f 66/1/20 8/1/20 7/1/20
f 66/1/20 7/1/20 67/1/20
f 67/1/20 7/1/20 29/1/20
f 65/1/20 15/1/20 14/1/20
f 15/1/20 65/1/20 68/1/20
f 15/1/20 68/1/20 69/1/20
f 69/1/20 68/1/20 70/1/20
f 69/1/20 70/1/20 71/1/20
f 69/1/20 71/1/20 31/1/20
f 31/1/20 71/1/20 67/1/20
f 31/1/20 67/1/20 29/1/20
f 40/1/15 6/1/13 21/1/13
f 6/1/13 40/1/15 42/1/15
f 33/1/16 72/1/17 73/1/16
f 72/1/17 33/1/16 35/1/17
f 70/1/28 56/1/21 53/1/21
f 56/1/21 70/1/28 68/1/28
f 58/1/29 74/1/30 59/1/30
f 74/1/30 58/1/29 5/1/29
f 46/1/31 75/1/32 52/1/31
f 75/1/32 46/1/31 76/1/32
f 17/1/33 62/1/34 64/1/33
f 62/1/34 17/1/33 19/1/34
f 21/1/35 14/1/36 16/1/35
f 14/1/36 21/1/35 22/1/36
f 57/1/37 77/1/38 60/1/38
f 77/1/38 57/1/37 78/1/37
f 3/1/2 79/1/39 80/1/39
f 79/1/39 3/1/2 2/1/2
f 81/1/21 15/1/22 69/1/22
f 15/1/22 81/1/21 13/1/21
f 63/1/27 39/1/40 47/1/40
f 39/1/40 63/1/27 62/1/27
f 12/1/7 4/1/7 1/1/41
f 29/1/18 9/1/19 32/1/19
f 9/1/19 29/1/18 7/1/18
f 5/1/4 11/1/42 74/1/42
f 11/1/42 5/1/4 4/1/4
f 46/1/43 82/1/44 76/1/44
f 82/1/44 46/1/43 43/1/43
f 2/1/45 78/1/46 79/1/46
f 78/1/46 2/1/45 77/1/45
f 3/1/47 12/1/47 1/1/48
f 32/1/17 51/1/49 30/1/17
f 51/1/49 32/1/17 45/1/49
f 77/1/38 1/1/50 60/1/38
f 76/1/44 83/1/51 84/1/51
f 83/1/51 76/1/44 82/1/44
f 76/1/32 85/1/52 75/1/32
f 85/1/52 76/1/32 84/1/52
f 3/1/47 10/1/53 12/1/47
f 10/1/53 3/1/47 80/1/53
f 35/1/17 71/1/49 72/1/17
f 71/1/49 35/1/17 67/1/49
f 18/1/54 43/1/55 41/1/55
f 43/1/55 18/1/54 82/1/54
f 42/1/56 9/1/5 6/1/5
f 9/1/5 42/1/56 44/1/56
f 20/1/57 82/1/54 18/1/54
f 82/1/54 20/1/57 83/1/57
f 23/1/35 86/1/36 87/1/35
f 86/1/36 23/1/35 25/1/36
f 65/1/58 23/1/35 87/1/35
f 23/1/35 65/1/58 27/1/58
f 30/1/59 69/1/60 31/1/60
f 69/1/60 30/1/59 81/1/59
f 88/1/61 47/1/62 49/1/62
f 47/1/62 88/1/61 63/1/61
f 72/1/59 55/1/60 73/1/60
f 55/1/60 72/1/59 53/1/59
f 68/1/23 87/1/9 56/1/9
f 87/1/9 68/1/23 65/1/23
f 75/1/63 49/1/64 52/1/64
f 49/1/64 75/1/63 88/1/63
f 56/1/9 86/1/10 54/1/10
f 86/1/10 56/1/9 87/1/9
f 1/1/65 58/1/25 60/1/25
f 40/1/58 16/1/35 38/1/58
f 16/1/35 40/1/58 21/1/35
f 85/1/66 88/1/63 75/1/63
f 88/1/63 85/1/66 89/1/66
f 51/1/67 81/1/59 30/1/59
f 81/1/59 51/1/67 50/1/67
f 1/1/68 5/1/29 58/1/29
f 34/1/19 67/1/69 35/1/19
f 67/1/69 34/1/19 66/1/69
f 1/1/70 77/1/45 2/1/45
f 19/1/34 39/1/71 62/1/34
f 39/1/71 19/1/34 37/1/71
f 89/1/72 63/1/61 88/1/61
f 63/1/61 89/1/72 61/1/72
f 28/1/56 34/1/5 26/1/5
f 34/1/5 28/1/56 66/1/56
f 80/1/20 11/1/20 10/1/20
f 11/1/20 80/1/20 64/1/20
f 64/1/20 80/1/20 17/1/20
f 17/1/20 80/1/20 79/1/20
f 17/1/20 79/1/20 20/1/20
f 20/1/20 79/1/20 83/1/20
f 83/1/20 79/1/20 78/1/20
f 83/1/20 78/1/20 84/1/20
f 61/1/20 11/1/20 64/1/20
f 11/1/20 61/1/20 74/1/20
f 74/1/20 61/1/20 89/1/20
f 74/1/20 89/1/20 85/1/20
f 74/1/20 85/1/20 59/1/20
f 59/1/20 85/1/20 84/1/20
f 59/1/20 84/1/20 78/1/20
f 59/1/20 78/1/20 57/1/20
f 19/1/12 41/1/73 37/1/73
f 41/1/73 19/1/12 18/1/12
f 50/1/28 13/1/21 81/1/21
f 13/1/21 50/1/28 48/1/28
f 71/1/67 53/1/59 72/1/59
f 53/1/59 71/1/67 70/1/67
f 32/1/19 44/1/69 45/1/69
f 44/1/69 32/1/19 9/1/19
f 25/1/20 54/1/20 86/1/20
f 54/1/20 25/1/20 24/1/20
f 54/1/20 24/1/20 90/1/20
f 90/1/20 24/1/20 91/1/20
f 91/1/20 24/1/20 36/1/20
f 91/1/20 36/1/20 92/1/20
f 93/1/20 54/1/20 90/1/20
f 54/1/20 93/1/20 55/1/20
f 55/1/20 93/1/20 92/1/20
f 55/1/20 92/1/20 73/1/20
f 73/1/20 92/1/20 36/1/20
f 73/1/20 36/1/20 33/1/20
f 94/2/74 95/2/74 96/2/74
f 95/2/74 94/2/74 97/2/74
f 98/2/75 96/2/75 99/2/75
f 96/2/75 98/2/75 94/2/75
f 95/2/76 100/2/76 101/2/76
f 100/2/76 95/2/76 97/2/76
f 100/2/77 99/2/77 101/2/77
f 99/2/77 100/2/77 98/2/77
f 102/2/78 103/2/78 104/2/78
f 103/2/78 102/2/78 105/2/78
f 103/2/79 106/2/79 107/2/79
f 106/2/79 103/2/79 105/2/79
f 106/2/80 108/2/80 107/2/80
f 108/2/80 106/2/80 109/2/80
f 95/2/20 99/2/20 96/2/20
f 99/2/20 95/2/20 101/2/20
f 106/2/81 102/2/81 109/2/81
f 102/2/81 106/2/81 105/2/81
f 109/2/82 104/2/82 108/2/82
f 104/2/82 109/2/82 102/2/82
f 110/2/83 111/2/83 112/2/83
f 111/2/83 110/2/83 113/2/83
f 93/2/84 94/2/84 98/2/84
f 94/2/84 93/2/84 90/2/84
f 114/2/85 110/2/85 115/2/85
f 110/2/85 114/2/85 113/2/85
f 116/2/86 115/2/86 117/2/86
f 115/2/86 116/2/86 114/2/86
f 92/2/87 98/2/87 100/2/87
f 98/2/87 92/2/87 93/2/87
f 112/2/88 116/2/88 117/2/88
f 116/2/88 112/2/88 111/2/88
f 116/2/89 113/2/89 114/2/89
f 113/2/89 116/2/89 111/2/89
f 94/2/89 115/2/89 97/2/89
f 115/2/89 94/2/89 90/2/89
f 115/2/89 90/2/89 117/2/89
f 117/2/89 90/2/89 112/2/89
f 110/2/89 97/2/89 115/2/89
f 97/2/89 110/2/89 91/2/89
f 91/2/89 110/2/89 112/2/89
f 91/2/89 112/2/89 90/2/89
f 97/2/81 108/2/81 100/2/81
f 108/2/81 97/2/81 107/2/81
f 107/2/81 97/2/81 103/2/81
f 103/2/81 97/2/81 91/2/81
f 104/2/81 100/2/81 108/2/81
f 100/2/81 104/2/81 92/2/81
f 92/2/81 104/2/81 103/2/81
f 92/2/81 103/2/81 91/2/81
