# axe.obj — топор
# Generated by tools/valley-assets/build_assets.py; see
# assets/valley/CREDITS.txt. Colors are cells of
# assets/valley/textures/valley_atlas.png — no materials here.
# Source: Kenney Survival Kit (CC0) — https://kenney.nl/assets/survival-kit
v -0.057239 0.743750 -0.022502
v -0.116384 0.800000 0.022502
v -0.057239 0.743750 0.022502
v -0.116384 0.800000 -0.022502
v 0.098553 0.724178 -0.022502
v 0.178884 0.683251 -0.022502
v 0.098553 0.650822 -0.022502
v 0.178884 0.724178 -0.022502
v -0.149734 0.604584 -0.022502
v -0.057239 0.631250 -0.022502
v -0.116384 0.575000 -0.022502
v -0.171384 0.643555 -0.022502
v 0.001906 0.640813 -0.022502
v 0.001906 0.734187 -0.022502
v -0.178884 0.687500 -0.022502
v -0.171384 0.731445 -0.022502
v -0.149734 0.770416 -0.022502
v -0.057239 0.631250 0.022502
v -0.149734 0.604584 0.022502
v -0.116384 0.575000 0.022502
v -0.171384 0.643555 0.022502
v 0.001906 0.640813 0.022502
v 0.001906 0.734187 0.022502
v -0.178884 0.687500 0.022502
v -0.171384 0.731445 0.022502
v -0.149734 0.770416 0.022502
v 0.098553 0.650822 0.022502
v 0.178884 0.683251 0.022502
v 0.098553 0.750000 0.048323
v 0.001906 0.625000 0.048323
v 0.098553 0.625000 0.048323
v 0.001906 0.750000 0.048323
v 0.098553 0.724178 0.022502
v 0.178884 0.724178 0.022502
v 0.001906 0.750000 -0.048323
v 0.098553 0.625000 -0.048323
v 0.001906 0.625000 -0.048323
v 0.098553 0.750000 -0.048323
v 0.078824 0.625000 0.028594
v 0.009917 0.000000 0.040313
v 0.090542 0.000000 0.040313
v 0.021636 0.625000 0.028594
v 0.021636 0.625000 -0.028594
v 0.009917 0.000000 -0.040313
v 0.078824 0.625000 -0.028594
v 0.090542 0.000000 -0.040313
vt 0.156250 0.343750
vt 0.093750 0.343750
vt 0.093750 0.843750
vt 0.156250 0.906250
vt 0.093750 0.968750
vn 0.689149 0.724620 0.000000
vn 0.000000 0.000000 -1.000000
vn 0.000000 0.000000 1.000000
vn 0.159606 -0.987181 0.000000
vn 0.689149 -0.724620 0.000000
vn 0.159606 0.987181 0.000000
vn 0.374346 -0.927289 0.000000
vn 0.000000 1.000000 0.000000
vn 0.000000 -1.000000 0.000000
vn 1.000000 0.000000 0.000000
vn -0.779999 -0.625780 0.000000
vn -0.663608 -0.748080 0.000000
vn -0.943398 -0.331663 0.000000
vn -1.000000 0.000000 0.000000
vn -0.943398 0.331663 0.000000
vn -0.779999 0.625780 0.000000
vn -0.663608 0.748080 0.000000
vn 0.000000 0.018747 0.999824
vn -0.999824 0.018747 0.000000
vn 0.999824 0.018747 0.000000
vn 0.000000 0.018747 -0.999824
f 1/1/1 2/1/1 3/1/1
f 2/1/1 1/1/1 4/1/1
f 5/2/2 6/2/2 7/2/2
f 6/1/2 5/1/2 8/1/2
f 9/2/2 10/2/2 11/2/2
f 10/2/2 9/2/2 12/2/2
f 10/2/2 12/2/2 13/2/2
f 13/2/2 12/2/2 14/2/2
f 14/2/2 12/2/2 15/2/2
f 14/1/2 15/1/2 16/1/2
f 14/1/2 16/1/2 1/1/2
f 1/1/2 16/1/2 17/1/2
f 1/1/2 17/1/2 4/1/2
f 18/2/3 19/2/3 20/2/3
f 19/2/3 18/2/3 21/2/3
f 21/2/3 18/2/3 22/2/3
f 21/2/3 22/2/3 23/2/3
f 21/2/3 23/2/3 24/2/3
f 24/1/3 23/1/3 25/1/3
f 25/1/3 23/1/3 3/1/3
f 25/1/3 3/1/3 26/1/3
f 26/1/3 3/1/3 2/1/3
f 18/2/4 13/2/4 22/2/4
f 13/2/4 18/2/4 10/2/4
f 20/2/5 10/2/5 18/2/5
f 10/2/5 20/2/5 11/2/5
f 14/1/6 3/1/6 23/1/6
f 3/1/6 14/1/6 1/1/6
f 27/2/7 6/2/7 28/2/7
f 6/2/7 27/2/7 7/2/7
f 29/2/3 30/2/3 31/2/3
f 30/1/3 29/1/3 32/1/3
f 28/2/3 33/2/3 27/2/3
f 33/1/3 28/1/3 34/1/3
f 5/1/8 34/1/8 8/1/8
f 34/1/8 5/1/8 33/1/8
f 35/2/2 36/2/2 37/2/2
f 36/1/2 35/1/2 38/1/2
f 30/2/9 36/2/9 31/2/9
f 36/2/9 30/2/9 37/2/9
f 35/1/8 29/1/8 38/1/8
f 29/1/8 35/1/8 32/1/8
f 34/1/10 6/1/10 8/1/10
f 6/2/10 34/2/10 28/2/10
f 19/2/11 11/2/12 20/2/12
f 11/2/12 19/2/11 9/2/11
f 9/2/11 21/2/13 12/2/13
f 21/2/13 9/2/11 19/2/11
f 12/2/13 24/2/14 15/2/14
f 24/2/14 12/2/13 21/2/13
f 15/1/14 25/1/15 16/1/15
f 25/2/15 15/2/14 24/2/14
f 16/1/15 26/1/16 17/1/16
f 26/1/16 16/1/15 25/1/15
f 4/1/17 26/1/16 2/1/17
f 26/1/16 4/1/17 17/1/16
f 32/1/14 14/1/14 23/1/14
f 32/1/14 23/1/14 22/1/14
f 14/1/14 32/1/14 35/1/14
f 32/2/14 22/2/14 30/2/14
f 35/1/14 13/1/14 14/1/14
f 13/2/14 30/2/14 22/2/14
f 37/2/14 13/2/14 35/2/14
f 13/2/14 37/2/14 30/2/14
f 5/1/10 29/1/10 33/1/10
f 33/1/10 29/1/10 27/1/10
f 5/1/10 38/1/10 29/1/10
f 31/2/10 27/2/10 29/2/10
f 38/2/10 5/2/10 36/2/10
f 31/2/10 7/2/10 27/2/10
f 36/2/10 7/2/10 31/2/10
f 7/2/10 36/2/10 5/2/10
f 39/3/18 40/3/18 41/3/18
f 40/3/18 39/3/18 42/3/18
f 40/3/19 43/3/19 44/3/19
f 43/3/19 40/3/19 42/3/19
f 45/3/20 41/3/20 46/3/20
f 41/3/20 45/3/20 39/3/20
f 43/3/21 46/3/21 44/3/21
f 46/3/21 43/3/21 45/3/21
f 43/4/8 39/4/8 45/4/8
f 39/4/8 43/4/8 42/4/8
f 40/5/9 46/5/9 41/5/9
f 46/5/9 40/5/9 44/5/9
f 1/1/1 2/1/1 3/1/1
f 2/1/1 1/1/1 4/1/1
f 5/2/2 6/2/2 7/2/2
f 6/1/2 5/1/2 8/1/2
f 9/2/2 10/2/2 11/2/2
f 10/2/2 9/2/2 12/2/2
f 10/2/2 12/2/2 13/2/2
f 13/2/2 12/2/2 14/2/2
f 14/2/2 12/2/2 15/2/2
f 14/1/2 15/1/2 16/1/2
f 14/1/2 16/1/2 1/1/2
f 1/1/2 16/1/2 17/1/2
f 1/1/2 17/1/2 4/1/2
f 18/2/3 19/2/3 20/2/3
f 19/2/3 18/2/3 21/2/3
f 21/2/3 18/2/3 22/2/3
f 21/2/3 22/2/3 23/2/3
f 21/2/3 23/2/3 24/2/3
f 24/1/3 23/1/3 25/1/3
f 25/1/3 23/1/3 3/1/3
f 25/1/3 3/1/3 26/1/3
f 26/1/3 3/1/3 2/1/3
f 18/2/4 13/2/4 22/2/4
f 13/2/4 18/2/4 10/2/4
f 20/2/5 10/2/5 18/2/5
f 10/2/5 20/2/5 11/2/5
f 14/1/6 3/1/6 23/1/6
f 3/1/6 14/1/6 1/1/6
f 27/2/7 6/2/7 28/2/7
f 6/2/7 27/2/7 7/2/7
f 29/2/3 30/2/3 31/2/3
f 30/1/3 29/1/3 32/1/3
f 28/2/3 33/2/3 27/2/3
f 33/1/3 28/1/3 34/1/3
f 5/1/8 34/1/8 8/1/8
f 34/1/8 5/1/8 33/1/8
f 35/2/2 36/2/2 37/2/2
f 36/1/2 35/1/2 38/1/2
f 30/2/9 36/2/9 31/2/9
f 36/2/9 30/2/9 37/2/9
f 35/1/8 29/1/8 38/1/8
f 29/1/8 35/1/8 32/1/8
f 34/1/10 6/1/10 8/1/10
f 6/2/10 34/2/10 28/2/10
f 19/2/11 11/2/12 20/2/12
f 11/2/12 19/2/11 9/2/11
f 9/2/11 21/2/13 12/2/13
f 21/2/13 9/2/11 19/2/11
f 12/2/13 24/2/14 15/2/14
f 24/2/14 12/2/13 21/2/13
f 15/1/14 25/1/15 16/1/15
f 25/2/15 15/2/14 24/2/14
f 16/1/15 26/1/16 17/1/16
f 26/1/16 16/1/15 25/1/15
f 4/1/17 26/1/16 2/1/17
f 26/1/16 4/1/17 17/1/16
f 32/1/14 14/1/14 23/1/14
f 32/1/14 23/1/14 22/1/14
f 14/1/14 32/1/14 35/1/14
f 32/2/14 22/2/14 30/2/14
f 35/1/14 13/1/14 14/1/14
f 13/2/14 30/2/14 22/2/14
f 37/2/14 13/2/14 35/2/14
f 13/2/14 37/2/14 30/2/14
f 5/1/10 29/1/10 33/1/10
f 33/1/10 29/1/10 27/1/10
f 5/1/10 38/1/10 29/1/10
f 31/2/10 27/2/10 29/2/10
f 38/2/10 5/2/10 36/2/10
f 31/2/10 7/2/10 27/2/10
f 36/2/10 7/2/10 31/2/10
f 7/2/10 36/2/10 5/2/10
f 39/3/18 40/3/18 41/3/18
f 40/3/18 39/3/18 42/3/18
f 40/3/19 43/3/19 44/3/19
f 43/3/19 40/3/19 42/3/19
f 45/3/20 41/3/20 46/3/20
f 41/3/20 45/3/20 39/3/20
f 43/3/21 46/3/21 44/3/21
f 46/3/21 43/3/21 45/3/21
f 43/4/8 39/4/8 45/4/8
f 39/4/8 43/4/8 42/4/8
f 40/5/9 46/5/9 41/5/9
f 46/5/9 40/5/9 44/5/9
