# broadleaf_medium.obj — лиственное дерево, среднее
# Generated by tools/valley-assets/build_assets.py; see
# assets/valley/CREDITS.txt. Colors are cells of
# assets/valley/textures/valley_atlas.png — no materials here.
# Source: Kenney Nature Kit (CC0) — https://kenney.nl/assets/nature-kit
v 0.065939 1.664416 0.416235
v -0.085497 1.632675 0.158304
v 0.089573 1.632675 0.158304
v -0.061863 1.664416 0.416235
v 0.139755 2.223701 -0.061769
v 0.372010 2.102936 -0.045137
v 0.144291 2.079150 -0.061769
v 0.368516 2.214241 -0.045137
v 0.368516 2.214241 0.066223
v 0.139755 2.223701 0.082854
v -0.067017 0.586262 -0.191146
v 0.072811 0.620804 -0.410912
v 0.100442 0.586262 -0.191146
v -0.039386 0.620804 -0.410912
v -0.061863 1.792155 0.412226
v -0.085497 1.807659 0.152812
v -0.209546 0.000000 -0.209546
v 0.209546 0.000000 -0.209546
v -0.133062 2.436938 -0.133062
v -0.067017 0.753638 -0.185893
v 0.100442 0.753638 -0.185893
v 0.133062 2.436938 -0.133062
v 0.072811 0.732946 -0.407392
v 0.372010 2.102936 0.066223
v -0.176390 1.056413 0.109743
v -0.439847 0.912068 0.079601
v -0.182121 0.873821 0.109743
v -0.436008 1.034404 0.079601
v -0.182121 0.873821 -0.072939
v -0.209546 0.000000 0.209546
v -0.133062 2.436938 0.133062
v -0.176390 1.056413 -0.072939
v 0.144291 2.079150 0.082854
v -0.039386 0.732946 -0.407392
v 0.209546 0.000000 0.209546
v 0.065939 1.792155 0.412226
v 0.089573 1.807659 0.152812
v 0.133062 2.436938 0.133062
v -0.439847 0.912068 -0.042796
v -0.436008 1.034404 -0.042796
v -0.448256 2.436938 0.776402
v -1.149373 2.908866 0.000000
v -0.896511 2.436938 0.000000
v -0.574687 2.908866 0.995386
v 0.574687 2.908866 0.995386
v 0.896511 2.436938 0.000000
v 1.149373 2.908866 0.000000
v 0.448256 2.436938 0.776402
v 0.448256 2.436938 -0.776402
v -0.448256 2.436938 -0.776402
v -0.442509 4.568225 0.766448
v 0.442509 4.568225 0.766448
v 0.000000 5.200000 0.000000
v 0.574687 2.908866 -0.995386
v -0.442509 4.568225 -0.766448
v -0.574687 2.908866 -0.995386
v -0.885018 4.568225 0.000000
v 0.442509 4.568225 -0.766448
v 0.885018 4.568225 0.000000
vt 0.093750 0.968750
vt 0.093750 0.718750
vn 0.000000 -0.992513 0.122139
vn 0.072605 0.002279 -0.997358
vn 0.041318 0.999146 0.000000
vn 0.000000 -0.987872 -0.155269
vn -0.995856 0.002853 0.090900
vn 0.000000 0.031370 -0.999508
vn 0.992257 0.003896 -0.124142
vn 0.999508 0.031371 0.000000
vn -0.115632 0.003629 0.993286
vn -0.999508 0.031370 0.000000
vn 0.103892 -0.994589 0.000000
vn -0.992257 0.003896 -0.124142
vn 0.000000 -1.000000 0.000000
vn 0.072605 0.002279 0.997358
vn 0.995856 0.002853 0.090900
vn 0.000000 0.031370 0.999508
vn 0.000000 0.998219 0.059660
vn 0.000000 0.995665 -0.093014
vn 0.999508 0.031370 0.000000
vn -0.146790 -0.989168 0.000000
vn -0.115632 0.003629 -0.993286
vn -0.084473 0.996426 0.000000
vn -0.785572 -0.420914 0.453550
vn 0.785572 -0.420914 0.453550
vn 0.000000 0.771642 0.636057
vn 0.785572 -0.420914 -0.453550
vn -0.857899 0.136674 -0.495308
vn 0.857899 0.136674 -0.495308
vn 0.857899 0.136674 0.495308
vn 0.550841 0.771642 0.318028
vn 0.000000 0.136673 0.990616
vn 0.000000 -0.420914 -0.907101
vn -0.785572 -0.420914 -0.453550
vn 0.000000 -0.420914 0.907101
vn -0.857899 0.136674 0.495308
vn -0.550841 0.771642 -0.318028
vn 0.000000 0.136673 -0.990616
vn 0.000000 0.771642 -0.636057
vn 0.550841 0.771642 -0.318028
vn -0.550841 0.771642 0.318028
f 1/1/1 2/1/1 3/1/1
f 2/1/1 1/1/1 4/1/1
f 5/1/2 6/1/2 7/1/2
f 6/1/2 5/1/2 8/1/2
f 5/1/3 9/1/3 8/1/3
f 9/1/3 5/1/3 10/1/3
f 11/1/4 12/1/4 13/1/4
f 12/1/4 11/1/4 14/1/4
f 2/1/5 15/1/5 16/1/5
f 15/1/5 2/1/5 4/1/5
f 17/1/6 11/1/6 18/1/6
f 11/1/6 17/1/6 19/1/6
f 11/1/6 19/1/6 20/1/6
f 20/1/6 19/1/6 21/1/6
f 13/1/6 18/1/6 11/1/6
f 18/1/6 13/1/6 22/1/6
f 22/1/6 13/1/6 21/1/6
f 22/1/6 21/1/6 19/1/6
f 23/1/7 13/1/7 12/1/7
f 13/1/7 23/1/7 21/1/7
f 9/1/8 6/1/8 8/1/8
f 6/1/8 9/1/8 24/1/8
f 25/1/9 26/1/9 27/1/9
f 26/1/9 25/1/9 28/1/9
f 17/1/10 29/1/10 19/1/10
f 29/1/10 17/1/10 30/1/10
f 29/1/10 30/1/10 27/1/10
f 27/1/10 30/1/10 25/1/10
f 25/1/10 30/1/10 31/1/10
f 19/1/10 32/1/10 31/1/10
f 32/1/10 19/1/10 29/1/10
f 31/1/10 32/1/10 25/1/10
f 33/1/11 6/1/11 24/1/11
f 6/1/11 33/1/11 7/1/11
f 11/1/12 34/1/12 14/1/12
f 34/1/12 11/1/12 20/1/12
f 30/1/13 18/1/13 35/1/13
f 18/1/13 30/1/13 17/1/13
f 24/1/14 10/1/14 33/1/14
f 10/1/14 24/1/14 9/1/14
f 36/1/15 3/1/15 37/1/15
f 3/1/15 36/1/15 1/1/15
f 35/1/16 3/1/16 30/1/16
f 3/1/16 35/1/16 38/1/16
f 3/1/16 38/1/16 37/1/16
f 37/1/16 38/1/16 16/1/16
f 2/1/16 30/1/16 3/1/16
f 30/1/16 2/1/16 31/1/16
f 31/1/16 2/1/16 16/1/16
f 31/1/16 16/1/16 38/1/16
f 16/1/17 36/1/17 37/1/17
f 36/1/17 16/1/17 15/1/17
f 23/1/18 20/1/18 21/1/18
f 20/1/18 23/1/18 34/1/18
f 38/1/19 5/1/19 22/1/19
f 5/1/19 38/1/19 10/1/19
f 10/1/19 38/1/19 33/1/19
f 7/1/19 22/1/19 5/1/19
f 35/1/19 22/1/19 7/1/19
f 35/1/19 7/1/19 33/1/19
f 35/1/19 33/1/19 38/1/19
f 22/1/19 35/1/19 18/1/19
f 36/1/16 4/1/16 1/1/16
f 4/1/16 36/1/16 15/1/16
f 34/1/6 12/1/6 14/1/6
f 12/1/6 34/1/6 23/1/6
f 26/1/20 29/1/20 27/1/20
f 29/1/20 26/1/20 39/1/20
f 39/1/21 32/1/21 29/1/21
f 32/1/21 39/1/21 40/1/21
f 40/1/22 25/1/22 32/1/22
f 25/1/22 40/1/22 28/1/22
f 26/1/10 40/1/10 39/1/10
f 40/1/10 26/1/10 28/1/10
f 41/2/23 42/2/23 43/2/23
f 42/2/23 41/2/23 44/2/23
f 45/2/24 46/2/24 47/2/24
f 46/2/24 45/2/24 48/2/24
f 48/2/13 49/2/13 46/2/13
f 49/2/13 48/2/13 38/2/13
f 38/2/13 48/2/13 41/2/13
f 38/2/13 41/2/13 31/2/13
f 31/2/13 41/2/13 19/2/13
f 22/2/13 49/2/13 38/2/13
f 49/2/13 22/2/13 50/2/13
f 50/2/13 22/2/13 19/2/13
f 50/2/13 19/2/13 41/2/13
f 50/2/13 41/2/13 43/2/13
f 51/2/25 52/2/25 53/2/25
f 47/2/26 49/2/26 54/2/26
f 49/2/26 47/2/26 46/2/26
f 42/2/27 55/2/27 56/2/27
f 55/2/27 42/2/27 57/2/27
f 58/2/28 47/2/28 54/2/28
f 47/2/28 58/2/28 59/2/28
f 52/2/29 47/2/29 59/2/29
f 47/2/29 52/2/29 45/2/29
f 53/2/30 52/2/30 59/2/30
f 52/2/31 44/2/31 45/2/31
f 44/2/31 52/2/31 51/2/31
f 56/2/32 49/2/32 50/2/32
f 49/2/32 56/2/32 54/2/32
f 50/2/33 42/2/33 56/2/33
f 42/2/33 50/2/33 43/2/33
f 45/2/34 41/2/34 48/2/34
f 41/2/34 45/2/34 44/2/34
f 44/2/35 57/2/35 42/2/35
f 57/2/35 44/2/35 51/2/35
f 57/2/36 53/2/36 55/2/36
f 55/2/37 54/2/37 56/2/37
f 54/2/37 55/2/37 58/2/37
f 55/2/38 53/2/38 58/2/38
f 53/2/39 59/2/39 58/2/39
f 57/2/40 51/2/40 53/2/40
