# settler_walk.obj — поселенец: шагает
# Generated by tools/valley-assets/build_assets.py; see
# assets/valley/CREDITS.txt. Colors are cells of
# assets/valley/textures/valley_atlas.png — no materials here.
# Source: Kenney Blocky Characters (CC0) — https://kenney.nl/assets/blocky-characters
v 0.000000 0.000000 0.189870
v 0.266667 0.009021 0.228945
v 0.266667 0.125920 0.468623
v 0.000000 0.000000 -0.076797
v 0.266667 0.608217 -0.063303
v 0.000000 0.666667 0.189870
v 0.266667 0.725116 0.176376
v 0.000000 0.666667 -0.076797
v -0.266667 0.009021 -0.115872
v -0.266667 0.125920 -0.355550
v -0.266667 0.608217 0.176376
v -0.266667 0.725116 -0.063303
v 0.266667 0.666667 0.256537
v -0.266667 0.666667 -0.143463
v 0.266667 0.666667 -0.143463
v -0.266667 0.666667 0.256537
v -0.266667 1.266667 -0.143463
v 0.266667 1.266667 -0.143463
v 0.266667 1.266667 0.256537
v -0.266667 1.266667 0.256537
v 0.533333 1.231339 0.113073
v 0.533333 0.750749 -0.501681
v 0.533333 1.372651 -0.113073
v 0.533333 0.609437 -0.275534
v 0.266667 0.750749 -0.501681
v 0.266667 1.372651 -0.113073
v 0.266667 0.609437 -0.275534
v 0.266667 1.231339 0.113073
v -0.266667 1.301995 0.113073
v -0.266667 0.538781 0.275534
v -0.266667 1.160683 -0.113073
v -0.266667 0.680093 0.501681
v -0.533333 0.538781 0.275534
v -0.533333 1.160683 -0.113073
v -0.533333 1.301995 0.113073
v -0.533333 0.680093 0.501681
v -0.266667 1.266667 0.323203
v -0.266667 1.800000 -0.210130
v -0.266667 1.266667 -0.210130
v -0.266667 1.800000 0.323203
v 0.266667 1.800000 0.323203
v 0.266667 1.800000 -0.210130
v 0.266667 1.266667 -0.210130
v 0.266667 1.266667 0.323203
vt 0.093750 0.156250
vt 0.093750 0.218750
vt 0.093750 0.281250
vn 0.000000 -1.000000 0.000000
vn 0.577350 0.577350 -0.577350
vn -0.577350 0.577350 0.577350
vn 0.577350 0.577350 0.577350
vn -0.577350 0.577350 -0.577350
vn 0.000000 0.000000 1.000000
vn 1.000000 0.000000 0.000000
vn -1.000000 0.000000 0.000000
vn 0.000000 0.000000 -1.000000
vn 0.000000 1.000000 0.000000
vn -0.707107 0.000000 0.707107
vn 0.707107 0.000000 0.707107
f 1/1/1 2/1/1 3/1/1
f 2/1/1 1/1/1 4/1/1
f 5/1/2 6/1/3 7/1/4
f 6/1/3 5/1/2 8/1/5
f 7/1/4 1/1/6 3/1/6
f 1/1/6 7/1/4 6/1/3
f 7/1/4 2/1/7 5/1/2
f 2/1/7 7/1/4 3/1/7
f 1/1/8 8/1/5 4/1/8
f 8/1/5 1/1/8 6/1/3
f 8/1/5 2/1/9 4/1/9
f 2/1/9 8/1/5 5/1/2
f 9/1/1 4/1/1 1/1/1
f 4/1/1 9/1/1 10/1/1
f 8/1/2 11/1/3 6/1/4
f 11/1/3 8/1/2 12/1/5
f 6/1/4 9/1/6 1/1/6
f 9/1/6 6/1/4 11/1/3
f 6/1/4 4/1/7 8/1/2
f 4/1/7 6/1/4 1/1/7
f 9/1/8 12/1/5 10/1/8
f 12/1/5 9/1/8 11/1/3
f 12/1/5 4/1/9 10/1/9
f 4/1/9 12/1/5 8/1/2
f 13/2/1 14/2/1 15/2/1
f 14/2/1 13/2/1 16/2/1
f 17/2/9 15/2/9 14/2/9
f 15/2/9 17/2/9 18/2/9
f 19/2/7 15/2/7 18/2/7
f 15/2/7 19/2/7 13/2/7
f 19/2/6 16/2/6 13/2/6
f 16/2/6 19/2/6 20/2/6
f 17/2/10 19/2/10 18/2/10
f 19/2/10 17/2/10 20/2/10
f 14/2/8 20/2/8 17/2/8
f 20/2/8 14/2/8 16/2/8
f 21/3/4 22/3/7 23/3/2
f 22/3/7 21/3/4 24/3/7
f 25/3/9 23/3/2 22/3/9
f 23/3/2 25/3/9 26/3/5
f 21/3/4 27/3/6 24/3/6
f 27/3/6 21/3/4 28/3/3
f 27/3/8 26/3/5 25/3/8
f 26/3/5 27/3/8 28/3/3
f 23/3/2 28/3/3 21/3/4
f 28/3/3 23/3/2 26/3/5
f 27/3/1 22/3/1 24/3/1
f 22/3/1 27/3/1 25/3/1
f 29/3/4 30/3/7 31/3/2
f 30/3/7 29/3/4 32/3/7
f 33/3/9 31/3/2 30/3/9
f 31/3/2 33/3/9 34/3/5
f 31/3/2 35/3/3 29/3/4
f 35/3/3 31/3/2 34/3/5
f 36/3/1 30/3/1 32/3/1
f 30/3/1 36/3/1 33/3/1
f 36/3/8 34/3/5 33/3/8
f 34/3/5 36/3/8 35/3/3
f 29/3/4 36/3/6 32/3/6
f 36/3/6 29/3/4 35/3/3
f 37/3/11 38/3/8 39/3/8
f 38/3/8 37/3/11 40/3/3
f 38/3/10 41/3/4 42/3/10
f 41/3/4 38/3/10 40/3/3
f 41/3/4 43/3/7 42/3/7
f 43/3/7 41/3/4 44/3/12
f 41/3/4 37/3/11 44/3/12
f 37/3/11 41/3/4 40/3/3
f 38/3/9 43/3/9 39/3/9
f 43/3/9 38/3/9 42/3/9
f 44/3/1 39/3/1 43/3/1
f 39/3/1 44/3/1 37/3/1
