# broadleaf_small.obj — лиственное дерево, малое
# Generated by tools/valley-assets/build_assets.py; see
# assets/valley/CREDITS.txt. Colors are cells of
# assets/valley/textures/valley_atlas.png — no materials here.
# Source: Kenney Nature Kit (CC0) — https://kenney.nl/assets/nature-kit
v 0.060214 0.669302 0.060214
v -0.094825 0.000000 0.094825
v 0.094825 0.000000 0.094825
v -0.060214 0.669302 0.060214
v 0.094825 0.000000 -0.094825
v -0.094825 0.000000 -0.094825
v 0.060214 0.669302 -0.060214
v -0.060214 0.669302 -0.060214
v 0.415327 1.484585 0.239789
v 0.415327 0.808169 -0.239789
v 0.415327 1.484585 -0.239789
v 0.415327 0.808169 0.239789
v 0.000000 2.376023 0.278156
v 0.240890 2.376023 0.139078
v 0.000000 2.600000 0.000000
v -0.415327 1.484585 0.239789
v 0.000000 1.484585 0.479579
v -0.240890 2.376023 0.139078
v 0.000000 0.669302 0.268564
v 0.232583 0.669302 -0.134282
v 0.232583 0.669302 0.134282
v -0.232583 0.669302 0.134282
v 0.000000 0.669302 -0.268564
v -0.232583 0.669302 -0.134282
v 0.240890 2.376023 -0.139078
v 0.000000 2.376023 -0.278156
v -0.240890 2.376023 -0.139078
v 0.000000 0.808169 -0.479579
v -0.415327 0.808169 -0.239789
v 0.000000 0.808169 0.479579
v 0.000000 1.484585 -0.479579
v -0.415327 0.808169 0.239789
v -0.415327 1.484585 -0.239789
vt 0.093750 0.968750
vt 0.093750 0.718750
vn 0.000000 0.051643 0.998666
vn 0.000000 -1.000000 0.000000
vn 0.998666 0.051643 0.000000
vn 0.000000 0.051643 -0.998666
vn -0.998666 0.051643 0.000000
vn 1.000000 0.000000 0.000000
vn 0.340467 0.732345 0.589706
vn -0.490694 0.192039 0.849906
vn -0.340467 0.732345 0.589706
vn 0.340467 0.732345 -0.589706
vn -0.680934 0.732345 0.000000
vn -0.302516 -0.796201 -0.523974
vn -0.340467 0.732345 -0.589706
vn 0.981387 0.192039 0.000000
vn 0.680934 0.732345 0.000000
vn 0.500000 0.000000 0.866025
vn 0.490694 0.192039 -0.849906
vn -1.000000 0.000000 0.000000
vn 0.605032 -0.796201 0.000000
vn -0.500000 0.000000 0.866025
vn -0.605032 -0.796201 0.000000
vn -0.981387 0.192039 0.000000
vn 0.490694 0.192039 0.849906
vn 0.302516 -0.796201 0.523974
vn 0.500000 0.000000 -0.866025
vn -0.490694 0.192039 -0.849906
vn 0.302516 -0.796201 -0.523974
vn -0.302516 -0.796201 0.523974
vn -0.500000 0.000000 -0.866025
f 1/1/1 2/1/1 3/1/1
f 2/1/1 1/1/1 4/1/1
f 2/1/2 5/1/2 3/1/2
f 5/1/2 2/1/2 6/1/2
f 7/1/3 3/1/3 5/1/3
f 3/1/3 7/1/3 1/1/3
f 8/1/4 5/1/4 6/1/4
f 5/1/4 8/1/4 7/1/4
f 2/1/5 8/1/5 6/1/5
f 8/1/5 2/1/5 4/1/5
f 9/2/6 10/2/6 11/2/6
f 10/2/6 9/2/6 12/2/6
f 13/2/7 14/2/7 15/2/7
f 13/2/8 16/2/8 17/2/8
f 16/2/8 13/2/8 18/2/8
f 18/2/9 13/2/9 15/2/9
f 19/2/2 20/2/2 21/2/2
f 20/2/2 19/2/2 1/2/2
f 1/2/2 19/2/2 4/2/2
f 4/2/2 19/2/2 22/2/2
f 4/2/2 22/2/2 8/2/2
f 7/2/2 20/2/2 1/2/2
f 20/2/2 7/2/2 23/2/2
f 23/2/2 7/2/2 8/2/2
f 23/2/2 8/2/2 24/2/2
f 24/2/2 8/2/2 22/2/2
f 15/2/10 25/2/10 26/2/10
f 18/2/11 15/2/11 27/2/11
f 24/2/12 28/2/12 23/2/12
f 28/2/12 24/2/12 29/2/12
f 27/2/13 15/2/13 26/2/13
f 25/2/14 9/2/14 11/2/14
f 9/2/14 25/2/14 14/2/14
f 15/2/15 14/2/15 25/2/15
f 9/2/16 30/2/16 12/2/16
f 30/2/16 9/2/16 17/2/16
f 26/2/17 11/2/17 31/2/17
f 11/2/17 26/2/17 25/2/17
f 32/2/18 33/2/18 29/2/18
f 33/2/18 32/2/18 16/2/18
f 21/2/19 10/2/19 12/2/19
f 10/2/19 21/2/19 20/2/19
f 17/2/20 32/2/20 30/2/20
f 32/2/20 17/2/20 16/2/20
f 32/2/21 24/2/21 22/2/21
f 24/2/21 32/2/21 29/2/21
f 16/2/22 27/2/22 33/2/22
f 27/2/22 16/2/22 18/2/22
f 14/2/23 17/2/23 9/2/23
f 17/2/23 14/2/23 13/2/23
f 30/2/24 21/2/24 12/2/24
f 21/2/24 30/2/24 19/2/24
f 31/2/25 10/2/25 28/2/25
f 10/2/25 31/2/25 11/2/25
f 27/2/26 31/2/26 33/2/26
f 31/2/26 27/2/26 26/2/26
f 20/2/27 28/2/27 10/2/27
f 28/2/27 20/2/27 23/2/27
f 32/2/28 19/2/28 30/2/28
f 19/2/28 32/2/28 22/2/28
f 33/2/29 28/2/29 29/2/29
f 28/2/29 33/2/29 31/2/29
