# berry_bush.obj — ягодный куст (единственное насыщенное пятно в атласе)
# Generated by tools/valley-assets/build_assets.py; see
# assets/valley/CREDITS.txt. Colors are cells of
# assets/valley/textures/valley_atlas.png — no materials here.
# Source: Kenney Nature Kit (CC0) — https://kenney.nl/assets/nature-kit
v -0.206183 0.448000 0.401323
v 0.000000 0.425745 0.567002
v 0.206183 0.448000 0.401323
v -0.206183 0.448000 -0.401323
v 0.206183 0.336843 -0.210907
v 0.206183 0.448000 -0.401323
v -0.206183 0.336843 -0.210907
v 0.000000 0.000000 0.000000
v -0.206183 0.336843 0.210907
v 0.206183 0.336843 0.210907
v 0.210907 0.526317 -0.206183
v 0.401323 0.700000 0.206183
v 0.401323 0.700000 -0.206183
v 0.210907 0.526317 0.206183
v -0.567002 0.665227 0.000000
v -0.401323 0.700000 0.206183
v -0.401323 0.700000 -0.206183
v -0.210907 0.526317 0.206183
v -0.210907 0.526317 -0.206183
v 0.567002 0.665227 0.000000
v 0.000000 0.425745 -0.567002
v 0.255151 0.315000 0.000000
v 0.192781 0.377370 0.000000
v 0.192781 0.315000 0.062370
v 0.130410 0.315000 0.000000
v 0.192781 0.315000 -0.062370
v 0.192781 0.252630 0.000000
v -0.171760 0.588000 0.214482
v -0.234130 0.650370 0.214482
v -0.234130 0.588000 0.276853
v -0.296500 0.588000 0.214482
v -0.234130 0.588000 0.152112
v -0.234130 0.525630 0.214482
v 0.101035 0.497000 -0.440568
v 0.038665 0.559370 -0.440568
v 0.038665 0.497000 -0.378198
v -0.023705 0.497000 -0.440568
v 0.038665 0.497000 -0.502938
v 0.038665 0.434630 -0.440568
v 0.217614 0.406000 0.202488
v 0.155244 0.468370 0.202488
v 0.155244 0.406000 0.264858
v 0.092874 0.406000 0.202488
v 0.155244 0.406000 0.140118
v 0.155244 0.343630 0.202488
v -0.311714 0.315000 -0.066170
v -0.374084 0.377370 -0.066170
v -0.374084 0.315000 -0.003800
v -0.436454 0.315000 -0.066170
v -0.374084 0.315000 -0.128540
v -0.374084 0.252630 -0.066170
v 0.225030 0.588000 -0.103471
v 0.162660 0.650370 -0.103471
v 0.162660 0.588000 -0.041101
v 0.100289 0.588000 -0.103471
v 0.162660 0.588000 -0.165841
v 0.162660 0.525630 -0.103471
v -0.020059 0.497000 0.306635
v -0.082429 0.559370 0.306635
v -0.082429 0.497000 0.369005
v -0.144800 0.497000 0.306635
v -0.082429 0.497000 0.244265
v -0.082429 0.434630 0.306635
v -0.141472 0.406000 -0.392484
v -0.203842 0.468370 -0.392484
v -0.203842 0.406000 -0.330114
v -0.266212 0.406000 -0.392484
v -0.203842 0.406000 -0.454854
v -0.203842 0.343630 -0.392484
v 0.302039 0.315000 0.087526
v 0.239669 0.377370 0.087526
v 0.239669 0.315000 0.149896
v 0.177299 0.315000 0.087526
v 0.239669 0.315000 0.025156
v 0.239669 0.252630 0.087526
vt 0.031250 0.718750
vt 0.093750 0.093750
vn 0.000000 0.991099 0.133130
vn 0.000000 -0.991099 -0.133130
vn 0.000000 0.863617 0.504148
vn 0.000000 -0.863617 -0.504148
vn 0.000000 0.530687 0.847568
vn 0.000000 -0.530687 -0.847568
vn 0.000000 0.863617 -0.504148
vn 0.000000 -0.863617 0.504148
vn -0.673901 0.738822 0.000000
vn 0.673901 -0.738822 0.000000
vn 0.000000 0.530687 -0.847568
vn 0.000000 -0.530687 0.847568
vn -0.205407 0.978677 0.000000
vn 0.205407 -0.978677 0.000000
vn 0.673901 0.738822 0.000000
vn -0.673901 -0.738822 0.000000
vn 0.928245 0.371969 0.000000
vn -0.928245 -0.371969 0.000000
vn 0.205407 0.978677 0.000000
vn -0.205407 -0.978677 0.000000
vn 0.000000 0.991099 -0.133130
vn 0.000000 -0.991099 0.133130
vn -0.928245 0.371969 0.000000
vn 0.928245 -0.371969 0.000000
vn 0.577350 0.577350 0.577350
vn -0.577350 0.577350 0.577350
vn -0.577350 0.577350 -0.577350
vn 0.577350 0.577350 -0.577350
vn 0.577350 -0.577350 0.577350
vn -0.577350 -0.577350 0.577350
vn -0.577350 -0.577350 -0.577350
vn 0.577350 -0.577350 -0.577350
f 1/1/1 2/1/1 3/1/1
f 3/1/2 2/1/2 1/1/2
f 4/1/3 5/1/3 6/1/3
f 5/1/3 4/1/3 7/1/3
f 6/1/4 5/1/4 4/1/4
f 7/1/4 4/1/4 5/1/4
f 7/1/5 8/1/5 5/1/5
f 5/1/6 8/1/6 7/1/6
f 9/1/7 3/1/7 10/1/7
f 3/1/7 9/1/7 1/1/7
f 10/1/8 3/1/8 9/1/8
f 1/1/8 9/1/8 3/1/8
f 11/1/9 12/1/9 13/1/9
f 12/1/9 11/1/9 14/1/9
f 13/1/10 12/1/10 11/1/10
f 14/1/10 11/1/10 12/1/10
f 10/1/11 8/1/11 9/1/11
f 9/1/12 8/1/12 10/1/12
f 15/1/13 16/1/13 17/1/13
f 17/1/14 16/1/14 15/1/14
f 17/1/15 18/1/15 19/1/15
f 18/1/15 17/1/15 16/1/15
f 19/1/16 18/1/16 17/1/16
f 16/1/16 17/1/16 18/1/16
f 18/1/17 8/1/17 19/1/17
f 19/1/18 8/1/18 18/1/18
f 12/1/19 20/1/19 13/1/19
f 13/1/20 20/1/20 12/1/20
f 4/1/21 6/1/21 21/1/21
f 21/1/22 6/1/22 4/1/22
f 14/1/23 11/1/23 8/1/23
f 8/1/24 11/1/24 14/1/24
f 22/2/25 23/2/25 24/2/25
f 24/2/26 23/2/26 25/2/26
f 25/2/27 23/2/27 26/2/27
f 26/2/28 23/2/28 22/2/28
f 22/2/29 24/2/29 27/2/29
f 24/2/30 25/2/30 27/2/30
f 25/2/31 26/2/31 27/2/31
f 26/2/32 22/2/32 27/2/32
f 28/2/25 29/2/25 30/2/25
f 30/2/26 29/2/26 31/2/26
f 31/2/27 29/2/27 32/2/27
f 32/2/28 29/2/28 28/2/28
f 28/2/29 30/2/29 33/2/29
f 30/2/30 31/2/30 33/2/30
f 31/2/31 32/2/31 33/2/31
f 32/2/32 28/2/32 33/2/32
f 34/2/25 35/2/25 36/2/25
f 36/2/26 35/2/26 37/2/26
f 37/2/27 35/2/27 38/2/27
f 38/2/28 35/2/28 34/2/28
f 34/2/29 36/2/29 39/2/29
f 36/2/30 37/2/30 39/2/30
f 37/2/31 38/2/31 39/2/31
f 38/2/32 34/2/32 39/2/32
f 40/2/25 41/2/25 42/2/25
f 42/2/26 41/2/26 43/2/26
f 43/2/27 41/2/27 44/2/27
f 44/2/28 41/2/28 40/2/28
f 40/2/29 42/2/29 45/2/29
f 42/2/30 43/2/30 45/2/30
f 43/2/31 44/2/31 45/2/31
f 44/2/32 40/2/32 45/2/32
f 46/2/25 47/2/25 48/2/25
f 48/2/26 47/2/26 49/2/26
f 49/2/27 47/2/27 50/2/27
f 50/2/28 47/2/28 46/2/28
f 46/2/29 48/2/29 51/2/29
f 48/2/30 49/2/30 51/2/30
f 49/2/31 50/2/31 51/2/31
f 50/2/32 46/2/32 51/2/32
f 52/2/25 53/2/25 54/2/25
f 54/2/26 53/2/26 55/2/26
f 55/2/27 53/2/27 56/2/27
f 56/2/28 53/2/28 52/2/28
f 52/2/29 54/2/29 57/2/29
f 54/2/30 55/2/30 57/2/30
f 55/2/31 56/2/31 57/2/31
f 56/2/32 52/2/32 57/2/32
f 58/2/25 59/2/25 60/2/25
f 60/2/26 59/2/26 61/2/26
f 61/2/27 59/2/27 62/2/27
f 62/2/28 59/2/28 58/2/28
f 58/2/29 60/2/29 63/2/29
f 60/2/30 61/2/30 63/2/30
f 61/2/31 62/2/31 63/2/31
f 62/2/32 58/2/32 63/2/32
f 64/2/25 65/2/25 66/2/25
f 66/2/26 65/2/26 67/2/26
f 67/2/27 65/2/27 68/2/27
f 68/2/28 65/2/28 64/2/28
f 64/2/29 66/2/29 69/2/29
f 66/2/30 67/2/30 69/2/30
f 67/2/31 68/2/31 69/2/31
f 68/2/32 64/2/32 69/2/32
f 70/2/25 71/2/25 72/2/25
f 72/2/26 71/2/26 73/2/26
f 73/2/27 71/2/27 74/2/27
f 74/2/28 71/2/28 70/2/28
f 70/2/29 72/2/29 75/2/29
f 72/2/30 73/2/30 75/2/30
f 73/2/31 74/2/31 75/2/31
f 74/2/32 70/2/32 75/2/32
